<?xml version="1.0" encoding="UTF-8"?>
<!DOCTYPE svg PUBLIC "-//W3C//DTD SVG 1.1//EN" "http://www.w3.org/Graphics/SVG/1.1/DTD/svg11.dtd">
<!-- Creator: CorelDRAW 2018 -->
<svg xmlns="http://www.w3.org/2000/svg" xml:space="preserve" width="117.167mm" height="30.4892mm" version="1.1" style="shape-rendering:geometricPrecision; text-rendering:geometricPrecision; image-rendering:optimizeQuality; fill-rule:evenodd; clip-rule:evenodd"
viewBox="0 0 5452.26 1418.79"
 xmlns:xlink="http://www.w3.org/1999/xlink">
 <defs>
  <style type="text/css">
   <![CDATA[
    .str0 {stroke:#2B2A29;stroke-width:34.9;stroke-miterlimit:22.9256}
    .fil0 {fill:navy}
    .fil1 {fill:#FFFF66;fill-rule:nonzero}
   ]]>
  </style>
 </defs>
 <g id="Layer_x0020_1">
  <metadata id="CorelCorpID_0Corel-Layer"/>
  <ellipse class="fil0 str0" cx="2726.13" cy="709.39" rx="2708.68" ry="691.94"/>
  <path class="fil1" d="M1701.77 709.71c0,43.02 -9.58,81.77 -28.74,116.27 -19.17,34.5 -46.53,61.65 -82.09,81.45 -35.56,19.8 -76.98,29.71 -124.25,29.71l-188.45 0 0 -452.29 188.45 0c47.27,0 88.69,9.58 124.25,28.75 35.56,19.16 62.92,45.78 82.09,79.85 19.16,34.07 28.74,72.83 28.74,116.27zm-247.86 100.93c31.94,0 57.28,-8.73 76.02,-26.19 18.74,-17.46 28.11,-42.37 28.11,-74.74 0,-32.37 -9.37,-57.28 -28.11,-74.74 -18.74,-17.46 -44.08,-26.19 -76.02,-26.19l-33.86 0 0 201.87 33.86 0zm440.79 -325.8l0 452.29 -141.82 0 0 -452.29 141.82 0zm205.7 344.97l136.71 0 0 107.32 -278.53 0 0 -452.29 141.82 0 0 344.97zm615.83 -344.97l-162.26 314.94 0 137.35 -141.82 0 0 -137.35 -162.26 -314.94 162.26 0 72.19 160.35 72.19 -160.35 159.71 0zm351.36 0l0 112.44 -177.6 0 0 62.6 127.77 0 0 106.68 -127.77 0 0 170.57 -141.82 0 0 -452.29 319.41 0zm189.73 0l0 452.29 -141.82 0 0 -452.29 141.82 0zm284.28 -7.66c42.59,0 81.56,9.9 116.9,29.7 35.35,19.8 63.35,47.38 84.01,82.73 20.66,35.35 30.98,75.17 30.98,119.46 0,44.29 -10.33,84.11 -30.98,119.46 -20.66,35.35 -48.76,63.03 -84.32,83.05 -35.56,20.01 -74.42,30.02 -116.59,30.02 -42.59,0 -81.66,-10.01 -117.22,-30.02 -35.56,-20.02 -63.78,-47.7 -84.65,-83.05 -20.87,-35.35 -31.3,-75.17 -31.3,-119.46 0,-44.29 10.44,-84.12 31.3,-119.46 20.87,-35.35 49.08,-62.92 84.65,-82.73 35.56,-19.8 74.64,-29.7 117.22,-29.7zm0 130.96c-28.53,0 -50.47,9.05 -65.8,27.15 -15.33,18.1 -23,42.7 -23,73.78 0,30.66 7.66,55.05 23,73.14 15.33,18.1 37.26,27.15 65.8,27.15 28.11,0 49.83,-9.05 65.16,-27.15 15.33,-18.1 23,-42.48 23,-73.14 0,-31.09 -7.67,-55.69 -23,-73.78 -15.33,-18.1 -37.06,-27.15 -65.16,-27.15zm632.44 195.48c0,25.98 -6.71,49.41 -20.13,70.27 -13.41,20.87 -32.9,37.37 -58.45,49.51 -25.55,12.14 -56,18.21 -91.35,18.21 -54.09,0 -98.7,-12.67 -133.83,-38.01 -35.14,-25.34 -54.19,-62.5 -57.18,-111.48l150.76 0c2.13,25.98 13.63,38.97 34.5,38.97 7.24,0 13.1,-1.91 17.57,-5.75 4.47,-3.83 6.71,-9.37 6.71,-16.61 0,-10.65 -5.43,-19.06 -16.29,-25.24 -10.86,-6.18 -28.43,-13.31 -52.7,-21.4 -28.53,-9.37 -52.28,-18.95 -71.23,-28.75 -18.95,-9.8 -35.45,-24.27 -49.51,-43.44 -14.05,-19.16 -21.08,-44.08 -21.08,-74.74 0,-29.39 7.56,-54.4 22.68,-75.06 15.12,-20.66 35.78,-36.31 61.96,-46.95 26.19,-10.65 55.68,-15.97 88.48,-15.97 54.09,0 97.1,12.56 129.04,37.69 31.94,25.13 49.41,61.33 52.38,108.6l-152.68 0c-2.13,-23.85 -11.92,-35.78 -29.39,-35.78 -5.96,0 -10.86,1.81 -14.69,5.43 -3.83,3.62 -5.75,9.05 -5.75,16.29 0,9.8 5.43,17.78 16.29,23.96 10.86,6.18 27.79,13.31 50.79,21.4 28.96,10.22 52.91,20.34 71.87,30.34 18.95,10 35.56,24.7 49.83,44.08 14.27,19.38 21.4,44.18 21.4,74.42z"/>
 </g>
</svg>
