<?xml version="1.0" encoding="UTF-8"?>
<!DOCTYPE svg PUBLIC "-//W3C//DTD SVG 1.1//EN" "http://www.w3.org/Graphics/SVG/1.1/DTD/svg11.dtd">
<!-- Creator: CorelDRAW 2018 -->
<svg xmlns="http://www.w3.org/2000/svg" xml:space="preserve" width="131.484mm" height="71.9462mm" version="1.1" style="shape-rendering:geometricPrecision; text-rendering:geometricPrecision; image-rendering:optimizeQuality; fill-rule:evenodd; clip-rule:evenodd"
viewBox="0 0 11379.5 6226.69"
 xmlns:xlink="http://www.w3.org/1999/xlink">
 <defs>
  <style type="text/css">
   <![CDATA[
    .str0 {stroke:#2B2A29;stroke-width:17.31;stroke-miterlimit:22.9256}
    .fil0 {fill:#B3AB62}
    .fil5 {fill:#B3AB62}
    .fil2 {fill:#2B2A29;fill-rule:nonzero}
    .fil3 {fill:black;fill-rule:nonzero}
    .fil4 {fill:#B3AB62;fill-rule:nonzero}
    .fil1 {fill:#EE3B3E;fill-rule:nonzero}
   ]]>
  </style>
 </defs>
 <g id="Layer_x0020_1">
  <metadata id="CorelCorpID_0Corel-Layer"/>
  <path class="fil0" d="M10613.1 5851.47c0,0 232.01,83.85 535.06,-251.18 303.04,-335.02 202.29,-577.74 101.51,-710.56 -100.75,-132.82 -391.56,-54.95 -391.56,-54.95 0,0 185.49,-599.92 41.22,-739.61 0,0 -201.5,-50.38 -384.69,70.97 0,0 112.19,-815.22 -210.69,-913.68 0,0 -265.64,-50.38 -462.56,20.6 0,0 -13.73,-611.4 -380.12,-673.22 -366.39,-61.82 -835.81,382.41 -922.84,554.16 -87.02,171.75 -163.49,268.53 -163.49,268.53l-438.12 156.43c0,0 87.75,195.49 -133.45,371.89 -221.18,176.39 -380.12,187.77 -380.12,187.77l40.71 346.65c0,0 552.03,991.61 797.2,1012.87 245.17,21.26 293.25,23.55 293.25,23.55 0,0 93.89,196.93 384.69,228.99 290.81,32.07 948,-32.07 948,-32.07 0,0 423.63,-25.2 545.01,50.38 121.37,75.58 180.91,82.41 180.91,82.41l0.09 0.06z"/>
  <path class="fil0" d="M771.64 5851.47c0,0 -232.01,83.85 -535.06,-251.18 -303.04,-335.02 -202.29,-577.74 -101.51,-710.56 100.75,-132.82 391.56,-54.95 391.56,-54.95 0,0 -185.49,-599.92 -41.22,-739.61 0,0 201.5,-50.38 384.69,70.97 0,0 -112.19,-815.22 210.69,-913.68 0,0 265.64,-50.38 462.56,20.6 0,0 13.73,-611.4 380.12,-673.22 366.39,-61.82 835.81,382.41 922.84,554.16 87.02,171.75 163.49,268.53 163.49,268.53l438.12 156.43c0,0 -87.75,195.49 133.45,371.89 221.18,176.39 380.12,187.77 380.12,187.77l-40.71 346.65c0,0 -552.03,991.61 -797.2,1012.87 -245.17,21.26 -293.25,23.55 -293.25,23.55 0,0 -93.89,196.93 -384.69,228.99 -290.81,32.07 -948,-32.07 -948,-32.07 0,0 -423.63,-25.2 -545.01,50.38 -121.37,75.58 -180.91,82.41 -180.91,82.41l-0.09 0.06z"/>
  <path class="fil1" d="M5689.74 182.1l-451.56 -153.53 -1004.03 545.55 -795.04 570.47 361 513.53 -892.67 -206.98 637.08 472.54 -710.06 122.55 627.92 169.38 -567.69 426.9 470.44 45.8 10.37 424.84 -289.29 280.9c138.33,38.99 494.4,158.31 717.62,404.25 271.98,299.65 769.31,635.82 770.77,636.79l7.58 5.17 501.86 1054.34 605.68 3.94 605.68 -3.94 501.86 -1054.34 7.58 -5.17c1.43,-0.97 498.75,-337.15 770.77,-636.79 223.22,-245.9 579.28,-365.25 717.62,-404.25l-289.29 -280.9 10.37 -424.84 470.44 -45.8 -567.69 -426.9 627.92 -169.38 -710.06 -122.55 637.08 -472.54 -892.67 206.98 361 -513.53 -795.04 -570.47 -1004.03 -545.55 -451.56 153.53 0.07 0z"/>
  <path class="fil2" d="M5689.74 221.53l-444.67 -151.19 -988.69 537.22 -782.9 561.76 355.49 505.69 -879.03 -203.82 627.35 465.33 -699.22 120.68 618.33 166.79 -559.02 420.38 463.26 45.1 10.2 418.35 -284.87 276.6c136.22,38.39 486.84,155.9 706.65,398.08 267.83,295.07 757.57,626.11 759,627.06l7.47 5.09 494.19 1038.24 596.43 3.88 596.43 -3.88 494.19 -1038.24 7.47 -5.09c1.4,-0.95 491.13,-332 759,-627.06 219.81,-242.15 570.43,-359.68 706.65,-398.08l-284.87 -276.6 10.2 -418.35 463.26 -45.1 -559.02 -420.38 618.33 -166.79 -699.22 -120.68 627.35 -465.33 -879.03 203.82 355.49 -505.69 -782.9 -561.76 -988.69 -537.22 -444.67 151.19 0.07 0zm88.13 5299.27l0 1.14 -88.1 -0.57 -88.1 0.57 0 -1.14 -549.52 -3.56 -504.23 -1059.31c-62.8,-43 -509.79,-352.72 -763.16,-631.83 -263.35,-290.11 -728.3,-392.96 -729.63,-393.28l-58.25 -13.19 348.71 -338.61 -8.1 -332.73 -571.77 -55.65 585.91 -440.6 -773.9 -208.75 839.6 -144.93 -755.72 -560.52 1016.97 235.82 -294.85 -419.43c279.36,-200.52 558.32,-401.92 838.32,-601.52 338.45,-185.23 678.17,-368.58 1017.26,-552.73l450.52 153.16 450.52 -153.16c339.05,184.14 678.78,367.5 1017.26,552.73 280,199.59 558.93,401 838.32,601.52l-294.85 419.43 1016.97 -235.82 -755.72 560.52 839.6 144.93 -773.9 208.75 585.91 440.6 -571.77 55.65 -8.1 332.73 348.71 338.61 -58.25 13.19c-1.33,0.32 -466.28,103.14 -729.63,393.28 -253.37,279.11 -700.36,588.86 -763.16,631.83l-504.23 1059.31 -549.52 3.56 -0.12 0z"/>
  <polygon class="fil2" points="4944.89,671.73 4944.89,857.22 4879.96,857.22 4879.96,671.73 "/>
  <polygon class="fil2" points="4813.98,730.88 5015.48,730.88 5015.48,795.78 4813.98,795.78 "/>
  <polygon class="fil2" points="5579.34,664.3 5425,826.86 5585.56,1080.42 5530.8,1114.91 5343.32,818.89 5532.46,619.67 "/>
  <polygon class="fil2" points="5324.06,1069.97 4897.89,1261.52 4502.22,925.45 4544.09,876 4908.69,1185.71 5297.68,1010.88 "/>
  <path class="fil2" d="M4391.18 1858.39l346.05 -208.27 -177.95 -3.06 -76.85 -230.55 -91.25 441.84 0 0.04zm476.17 -210.88l-569.45 342.71 169.78 -822.21 138.41 415.21 357.87 6.14 -96.65 58.16 0.03 0z"/>
  <polygon class="fil2" points="5139.31,2145.7 4869.12,1962.51 4905.39,1909.02 5175.57,2092.22 "/>
  <polygon class="fil2" points="4670.3,2031.67 5068.75,2191.94 5044.66,2252.05 4646.2,2091.74 "/>
  <polygon class="fil2" points="4479.09,2129.62 4998.92,2315.1 4977.09,2376.19 4457.29,2190.71 "/>
  <polygon class="fil2" points="4338.13,2281.25 4828.19,2475.89 4804.35,2535.99 4314.3,2341.36 "/>
  <path class="fil2" d="M4059.28 2759.17l116.26 -130.56 -163.94 -345.29 457.54 393.15 -139.81 92.39 251.82 494.44 -543.45 -479.88 21.58 -24.25 0.01 0.01zm178.96 -103.46l-108.95 122.33 239.7 211.67 -123.73 -242.91 116.64 -77.07 -160.75 -138.13 51.33 108.12 -14.27 16.02 0.03 -0.03z"/>
  <path class="fil2" d="M5163.53 1605.34l526.25 602.05 526.25 -602.05 48.69 42.59 -536.65 613.94 0 322.31 1030.45 187.77 -427.18 1111.75 -128.21 -890.38 -124.58 211 -123.25 -233.12 -241.33 0 -48.34 0 -241.33 0 -123.25 233.12 -124.58 -211 -128.21 890.38 -427.18 -1111.75 1030.45 -187.77 0 -322.31 -536.65 -613.94 48.69 -42.59 -0.03 0zm526.25 1037.6l-980.46 178.68 310.17 807.18 119.09 -827.04 159.36 269.9 87.43 -165.33 280.25 0 48.34 0 280.25 0 87.43 165.33 159.36 -269.9 119.09 827.04 310.17 -807.18 -980.46 -178.68 -0.02 0z"/>
  <path class="fil2" d="M3933.58 1950.88c-0.51,1.69 -179.66,579.64 -51.64,875.44 64.81,149.7 129.45,265.2 231.31,365.11 102.27,100.33 243.39,186.37 461.29,277.23l14.27 5.95 4.35 14.84c0.51,1.75 177.38,609.33 289.28,783.95l-53.36 36.64c-0.44,-0.61 -156.66,-216.15 -425.63,-202.07l-17.22 0.92 -10.39 -13.95c-2.09,-2.8 -728.42,-972.73 -775.65,-1527.08 -2.61,-19.54 -31.75,-287.85 277.84,-647.51l100.33 -116.54 -44.81 147.12 0.03 -0.06zm-110.99 901.04c-94.04,-217.29 -36.83,-566.43 8.99,-766.21 -197.12,283.63 -167.17,473.31 -167.08,473.94l0.25 2.03c41.95,499.11 666.1,1362.96 752.95,1481.06 140.35,-2.83 252.41,49.3 331.17,104.57 -92.96,-222.89 -191.87,-551.71 -213.48,-624.74 -217.87,-92.08 -361.4,-180.81 -467.55,-284.93 -108.88,-106.82 -177.25,-228.54 -245.26,-385.68l0.01 -0.03z"/>
  <path class="fil3" d="M2743.36 4105.6c-60.99,-86.86 -183.61,-296.94 -242.03,-647.47 -38.26,-229.66 -67.26,-373.28 -115.21,-450.9 -42.27,-68.42 -104.79,-83.15 -213.39,-63.02 -113.05,20.94 -200.26,64.68 -258.36,120.59 -59.28,57.05 -87.75,126.94 -81.52,197.46 0.29,3.21 0.76,6.77 1.43,10.65l0 0.13c14.97,85.91 109.78,305.85 269.26,499.84 156.68,190.6 375.45,354.12 639.81,332.7l0 0.03zm-178.14 -658.12c76.28,457.7 261.82,660.85 262.33,661.46l39.25 43.54 -57.87 10.07c-19.04,3.31 -37.67,5.76 -55.78,7.34 -292.21,25.77 -530.48,-150.3 -699.56,-355.97 -167.02,-203.15 -267,-437.33 -283.18,-529.91 -1.05,-5.95 -1.81,-11.38 -2.22,-16.24 -7.98,-90.2 27.43,-178.59 101.29,-249.69 66.74,-64.23 165.3,-114.2 291.57,-137.58 138.7,-25.68 220.48,-3.75 280.06,92.67 53.9,87.24 84.51,236.75 124.08,474.22l0.03 0.08z"/>
  <path class="fil3" d="M2198.38 4810.88c-60.99,-86.86 -183.61,-296.94 -242.03,-647.47 -38.26,-229.66 -67.26,-373.28 -115.21,-450.9 -42.27,-68.42 -104.79,-83.15 -213.39,-63.02 -113.05,20.94 -200.26,64.68 -258.36,120.59 -59.28,57.05 -87.75,126.94 -81.52,197.46 0.29,3.21 0.76,6.77 1.43,10.65l0 0.13c14.97,85.91 109.78,305.85 269.26,499.84 156.68,190.6 375.45,354.12 639.81,332.7l0 0.03zm-178.14 -658.12c76.28,457.7 261.82,660.85 262.33,661.46l39.25 43.54 -57.87 10.07c-19.04,3.31 -37.67,5.76 -55.78,7.34 -292.21,25.77 -530.48,-150.3 -699.56,-355.97 -167.02,-203.15 -267,-437.33 -283.18,-529.91 -1.05,-5.95 -1.81,-11.38 -2.22,-16.24 -7.98,-90.2 27.43,-178.59 101.29,-249.69 66.74,-64.23 165.3,-114.2 291.57,-137.58 138.7,-25.68 220.48,-3.75 280.06,92.67 53.9,87.24 84.51,236.75 124.08,474.22l0.03 0.08z"/>
  <path class="fil3" d="M1694.61 5548.2c-60.99,-86.86 -183.61,-296.94 -242.03,-647.47 -38.26,-229.66 -67.26,-373.28 -115.21,-450.9 -42.27,-68.42 -104.79,-83.15 -213.39,-63.02 -113.05,20.94 -200.26,64.68 -258.36,120.59 -59.28,57.05 -87.75,126.94 -81.52,197.46 0.29,3.21 0.76,6.77 1.43,10.65l0 0.13c14.97,85.91 109.78,305.85 269.26,499.84 156.68,190.6 375.45,354.12 639.81,332.7l0 0.03zm-178.15 -658.12c76.28,457.7 261.82,660.85 262.33,661.46l39.25 43.54 -57.87 10.07c-19.04,3.31 -37.67,5.76 -55.78,7.34 -292.21,25.77 -530.48,-150.3 -699.56,-355.97 -167.02,-203.15 -267,-437.33 -283.18,-529.91 -1.05,-5.95 -1.81,-11.38 -2.22,-16.24 -7.98,-90.2 27.43,-178.59 101.29,-249.69 66.74,-64.23 165.3,-114.2 291.57,-137.58 138.7,-25.68 220.48,-3.75 280.06,92.67 53.9,87.24 84.51,236.78 124.08,474.22l0.03 0.08z"/>
  <path class="fil3" d="M1284.1 6151.31c-70.08,-79.58 -214.95,-275.01 -311.37,-617.15 -63.15,-224.07 -107.68,-363.65 -163.81,-435.54 -49.49,-63.34 -113.24,-71.13 -219.04,-39.25 -110.16,33.22 -192.06,86.17 -243.61,147.98 -52.66,63.19 -73.36,135.81 -59.43,205.22 0.8,3.91 1.62,7.41 2.51,10.49 24.25,83.72 142.54,291.98 322.37,467.45 176.65,172.36 411.96,310.99 672.35,260.81l0.03 0zm-248.99 -634.66c125.86,446.61 332.61,628.34 333.2,628.85l43.22 38.96 -55.91 16.18c-19.16,5.56 -37.41,10.04 -54.7,13.51 -287.7,57.59 -543.8,-91.38 -734.3,-277.27 -188.25,-183.7 -313.25,-405.67 -339.37,-495.83 -1.88,-6.45 -3.25,-11.79 -4.03,-15.83 -17.77,-88.77 7.75,-180.49 73.38,-259.22 59.41,-71.25 151.92,-131.74 274.79,-168.77 135.01,-40.69 218.69,-27.81 288.49,61.56 63.19,80.85 109.93,226.13 175.21,457.86l0.02 0z"/>
  <path class="fil3" d="M3095.26 5449.01c0.42,-0.67 146.68,-235.09 138.73,-697.37 -4.13,-239.99 -1.14,-392.16 36.13,-487.64 41.16,-105.48 117.82,-142.54 259.25,-144.04 128.82,-1.37 235.06,28.57 312.55,78.53 85.91,55.42 137.01,135.26 145.56,225.31 0.38,4.01 0.63,8.59 0.73,13.61 1.94,91.66 -53.9,342.17 -182.75,574.88 -130.3,235.29 -335.43,454.81 -632.09,483.06 -16.18,1.52 -32.8,2.51 -49.83,2.86l-59.02 1.24 30.73 -50.4 0.01 -0.03zm203.38 -698.39c6.07,353.58 -76.5,582.38 -120.9,679.19 264.91,-29.97 451.12,-232.2 571.16,-448.96 123.03,-222.19 176.42,-457.25 174.64,-542.18 -0.06,-3.06 -0.23,-6.01 -0.51,-8.78 -6.65,-69.86 -47.38,-132.56 -116.14,-176.9 -67.54,-43.58 -161.62,-69.6 -277.08,-68.4 -110.92,1.18 -170,27.69 -199.4,102.95 -33.31,85.3 -35.79,231.25 -31.81,463.04l0.03 0.03z"/>
  <path class="fil3" d="M2975.75 3434.45c-1.05,-2.22 -358.25,-779.05 -1025.33,-805.71l-0.76 0c-0.95,-0.06 -338.29,-29.56 -373.25,660.72l-2.32 45.83 -42.3 -17.45c-1.05,-0.44 -372.37,-155.77 -540.15,41.38 -173.4,203.76 -75.36,801.24 -75.11,802.95l10.3 63.66 -57.21 -29.94c-0.86,-0.44 -296.56,-156.59 -380.62,-45.77 -90.77,119.66 73.55,675.03 74.02,676.62l17.03 57.75 -57.59 -17.67c-1.12,-0.35 -386.53,-121.79 -448.7,222.06 -30.41,168.32 18.28,322.82 115.72,453.94 55.49,74.69 126.75,141.88 208.27,199.91 37.28,50.25 79.87,101.87 127.03,151.7 -155.48,-78.7 -292.43,-185.49 -387.3,-313.09 -107.65,-144.86 -161.3,-316.23 -127.39,-503.91 59.09,-326.95 352.18,-308.7 476.01,-285.59 -39.6,-147.88 -139.11,-561.47 -48.6,-680.78 88.32,-116.42 304.67,-42.43 406.85,1.62 -20.09,-162.06 -58.89,-610.89 98.08,-795.33 160.47,-188.57 461.73,-111.46 572.05,-74.65 51.33,-711.73 438.09,-678.71 439.2,-678.62 654.46,26.73 1022.86,725.5 1074.31,829.87l449.72 137.27 -5.95 28.76c-89.59,435.13 499.91,552.28 501.56,552.63l28.51 5.95 -2.89 28.92c-145.5,1450.8 -1006.39,1421.72 -1155.58,1405.64 -187.33,303.65 -630.27,263.47 -1086.93,222 -95.41,-8.68 -191.49,-17.39 -287.57,-23.04 -131.93,-7.75 -246.57,0.23 -344.33,16.59 -8.52,-19.52 -17.01,-39.79 -25.36,-60.95 105.67,-19.04 230.08,-28.73 373.51,-20.28 94.27,5.53 192.25,14.43 289.6,23.3 444.76,40.39 875.95,79.58 1035.85,-208.2l11.1 -19.93 22.41 3.72c2.7,0.44 938.69,170.19 1099.86,-1317.03 -122.33,-31.28 -590.99,-178.97 -528.16,-593.19l-421.44 -128.63 -6.14 -13.03 -0.03 -0.01z"/>
  <path class="fil3" d="M1975.43 3910.32c19.61,-32.33 45.64,-64.26 80.06,-94.11 14.21,17.22 28.92,34.23 44.08,50.92 -56.86,49.74 -86.76,105.42 -101.74,156.4 -7.5,-41 -14.88,-78.7 -22.44,-113.21l0.03 0.01z"/>
  <path class="fil3" d="M2996.03 3728.53l82.57 1082.06 0 1.9c0.03,1.52 14.84,530.74 -410.78,490.69 -197.31,-18.56 -345.7,-66.23 -445.4,-109.71 83.17,81.59 220.25,186.91 427.89,267.16l51.36 19.84 -42.36 35.18c-0.48,0.42 -167.68,142.92 -462.47,80.12 -237.54,-50.63 -223.62,160.41 -223.59,161.01l6.23 104.28 -64.14 -82.48c-0.16,-0.23 -61.27,-78.47 -259.69,-341.53 -116.39,-154.3 -220.38,-387.9 -205.57,-639.02 5.28,-89.08 25.43,-180.27 65.15,-270.75 15.32,18.37 31.21,36.49 47.64,54.22 -28.83,73.86 -43.89,147.88 -48.15,220.35 -13.8,233.5 83.62,451.69 192.64,596.18 104.21,138.13 170.93,225.75 210.52,277.52 20.94,-81.74 87.05,-186.91 292.4,-143.15 173.88,37.06 295.42,-3.4 358.22,-35.41 -369.37,-160.5 -506.77,-396.58 -507.19,-397.31l-86.36 -145.09 133.9 103.01c0.54,0.42 185.04,145.43 564.78,181.19 340.36,32.04 340.74,-391.94 340.33,-423.38l-83.17 -1089.53 -174.33 -7.15c-44.81,-1.71 -86.99,-2.07 -126.81,-1.27 -6.58,-20.6 -12.96,-42.02 -19.16,-64.33 46.34,-1.33 95.73,-1.08 148.39,0.95l203.31 8.36 -0.38 10.04 29.75 -2.22 4.45 58.32 0.04 -0.07z"/>
  <polygon class="fil2" points="6434.63,671.73 6434.63,857.22 6499.53,857.22 6499.53,671.73 "/>
  <polygon class="fil2" points="6565.54,730.88 6364.05,730.88 6364.05,795.78 6565.54,795.78 "/>
  <polygon class="fil2" points="5800.16,664.3 5954.53,826.86 5793.96,1080.42 5848.72,1114.91 6036.21,818.89 5847.07,619.67 "/>
  <polygon class="fil2" points="6055.46,1069.97 6481.64,1261.52 6877.27,925.45 6835.44,876 6470.84,1185.71 6081.82,1010.88 "/>
  <path class="fil2" d="M6988.35 1858.39l-346.05 -208.27 177.95 -3.06 76.85 -230.55 91.25 441.84 0 0.04zm-476.17 -210.88l569.45 342.71 -169.78 -822.21 -138.41 415.21 -357.87 6.14 96.65 58.16 -0.03 0z"/>
  <polygon class="fil2" points="6240.19,2145.7 6510.4,1962.51 6474.13,1909.02 6203.93,2092.22 "/>
  <polygon class="fil2" points="6709.2,2031.67 6310.78,2191.94 6334.86,2252.05 6733.29,2091.74 "/>
  <polygon class="fil2" points="6900.4,2129.62 6380.6,2315.1 6402.4,2376.19 6922.2,2190.71 "/>
  <polygon class="fil2" points="7041.39,2281.25 6551.33,2475.89 6575.18,2535.99 7065.19,2341.36 "/>
  <path class="fil2" d="M7320.25 2759.17l-116.26 -130.56 163.94 -345.29 -457.54 393.15 139.81 92.39 -251.82 494.44 543.45 -479.88 -21.58 -24.25 -0.01 0.01zm-178.96 -103.46l108.95 122.33 -239.7 211.67 123.73 -242.91 -116.64 -77.07 160.75 -138.13 -51.33 108.12 14.27 16.02 -0.03 -0.03z"/>
  <path class="fil2" d="M7445.95 1950.88c0.51,1.69 179.66,579.64 51.64,875.44 -64.81,149.7 -129.45,265.2 -231.31,365.11 -102.27,100.33 -243.39,186.37 -461.29,277.23l-14.27 5.95 -4.35 14.84c-0.51,1.75 -177.38,609.33 -289.28,783.95l53.36 36.64c0.44,-0.61 156.66,-216.15 425.63,-202.07l17.22 0.92 10.39 -13.95c2.09,-2.8 728.42,-972.73 775.65,-1527.08 2.61,-19.54 31.75,-287.85 -277.84,-647.51l-100.33 -116.54 44.81 147.12 -0.03 -0.06zm110.99 901.04c94.04,-217.29 36.83,-566.43 -8.99,-766.21 197.12,283.63 167.17,473.31 167.08,473.94l-0.25 2.03c-41.95,499.11 -666.1,1362.96 -752.95,1481.06 -140.35,-2.83 -252.41,49.3 -331.17,104.57 92.96,-222.89 191.87,-551.71 213.48,-624.74 217.87,-92.08 361.4,-180.81 467.55,-284.93 108.88,-106.82 177.25,-228.54 245.26,-385.68l-0.01 -0.03z"/>
  <path class="fil3" d="M8636.13 4105.6c60.99,-86.86 183.61,-296.94 242.03,-647.47 38.26,-229.66 67.26,-373.28 115.21,-450.9 42.27,-68.42 104.79,-83.15 213.39,-63.02 113.05,20.94 200.26,64.68 258.36,120.59 59.28,57.05 87.75,126.94 81.52,197.46 -0.29,3.21 -0.76,6.77 -1.43,10.65l0 0.13c-14.97,85.91 -109.78,305.85 -269.26,499.84 -156.68,190.6 -375.45,354.12 -639.81,332.7l0 0.03zm178.15 -658.12c-76.28,457.7 -261.82,660.85 -262.33,661.46l-39.25 43.54 57.87 10.07c19.04,3.31 37.67,5.76 55.78,7.34 292.21,25.77 530.48,-150.3 699.56,-355.97 167.02,-203.15 267,-437.33 283.18,-529.91 1.05,-5.95 1.81,-11.38 2.22,-16.24 7.98,-90.2 -27.43,-178.59 -101.29,-249.69 -66.74,-64.23 -165.3,-114.2 -291.57,-137.58 -138.7,-25.68 -220.48,-3.75 -280.06,92.67 -53.9,87.24 -84.51,236.75 -124.08,474.22l-0.03 0.08z"/>
  <path class="fil3" d="M9181.14 4810.88c60.99,-86.86 183.61,-296.94 242.03,-647.47 38.26,-229.66 67.26,-373.28 115.21,-450.9 42.27,-68.42 104.79,-83.15 213.39,-63.02 113.05,20.94 200.26,64.68 258.36,120.59 59.28,57.05 87.75,126.94 81.52,197.46 -0.29,3.21 -0.76,6.77 -1.43,10.65l0 0.13c-14.97,85.91 -109.78,305.85 -269.26,499.84 -156.68,190.6 -375.45,354.12 -639.81,332.7l0 0.03zm178.14 -658.12c-76.28,457.7 -261.82,660.85 -262.33,661.46l-39.25 43.54 57.87 10.07c19.04,3.31 37.67,5.76 55.78,7.34 292.21,25.77 530.48,-150.3 699.56,-355.97 167.02,-203.15 267,-437.33 283.18,-529.91 1.05,-5.95 1.81,-11.38 2.22,-16.24 7.98,-90.2 -27.43,-178.59 -101.29,-249.69 -66.74,-64.23 -165.3,-114.2 -291.57,-137.58 -138.7,-25.68 -220.48,-3.75 -280.06,92.67 -53.9,87.24 -84.51,236.75 -124.08,474.22l-0.03 0.08z"/>
  <path class="fil3" d="M9684.93 5548.2c60.99,-86.86 183.61,-296.94 242.03,-647.47 38.26,-229.66 67.26,-373.28 115.21,-450.9 42.27,-68.42 104.79,-83.15 213.39,-63.02 113.05,20.94 200.26,64.68 258.36,120.59 59.28,57.05 87.75,126.94 81.52,197.46 -0.29,3.21 -0.76,6.77 -1.43,10.65l0 0.13c-14.97,85.91 -109.78,305.85 -269.26,499.84 -156.68,190.6 -375.45,354.12 -639.81,332.7l0 0.03zm178.14 -658.12c-76.28,457.7 -261.82,660.85 -262.33,661.46l-39.25 43.54 57.87 10.07c19.04,3.31 37.67,5.76 55.78,7.34 292.21,25.77 530.48,-150.3 699.56,-355.97 167.02,-203.15 267,-437.33 283.18,-529.91 1.05,-5.95 1.81,-11.38 2.22,-16.24 7.98,-90.2 -27.43,-178.59 -101.29,-249.69 -66.74,-64.23 -165.3,-114.2 -291.57,-137.58 -138.7,-25.68 -220.48,-3.75 -280.06,92.67 -53.9,87.24 -84.51,236.78 -124.08,474.22l-0.03 0.08z"/>
  <path class="fil3" d="M10095.43 6151.31c70.08,-79.58 214.95,-275.01 311.37,-617.15 63.15,-224.07 107.68,-363.65 163.81,-435.54 49.49,-63.34 113.24,-71.13 219.04,-39.25 110.16,33.22 192.06,86.17 243.61,147.98 52.66,63.19 73.36,135.81 59.43,205.22 -0.8,3.91 -1.62,7.41 -2.51,10.49 -24.25,83.72 -142.54,291.98 -322.37,467.45 -176.65,172.36 -411.96,310.99 -672.35,260.81l-0.03 0zm248.99 -634.66c-125.86,446.61 -332.61,628.34 -333.2,628.85l-43.22 38.96 55.91 16.18c19.16,5.56 37.41,10.04 54.7,13.51 287.7,57.59 543.8,-91.38 734.3,-277.27 188.25,-183.7 313.25,-405.67 339.37,-495.83 1.88,-6.45 3.25,-11.79 4.03,-15.83 17.77,-88.77 -7.75,-180.49 -73.38,-259.22 -59.41,-71.25 -151.92,-131.74 -274.79,-168.77 -135.01,-40.69 -218.69,-27.81 -288.49,61.56 -63.19,80.85 -109.93,226.13 -175.21,457.86l-0.02 0z"/>
  <path class="fil3" d="M8284.24 5449.01c-0.42,-0.67 -146.68,-235.09 -138.73,-697.37 4.13,-239.99 1.14,-392.16 -36.13,-487.64 -41.16,-105.48 -117.82,-142.54 -259.25,-144.04 -128.82,-1.37 -235.06,28.57 -312.55,78.53 -85.91,55.42 -137.01,135.26 -145.56,225.31 -0.38,4.01 -0.63,8.59 -0.73,13.61 -1.94,91.66 53.9,342.17 182.75,574.88 130.3,235.29 335.43,454.81 632.09,483.06 16.18,1.52 32.8,2.51 49.83,2.86l59.02 1.24 -30.73 -50.4 -0.01 -0.03zm-203.38 -698.39c-6.07,353.58 76.5,582.38 120.9,679.19 -264.91,-29.97 -451.12,-232.2 -571.16,-448.96 -123.03,-222.19 -176.42,-457.25 -174.64,-542.18 0.06,-3.06 0.23,-6.01 0.51,-8.78 6.65,-69.86 47.38,-132.56 116.14,-176.9 67.54,-43.58 161.62,-69.6 277.08,-68.4 110.92,1.18 170,27.69 199.4,102.95 33.31,85.3 35.79,231.25 31.81,463.04l-0.03 0.03z"/>
  <path class="fil3" d="M8403.75 3434.45c1.05,-2.22 358.25,-779.05 1025.33,-805.71l0.76 0c0.95,-0.06 338.29,-29.56 373.25,660.72l2.32 45.83 42.3 -17.45c1.05,-0.44 372.37,-155.77 540.15,41.38 173.4,203.76 75.36,801.24 75.11,802.95l-10.3 63.66 57.21 -29.94c0.86,-0.44 296.56,-156.59 380.62,-45.77 90.77,119.66 -73.55,675.03 -74.02,676.62l-17.03 57.75 57.59 -17.67c1.12,-0.35 386.53,-121.79 448.7,222.06 30.41,168.32 -18.28,322.82 -115.72,453.94 -55.49,74.69 -126.75,141.88 -208.27,199.91 -37.28,50.25 -79.87,101.87 -127.03,151.7 155.48,-78.7 292.43,-185.49 387.3,-313.09 107.65,-144.86 161.3,-316.23 127.39,-503.91 -59.09,-326.95 -352.18,-308.7 -476.01,-285.59 39.6,-147.88 139.11,-561.47 48.6,-680.78 -88.32,-116.42 -304.67,-42.43 -406.85,1.62 20.09,-162.06 58.89,-610.89 -98.08,-795.33 -160.47,-188.57 -461.73,-111.46 -572.05,-74.65 -51.33,-711.73 -438.09,-678.71 -439.2,-678.62 -654.46,26.73 -1022.86,725.5 -1074.31,829.87l-449.72 137.27 5.95 28.76c89.59,435.13 -499.91,552.28 -501.56,552.63l-28.51 5.95 2.89 28.92c145.5,1450.8 1006.39,1421.72 1155.58,1405.64 187.33,303.65 630.27,263.47 1086.93,222 95.41,-8.68 191.49,-17.39 287.57,-23.04 131.93,-7.75 246.57,0.23 344.33,16.59 8.52,-19.52 17.01,-39.79 25.36,-60.95 -105.67,-19.04 -230.08,-28.73 -373.51,-20.28 -94.27,5.53 -192.25,14.43 -289.6,23.3 -444.76,40.39 -875.95,79.58 -1035.85,-208.2l-11.1 -19.93 -22.41 3.72c-2.7,0.44 -938.69,170.19 -1099.86,-1317.03 122.33,-31.28 590.99,-178.97 528.16,-593.19l421.44 -128.63 6.14 -13.03 0.03 -0.01z"/>
  <path class="fil3" d="M9404.09 3910.32c-19.61,-32.33 -45.64,-64.26 -80.06,-94.11 -14.21,17.22 -28.92,34.23 -44.08,50.92 56.86,49.74 86.76,105.42 101.74,156.4 7.5,-41 14.88,-78.7 22.44,-113.21l-0.03 0.01z"/>
  <path class="fil3" d="M8383.49 3728.53l-82.57 1082.06 0 1.9c-0.03,1.52 -14.84,530.74 410.78,490.69 197.31,-18.56 345.7,-66.23 445.4,-109.71 -83.17,81.59 -220.25,186.91 -427.89,267.16l-51.36 19.84 42.36 35.18c0.48,0.42 167.68,142.92 462.47,80.12 237.54,-50.63 223.62,160.41 223.59,161.01l-6.23 104.28 64.14 -82.48c0.16,-0.23 61.27,-78.47 259.69,-341.53 116.39,-154.3 220.38,-387.9 205.57,-639.02 -5.28,-89.08 -25.43,-180.27 -65.15,-270.75 -15.32,18.37 -31.21,36.49 -47.64,54.22 28.83,73.86 43.89,147.88 48.15,220.35 13.8,233.5 -83.62,451.69 -192.64,596.18 -104.21,138.13 -170.93,225.75 -210.52,277.52 -20.94,-81.74 -87.05,-186.91 -292.4,-143.15 -173.88,37.06 -295.42,-3.4 -358.22,-35.41 369.37,-160.5 506.77,-396.58 507.19,-397.31l86.36 -145.09 -133.9 103.01c-0.54,0.42 -185.04,145.43 -564.78,181.19 -340.36,32.04 -340.74,-391.94 -340.33,-423.38l83.17 -1089.53 174.33 -7.15c44.81,-1.71 86.99,-2.07 126.81,-1.27 6.58,-20.6 12.96,-42.02 19.16,-64.33 -46.34,-1.33 -95.73,-1.08 -148.39,0.95l-203.31 8.36 0.38 10.04 -29.75 -2.22 -4.45 58.32 -0.04 -0.07z"/>
  <polygon class="fil4" points="5689.74,2642.94 4709.29,2821.59 5019.45,3628.76 5138.55,2801.72 5297.9,3071.62 5385.34,2906.29 5665.59,2906.29 5713.93,2906.29 5994.19,2906.29 6081.63,3071.62 6240.98,2801.72 6360.07,3628.76 6670.2,2821.59 "/>
  <polygon class="fil4" points="6988.35,1858.39 6642.3,1650.16 6820.25,1647.1 6897.09,1416.58 "/>
  <polygon class="fil4" points="4391.18,1858.39 4737.22,1650.16 4559.28,1647.1 4482.43,1416.58 "/>
  <polygon class="fil4" points="7141.28,2655.71 7250.2,2778.05 7010.5,2989.72 7134.22,2746.78 7017.62,2669.7 7178.34,2531.6 7127.01,2639.7 "/>
  <path class="fil4" d="M7556.93 2851.91c94.04,-217.29 36.83,-566.43 -8.99,-766.21 197.12,283.63 167.17,473.31 167.08,473.94l-0.25 2.03c-41.95,499.11 -666.1,1362.96 -752.95,1481.06 -140.35,-2.83 -252.41,49.3 -331.17,104.57 92.96,-222.89 191.87,-551.71 213.48,-624.74 217.87,-92.08 361.4,-180.81 467.55,-284.93 108.88,-106.82 177.25,-228.54 245.26,-385.68l-0.01 -0.03z"/>
  <path class="fil4" d="M3822.59 2851.91c-94.04,-217.29 -36.83,-566.43 8.99,-766.21 -197.12,283.63 -167.17,473.31 -167.08,473.94l0.25 2.03c41.95,499.11 666.1,1362.96 752.95,1481.06 140.35,-2.83 252.41,49.3 331.17,104.57 -92.96,-222.89 -191.87,-551.71 -213.48,-624.74 -217.87,-92.08 -361.4,-180.81 -467.55,-284.93 -108.88,-106.82 -177.25,-228.54 -245.26,-385.68l0.01 -0.03z"/>
  <path class="fil1" d="M8636.13 4105.6c60.99,-86.86 183.61,-296.94 242.03,-647.47 38.26,-229.66 67.26,-373.28 115.21,-450.9 42.27,-68.42 104.79,-83.15 213.39,-63.02 113.05,20.94 200.26,64.68 258.36,120.59 59.28,57.05 87.75,126.94 81.52,197.46 -0.29,3.21 -0.76,6.77 -1.43,10.65l0 0.13c-14.97,85.91 -109.78,305.85 -269.26,499.84 -156.68,190.6 -375.45,354.12 -639.81,332.7l0 0.03z"/>
  <path class="fil1" d="M9181.14 4810.88c60.99,-86.86 183.61,-296.94 242.03,-647.47 38.26,-229.66 67.26,-373.28 115.21,-450.9 42.27,-68.42 104.79,-83.15 213.39,-63.02 113.05,20.94 200.26,64.68 258.36,120.59 59.28,57.05 87.75,126.94 81.52,197.46 -0.29,3.21 -0.76,6.77 -1.43,10.65l0 0.13c-14.97,85.91 -109.78,305.85 -269.26,499.84 -156.68,190.6 -375.45,354.12 -639.81,332.7l0 0.03z"/>
  <path class="fil1" d="M9684.93 5548.2c60.99,-86.86 183.61,-296.94 242.03,-647.47 38.26,-229.66 67.26,-373.28 115.21,-450.9 42.27,-68.42 104.79,-83.15 213.39,-63.02 113.05,20.94 200.26,64.68 258.36,120.59 59.28,57.05 87.75,126.94 81.52,197.46 -0.29,3.21 -0.76,6.77 -1.43,10.65l0 0.13c-14.97,85.91 -109.78,305.85 -269.26,499.84 -156.68,190.6 -375.45,354.12 -639.81,332.7l0 0.03z"/>
  <path class="fil1" d="M10095.43 6151.31c70.08,-79.58 214.95,-275.01 311.37,-617.15 63.15,-224.07 107.68,-363.65 163.81,-435.54 49.49,-63.34 113.24,-71.13 219.04,-39.25 110.16,33.22 192.06,86.17 243.61,147.98 52.66,63.19 73.36,135.81 59.43,205.22 -0.8,3.91 -1.62,7.41 -2.51,10.49 -24.25,83.72 -142.54,291.98 -322.37,467.45 -176.65,172.36 -411.96,310.99 -672.35,260.81l-0.03 0z"/>
  <path class="fil1" d="M8080.87 4750.59c-6.07,353.58 76.5,582.38 120.9,679.19 -264.91,-29.97 -451.12,-232.2 -571.16,-448.96 -123.03,-222.19 -176.42,-457.25 -174.64,-542.18 0.06,-3.06 0.23,-6.01 0.51,-8.78 6.65,-69.86 47.38,-132.56 116.14,-176.9 67.54,-43.58 161.62,-69.6 277.08,-68.4 110.92,1.18 170,27.69 199.4,102.95 33.31,85.3 35.79,231.25 31.81,463.04l-0.03 0.03z"/>
  <path class="fil1" d="M2743.36 4105.6c-60.99,-86.86 -183.61,-296.94 -242.03,-647.47 -38.26,-229.66 -67.26,-373.28 -115.21,-450.9 -42.27,-68.42 -104.79,-83.15 -213.39,-63.02 -113.05,20.94 -200.26,64.68 -258.36,120.59 -59.28,57.05 -87.75,126.94 -81.52,197.46 0.29,3.21 0.76,6.77 1.43,10.65l0 0.13c14.97,85.91 109.78,305.85 269.26,499.84 156.68,190.6 375.45,354.12 639.81,332.7l0 0.03z"/>
  <path class="fil1" d="M2198.38 4810.88c-60.99,-86.86 -183.61,-296.94 -242.03,-647.47 -38.26,-229.66 -67.26,-373.28 -115.21,-450.9 -42.27,-68.42 -104.79,-83.15 -213.39,-63.02 -113.05,20.94 -200.26,64.68 -258.36,120.59 -59.28,57.05 -87.75,126.94 -81.52,197.46 0.29,3.21 0.76,6.77 1.43,10.65l0 0.13c14.97,85.91 109.78,305.85 269.26,499.84 156.68,190.6 375.45,354.12 639.81,332.7l0 0.03z"/>
  <path class="fil1" d="M1694.61 5548.2c-60.99,-86.86 -183.61,-296.94 -242.03,-647.47 -38.26,-229.66 -67.26,-373.28 -115.21,-450.9 -42.27,-68.42 -104.79,-83.15 -213.39,-63.02 -113.05,20.94 -200.26,64.68 -258.36,120.59 -59.28,57.05 -87.75,126.94 -81.52,197.46 0.29,3.21 0.76,6.77 1.43,10.65l0 0.13c14.97,85.91 109.78,305.85 269.26,499.84 156.68,190.6 375.45,354.12 639.81,332.7l0 0.03z"/>
  <path class="fil1" d="M1284.1 6151.31c-70.08,-79.58 -214.95,-275.01 -311.37,-617.15 -63.15,-224.07 -107.68,-363.65 -163.81,-435.54 -49.49,-63.34 -113.24,-71.13 -219.04,-39.25 -110.16,33.22 -192.06,86.17 -243.61,147.98 -52.66,63.19 -73.36,135.81 -59.43,205.22 0.8,3.91 1.62,7.41 2.51,10.49 24.25,83.72 142.54,291.98 322.37,467.45 176.65,172.36 411.96,310.99 672.35,260.81l0.03 0z"/>
  <path class="fil1" d="M3298.63 4750.59c6.07,353.58 -76.5,582.38 -120.9,679.19 264.91,-29.97 451.12,-232.2 571.16,-448.96 123.03,-222.19 176.42,-457.25 174.64,-542.18 -0.06,-3.06 -0.23,-6.01 -0.51,-8.78 -6.65,-69.86 -47.38,-132.56 -116.14,-176.9 -67.54,-43.58 -161.62,-69.6 -277.08,-68.4 -110.92,1.18 -170,27.69 -199.4,102.95 -33.31,85.3 -35.79,231.25 -31.81,463.04l0.03 0.03z"/>
  <polygon class="fil5 str0" points="5168.32,5108.82 5683.54,5059.2 6215.94,5122.17 6137.7,4389.41 6099.53,4408.49 6059.46,4792.05 5326.7,4782.5 5267.55,4322.62 "/>
  <polygon class="fil4" points="4238.21,2655.71 4129.29,2778.05 4368.99,2989.72 4245.27,2746.78 4361.87,2669.7 4201.15,2531.6 4252.48,2639.7 "/>
  <path class="fil2" d="M5725.38 4827.12l-71.25 0 -361.18 0 -31.78 -334.93 -62.64 595.09c156.91,-19.1 342.04,-59.47 488.49,-59.47l5.5 0c146.45,0 331.59,40.37 488.49,59.47l-62.64 -595.09 -31.78 334.93 -361.18 0 -0.03 0zm-35.63 265.71l-564.14 68.68 138.86 -1319.23 87.31 919.95 302.35 0 71.25 0 302.35 0 87.31 -919.95 138.86 1319.23 -564.14 -68.68 -0.01 0z"/>
 </g>
</svg>
