<?xml version="1.0" encoding="UTF-8"?>
<!DOCTYPE svg PUBLIC "-//W3C//DTD SVG 1.1//EN" "http://www.w3.org/Graphics/SVG/1.1/DTD/svg11.dtd">
<!-- Creator: CorelDRAW 2018 -->
<svg xmlns="http://www.w3.org/2000/svg" xml:space="preserve" width="135.792mm" height="24.8336mm" version="1.1" style="shape-rendering:geometricPrecision; text-rendering:geometricPrecision; image-rendering:optimizeQuality; fill-rule:evenodd; clip-rule:evenodd"
viewBox="0 0 12299.82 2249.39"
 xmlns:xlink="http://www.w3.org/1999/xlink">
 <defs>
  <style type="text/css">
   <![CDATA[
    .fil3 {fill:#FEFEFE}
    .fil2 {fill:#D9DADA}
    .fil0 {fill:#2B2A29}
    .fil1 {fill:#FEFEFE}
   ]]>
  </style>
     <mask id="id0">
  <linearGradient id="id1" gradientUnits="userSpaceOnUse" x1="2891.79" y1="2005.14" x2="2891.82" y2="-503.25">
   <stop offset="0" style="stop-opacity:1; stop-color:white"/>
   <stop offset="1" style="stop-opacity:0; stop-color:white"/>
  </linearGradient>
      <rect style="fill:url(#id1)" x="347.71" y="-9.06" width="784.82" height="674.77"/>
     </mask>
     <mask id="id2">
  <linearGradient id="id3" gradientUnits="userSpaceOnUse" x1="2891.79" y1="2005.14" x2="2891.82" y2="-503.25">
   <stop offset="0" style="stop-opacity:1; stop-color:white"/>
   <stop offset="1" style="stop-opacity:0; stop-color:white"/>
  </linearGradient>
      <rect style="fill:url(#id3)" x="1352.82" y="26.88" width="2206.18" height="638.83"/>
     </mask>
     <mask id="id4">
  <linearGradient id="id5" gradientUnits="userSpaceOnUse" x1="2891.79" y1="2005.14" x2="2891.82" y2="-503.25">
   <stop offset="0" style="stop-opacity:1; stop-color:white"/>
   <stop offset="1" style="stop-opacity:0; stop-color:white"/>
  </linearGradient>
      <rect style="fill:url(#id5)" x="3612.79" y="36.48" width="262.57" height="629.24"/>
     </mask>
     <mask id="id6">
  <linearGradient id="id7" gradientUnits="userSpaceOnUse" x1="2891.79" y1="2005.14" x2="2891.82" y2="-503.25">
   <stop offset="0" style="stop-opacity:1; stop-color:white"/>
   <stop offset="1" style="stop-opacity:0; stop-color:white"/>
  </linearGradient>
      <rect style="fill:url(#id7)" x="5582.76" y="41.27" width="1234.37" height="624.45"/>
     </mask>
     <mask id="id8">
  <linearGradient id="id9" gradientUnits="userSpaceOnUse" x1="2891.79" y1="2005.14" x2="2891.82" y2="-503.25">
   <stop offset="0" style="stop-opacity:1; stop-color:white"/>
   <stop offset="1" style="stop-opacity:0; stop-color:white"/>
  </linearGradient>
      <rect style="fill:url(#id9)" x="6860.14" y="36.48" width="2347.57" height="629.23"/>
     </mask>
     <mask id="id10">
  <linearGradient id="id11" gradientUnits="userSpaceOnUse" x1="2891.79" y1="2005.14" x2="2891.82" y2="-503.25">
   <stop offset="0" style="stop-opacity:1; stop-color:white"/>
   <stop offset="1" style="stop-opacity:0; stop-color:white"/>
  </linearGradient>
      <rect style="fill:url(#id11)" x="11096.95" y="36.48" width="1211.93" height="629.23"/>
     </mask>
     <mask id="id12">
  <linearGradient id="id13" gradientUnits="userSpaceOnUse" x1="2891.79" y1="2005.14" x2="2891.82" y2="-503.25">
   <stop offset="0" style="stop-opacity:1; stop-color:white"/>
   <stop offset="1" style="stop-opacity:0; stop-color:white"/>
  </linearGradient>
      <rect style="fill:url(#id13)" x="9289.05" y="2.93" width="1305.08" height="662.79"/>
     </mask>
     <mask id="id14">
  <linearGradient id="id15" gradientUnits="userSpaceOnUse" x1="2891.79" y1="2005.14" x2="2891.82" y2="-503.25">
   <stop offset="0" style="stop-opacity:1; stop-color:white"/>
   <stop offset="1" style="stop-opacity:0; stop-color:white"/>
  </linearGradient>
      <rect style="fill:url(#id15)" x="10730.55" y="7.72" width="262.57" height="658"/>
     </mask>
     <mask id="id16">
  <linearGradient id="id17" gradientUnits="userSpaceOnUse" x1="2891.79" y1="2005.14" x2="2891.82" y2="-503.25">
   <stop offset="0" style="stop-opacity:1; stop-color:white"/>
   <stop offset="1" style="stop-opacity:0; stop-color:white"/>
  </linearGradient>
      <rect style="fill:url(#id17)" x="3950.39" y="-6.83" width="1569.03" height="672.54"/>
     </mask>
     <mask id="id18">
  <linearGradient id="id19" gradientUnits="userSpaceOnUse" x1="2891.79" y1="2005.14" x2="2891.82" y2="-503.25">
   <stop offset="0" style="stop-opacity:1; stop-color:white"/>
   <stop offset="1" style="stop-opacity:0; stop-color:white"/>
  </linearGradient>
      <rect style="fill:url(#id19)" x="4234.25" y="248.09" width="1022.98" height="417.62"/>
     </mask>
    <mask id="id20">
  <linearGradient id="id21" gradientUnits="userSpaceOnUse" x1="5200.52" y1="2408.6" x2="5200.56" y2="1705.61">
   <stop offset="0" style="stop-opacity:1; stop-color:white"/>
   <stop offset="1" style="stop-opacity:0; stop-color:white"/>
  </linearGradient>
     <rect style="fill:url(#id21)" x="3427.14" y="1741.85" width="8847" height="267.35"/>
    </mask>
 </defs>
 <g id="Layer_x0020_1">
  <metadata id="CorelCorpID_0Corel-Layer"/>
  <g id="_847360688">
   <rect class="fil0" x="3436.19" y="1750.91" width="8828.88" height="498.48"/>
   <polygon class="fil0" points="-0,1267.78 246.84,1267.78 740.29,442.43 939.56,775.97 623.2,775.97 529.05,939.02 1036.18,937.68 1233.41,1267.78 1480.25,1267.78 740.12,0 "/>
   <path class="fil0" d="M1361.89 35.94l246.84 0 0 841.19c0,0 9.59,222.89 335.52,222.89 325.93,0 366.67,-239.66 366.67,-239.66l0 -824.41 690.21 0c0,0 548.81,-4.8 548.81,615.91 0,620.72 -706.99,582.37 -706.99,582.37l-244.45 0 0 -179.73 376.26 0c0,0 354.7,11.98 354.7,-428.99 0,-440.97 -455.35,-407.41 -455.35,-407.41l-347.5 0 0 654.26c0,0 23.96,395.44 -584.76,395.44 -608.72,0 -572.78,-400.23 -572.78,-400.23l-7.18 -831.61 0.01 -0.01z"/>
   <rect class="fil0" x="3621.85" y="45.54" width="244.45" height="1222.24"/>
   <path class="fil0" d="M5591.82 656.66l244.45 0 572.77 0 0 -0.01c114.49,0 207.3,-92.81 207.3,-207.3 0,-114.49 -92.81,-207.3 -207.3,-207.3l-817.23 0 0 -191.73 817.23 0c220.38,0 399.02,178.64 399.02,399.02 0,220.38 -178.64,399.02 -399.02,399.02l0 0.01 -572.77 0 0 419.4 -244.45 0 0 -419.4 0 -191.73z"/>
   <path class="fil0" d="M6869.21 45.54l244.45 0 0 584.77 587.91 0c16.91,-325.29 345.38,-584.77 748.18,-584.77 413.62,0 748.91,273.61 748.91,611.12 0,337.51 -335.3,611.12 -748.91,611.12 -336.95,0 -621.9,-181.57 -715.98,-431.37l-620.12 0 0 431.37 -244.45 0 0 -431.37 0 -206.1 0 -584.77 0.01 0zm1580.55 172.09c-297.15,0 -538.03,196.56 -538.03,439.03 0,242.47 240.88,439.03 538.03,439.03 297.14,0 538.03,-196.56 538.03,-439.03 0,-242.47 -240.88,-439.03 -538.03,-439.03z"/>
   <path class="fil0" d="M11854.92 45.54c-413.63,0 -748.92,273.61 -748.92,611.12 0,337.51 335.3,611.12 748.92,611.12 166.61,0 320.49,-44.42 444.89,-119.51l0 -244.68c-96.85,115.96 -259.97,192.1 -444.89,192.1 -297.15,0 -538.03,-196.56 -538.03,-439.03 0,-242.47 240.88,-439.03 538.03,-439.03 184.92,0 348.05,76.14 444.89,192.1l0 -244.68c-124.4,-75.09 -278.28,-119.51 -444.89,-119.51z"/>
   <path class="fil0" d="M9542.56 408.07l0 805.31 -244.45 0c0,-417.23 0,-784.15 0,-1201.4l1042.51 799.99 0 -793.54 244.45 0 0 992.91 0 202.03 0 54.39 -25.19 -19.17 -1017.31 -840.54 -0.01 0.02z"/>
   <polygon class="fil0" points="10739.6,16.78 10984.06,16.78 10984.06,1267.78 10739.6,1267.78 "/>
   <path class="fil0" d="M4715.52 2.43l-1.26 0.03c-6.43,0.14 -12.85,0.34 -19.25,0.59l-0.27 0.01c-6.3,0.26 -12.57,0.59 -18.83,0.98l-1.41 0.09c-6.08,0.39 -12.14,0.82 -18.19,1.31l-0.67 0.05 -0.54 0.05c-6.03,0.5 -12.06,1.07 -18.05,1.68l-1.89 0.2c-5.53,0.57 -11.06,1.2 -16.53,1.87l-3.14 0.39c-5.54,0.71 -11.09,1.45 -16.6,2.26l-2.57 0.38c-5.59,0.82 -11.18,1.7 -16.73,2.61l-0.93 0.14 -1.04 0.17c-5.53,0.94 -11.06,1.92 -16.55,2.95l-2.99 0.57c-5.05,0.95 -10.08,1.96 -15.08,3l-2.85 0.59c-5.3,1.11 -10.58,2.28 -15.84,3.49l-4.4 1.03c-4.4,1.04 -8.79,2.1 -13.15,3.2l-4 1.01c-4.98,1.28 -9.95,2.6 -14.89,3.95l-3.88 1.08c-4.13,1.16 -8.22,2.35 -12.32,3.55l-6.25 1.86c-4.08,1.22 -8.13,2.49 -12.17,3.78l-5.89 1.9 -10.92 3.64 -5.52 1.89c-3.81,1.32 -7.57,2.68 -11.35,4.05l-7.4 2.74 -9.89 3.76 -8.64 3.41 -6.68 2.7 -9.29 3.89 -8.19 3.51 -9.69 4.31 -6.1 2.79 -8.8 4.11 -8.37 4.06 -8.69 4.31 -6.03 3.08 -9.41 4.9 -1.08 0.57 -6.27 3.39c-3.32,1.81 -6.62,3.65 -9.91,5.5l-3.75 2.12 -9.96 5.77 -1.07 0.62 -6.06 3.63c-190.96,115.25 -314.81,300.33 -314.81,509.03 0,208.71 123.82,393.79 314.81,509.03l6.06 3.63 1.07 0.62c3.31,1.95 6.62,3.88 9.96,5.77l3.75 2.12c3.29,1.85 6.59,3.69 9.91,5.5l6.27 3.39 1.08 0.57 9.41 4.9 6.03 3.08c2.88,1.47 5.78,2.9 8.69,4.31l8.37 4.06 8.8 4.11 6.1 2.79 9.69 4.31 8.19 3.51 9.29 3.89 6.68 2.7 8.64 3.41 9.89 3.76 7.4 2.74c3.78,1.37 7.55,2.73 11.35,4.05l5.52 1.89c3.63,1.23 7.27,2.45 10.92,3.65l5.89 1.89c4.03,1.29 8.1,2.55 12.17,3.78l6.25 1.86c4.09,1.21 8.2,2.39 12.32,3.55l3.88 1.08c4.95,1.35 9.91,2.67 14.89,3.95l4 1.01c4.37,1.1 8.77,2.16 13.15,3.2l4.4 1.03c5.25,1.21 10.54,2.36 15.84,3.49l2.85 0.59c5.01,1.03 10.04,2.04 15.08,3l2.99 0.57c5.49,1.03 11.01,2.02 16.55,2.95l1.04 0.17 0.93 0.14c5.54,0.91 11.13,1.8 16.73,2.61l2.57 0.38c5.51,0.8 11.06,1.55 16.6,2.26l3.14 0.39c5.49,0.68 11,1.3 16.53,1.87l1.89 0.2c6.01,0.62 12.02,1.19 18.05,1.68l0.54 0.05 0.67 0.05c6.04,0.49 12.1,0.92 18.19,1.31l1.41 0.09c6.27,0.38 12.54,0.72 18.83,0.98l0.27 0.01c6.39,0.26 12.82,0.45 19.25,0.59l1.26 0.03c6.44,0.14 12.91,0.2 19.39,0.2 6.49,0 12.96,-0.07 19.39,-0.2l1.26 -0.03c6.43,-0.14 12.85,-0.33 19.25,-0.59l0.27 -0.01c6.3,-0.26 12.57,-0.59 18.83,-0.98l1.41 -0.09c6.09,-0.39 12.15,-0.82 18.19,-1.31l0.67 -0.05 0.54 -0.05c6.03,-0.5 12.05,-1.07 18.05,-1.68l1.89 -0.2c5.53,-0.57 11.06,-1.2 16.53,-1.87l3.14 -0.39c5.54,-0.71 11.1,-1.45 16.6,-2.26l2.57 -0.38c5.6,-0.82 11.18,-1.7 16.73,-2.61l0.93 -0.14 1.04 -0.17c5.53,-0.93 11.06,-1.92 16.55,-2.95l2.99 -0.57c5.05,-0.97 10.07,-1.97 15.08,-3l2.85 -0.59c5.31,-1.13 10.59,-2.28 15.84,-3.49l4.4 -1.03c4.4,-1.03 8.79,-2.11 13.15,-3.2l4 -1.01c4.98,-1.27 9.95,-2.6 14.89,-3.95l3.88 -1.08c4.12,-1.14 8.22,-2.35 12.32,-3.55l6.25 -1.86c4.08,-1.22 8.13,-2.49 12.17,-3.78l5.89 -1.89c3.65,-1.2 7.3,-2.41 10.92,-3.65l5.52 -1.89c3.81,-1.32 7.58,-2.68 11.35,-4.05l7.4 -2.74 9.89 -3.76 8.64 -3.41 6.68 -2.7 9.29 -3.89 8.19 -3.51 9.69 -4.31 6.1 -2.79 8.8 -4.11 8.37 -4.06 8.69 -4.31 6.03 -3.08c3.15,-1.62 6.3,-3.25 9.41,-4.9l1.08 -0.57 6.27 -3.39c3.33,-1.81 6.62,-3.65 9.91,-5.5l3.75 -2.12c3.34,-1.89 6.67,-3.82 9.96,-5.77l1.07 -0.62 6.06 -3.63c190.97,-115.25 314.81,-300.32 314.81,-509.03 0,-208.7 -123.82,-393.78 -314.81,-509.03l-6.06 -3.63 -1.07 -0.62c-3.32,-1.96 -6.62,-3.88 -9.96,-5.77l-3.75 -2.12c-3.29,-1.85 -6.59,-3.69 -9.91,-5.5l-6.27 -3.39 -1.08 -0.57 -9.41 -4.9 -6.03 -3.08 -8.69 -4.31 -8.37 -4.06 -8.8 -4.11 -6.1 -2.79 -9.69 -4.31 -8.19 -3.51 -9.29 -3.89 -6.68 -2.7 -8.64 -3.41 -9.89 -3.76 -7.4 -2.74 -11.35 -4.05 -5.52 -1.89 -10.92 -3.64 -5.89 -1.9c-4.04,-1.29 -8.09,-2.55 -12.17,-3.78l-6.25 -1.86c-4.09,-1.21 -8.2,-2.39 -12.32,-3.55l-3.88 -1.08c-4.95,-1.35 -9.91,-2.67 -14.89,-3.95l-4 -1.01c-4.37,-1.1 -8.75,-2.15 -13.15,-3.2l-4.4 -1.03c-5.26,-1.2 -10.54,-2.37 -15.84,-3.49l-2.85 -0.59c-4.99,-1.04 -10.04,-2.05 -15.08,-3l-2.99 -0.57c-5.49,-1.02 -11.01,-2.01 -16.55,-2.95l-1.04 -0.17 -0.93 -0.14c-5.54,-0.91 -11.15,-1.79 -16.73,-2.61l-2.57 -0.38c-5.51,-0.8 -11.06,-1.55 -16.6,-2.26l-3.14 -0.39c-5.48,-0.68 -11,-1.3 -16.53,-1.87l-1.89 -0.2c-6.01,-0.62 -12.03,-1.19 -18.05,-1.68l-0.54 -0.05 -0.67 -0.05c-6.04,-0.5 -12.1,-0.92 -18.19,-1.31l-1.41 -0.09c-6.26,-0.37 -12.54,-0.71 -18.83,-0.98l-0.27 -0.01c-6.39,-0.26 -12.82,-0.45 -19.25,-0.59l-1.26 -0.03c-6.44,-0.14 -12.91,-0.2 -19.39,-0.2 -6.49,0 -12.96,0.06 -19.39,0.2zm-1.26 0.03c-6.43,0.14 -12.85,0.34 -19.25,0.59l19.25 -0.59zm0 1263.9c6.39,0.27 12.82,0.45 19.25,0.59l-19.25 -0.59zm481.33 -376.86l-4.76 5.6 -4.42 5.05 -1.52 1.68c-2.26,2.51 -4.53,5.01 -6.85,7.48l-2.57 2.74c-4.39,4.64 -8.89,9.18 -13.5,13.66l-3.23 3.12 -3.9 3.7 -5.52 5.08 -0.22 0.19 -4.32 3.87 -3.1 2.72c-2.47,2.16 -4.98,4.3 -7.5,6.41l-2.79 2.33 -4.76 3.9 -1.68 1.32c-3.03,2.44 -6.1,4.81 -9.19,7.19l-3.37 2.56 -3.99 2.99 -7.07 5.13 -4.3 3.03 -4.35 3.01 -6.94 4.66 -4.13 2.72 -5.06 3.25 -0.24 0.14 -6.62 4.14 -4.31 2.61 -5.53 3.28 -3.49 2.05c-2.73,1.57 -5.45,3.12 -8.22,4.66l-3.9 2.15 -6.28 3.37 -5.7 2.99 -6.04 3.08 -4.19 2.08 -8.51 4.11 -3.85 1.79 -6.5 2.99 -3.67 1.64c-3.09,1.36 -6.19,2.69 -9.3,4l-3.29 1.37c-3.27,1.36 -6.57,2.7 -9.88,4.01l-0.58 0.24 -1.52 0.58 -9.12 3.48 -2.68 0.99 -10.18 3.64 -3.22 1.11 -8.29 2.77 -3.03 0.99 -9.95 3.09 -3.87 1.14c-3.6,1.06 -7.19,2.1 -10.81,3.11l-0.68 0.19 -10.47 2.77 -3.4 0.88 -10.49 2.54 -3.12 0.72c-3.68,0.84 -7.35,1.67 -11.06,2.45l-0.41 0.09 -0.57 0.12c-3.58,0.75 -7.17,1.45 -10.77,2.14l-3.86 0.73c-3.76,0.68 -7.52,1.37 -11.3,2l-1.54 0.24c-3.56,0.59 -7.16,1.16 -10.75,1.7l-2.94 0.43 -11.36 1.54 -3.51 0.43c-3.51,0.41 -7.03,0.83 -10.57,1.2l-1.11 0.13 -0.29 0.03c-4.08,0.43 -8.2,0.79 -12.33,1.14l-2.55 0.22c-4.02,0.33 -8.06,0.62 -12.12,0.88l-2.86 0.16 -10.26 0.53 -2.64 0.12c-4.05,0.16 -8.12,0.29 -12.2,0.38l-2.83 0.05c-4.28,0.08 -8.57,0.14 -12.87,0.14 -4.3,0 -8.59,-0.05 -12.87,-0.14l-2.83 -0.05c-4.08,-0.09 -8.15,-0.21 -12.2,-0.38l-2.64 -0.12 -10.26 -0.53 -2.86 -0.16c-4.05,-0.25 -8.09,-0.55 -12.12,-0.88l-2.55 -0.22c-4.12,-0.34 -8.24,-0.71 -12.33,-1.14l-0.29 -0.03 -1.11 -0.13c-3.54,-0.37 -7.06,-0.79 -10.57,-1.2l-3.51 -0.43c-3.8,-0.48 -7.59,-1 -11.36,-1.54l-2.94 -0.43c-3.6,-0.53 -7.18,-1.1 -10.75,-1.7l-1.54 -0.24c-3.78,-0.63 -7.54,-1.31 -11.3,-2l-3.86 -0.73c-3.61,-0.68 -7.19,-1.39 -10.77,-2.14l-0.57 -0.12 -0.41 -0.09c-3.7,-0.79 -7.37,-1.61 -11.06,-2.45l-3.12 -0.72 -10.49 -2.54 -3.4 -0.88c-3.51,-0.9 -6.99,-1.82 -10.47,-2.77l-0.68 -0.19c-3.61,-1.01 -7.22,-2.05 -10.81,-3.11l-3.87 -1.14 -9.95 -3.09 -3.03 -0.99 -8.29 -2.77 -3.22 -1.11c-3.42,-1.19 -6.8,-2.4 -10.18,-3.64l-2.68 -0.99 -9.12 -3.48 -1.52 -0.58 -0.58 -0.24c-3.32,-1.3 -6.6,-2.65 -9.88,-4.01l-3.29 -1.37c-3.12,-1.31 -6.22,-2.64 -9.3,-4l-3.67 -1.64 -6.5 -2.99 -3.85 -1.79 -8.51 -4.11 -4.19 -2.08 -6.04 -3.08 -5.7 -2.99 -6.28 -3.37 -3.9 -2.15c-2.75,-1.53 -5.49,-3.09 -8.22,-4.66l-3.49 -2.05 -5.53 -3.28 -4.31 -2.61 -6.62 -4.14 -0.24 -0.14 -5.06 -3.25 -4.13 -2.72 -6.94 -4.66 -4.35 -3.01 -4.3 -3.03c-2.38,-1.7 -4.74,-3.4 -7.07,-5.13l-3.99 -2.99 -3.37 -2.56c-3.11,-2.37 -6.16,-4.76 -9.19,-7.19l-1.68 -1.32 -4.76 -3.9 -2.79 -2.33c-2.53,-2.11 -5.03,-4.25 -7.5,-6.41l-3.1 -2.72 -4.32 -3.87 -0.22 -0.19 -5.52 -5.08 -3.9 -3.7 -3.23 -3.12c-4.59,-4.47 -9.1,-9.03 -13.5,-13.66l-2.57 -2.74c-2.32,-2.46 -4.6,-4.97 -6.85,-7.48l-1.52 -1.68 -4.42 -5.05 -4.76 -5.6c-60.84,-72.85 -96.44,-160.88 -96.44,-255.68 0,-94.83 35.62,-182.85 96.44,-255.68l4.76 -5.6 4.42 -5.05 1.52 -1.68c2.26,-2.51 4.55,-5.01 6.85,-7.48l2.57 -2.74c4.4,-4.64 8.89,-9.18 13.5,-13.66l3.23 -3.12 3.9 -3.7 5.52 -5.08 0.22 -0.19 4.32 -3.87 3.1 -2.72c2.47,-2.16 4.98,-4.29 7.5,-6.41l2.79 -2.33 4.76 -3.9 1.68 -1.32c3.04,-2.44 6.1,-4.81 9.19,-7.19l3.37 -2.56 3.99 -2.99 7.07 -5.13 4.3 -3.03 4.35 -3.01 6.94 -4.66 4.13 -2.72 5.06 -3.25 0.24 -0.14 6.62 -4.14 4.31 -2.61 5.53 -3.28 3.49 -2.05c2.72,-1.58 5.45,-3.12 8.22,-4.66l3.9 -2.15 6.28 -3.37 5.7 -2.99 6.04 -3.08 4.19 -2.08 8.51 -4.11 3.85 -1.79 6.5 -2.99 3.67 -1.64c3.09,-1.36 6.19,-2.69 9.3,-4l3.29 -1.37c3.27,-1.36 6.57,-2.7 9.88,-4.01l0.58 -0.24 1.52 -0.58 9.12 -3.48 2.68 -0.99c3.38,-1.23 6.77,-2.46 10.18,-3.64l3.22 -1.11 8.29 -2.77 3.03 -0.99c3.31,-1.06 6.62,-2.08 9.95,-3.09l3.87 -1.14c3.59,-1.06 7.19,-2.1 10.81,-3.11l0.68 -0.19c3.48,-0.95 6.97,-1.87 10.47,-2.77l3.4 -0.88c3.48,-0.88 6.98,-1.71 10.49,-2.54l3.12 -0.72c3.68,-0.83 7.35,-1.67 11.06,-2.45l0.41 -0.09 0.57 -0.12c3.58,-0.75 7.17,-1.45 10.77,-2.14l3.86 -0.73c3.75,-0.7 7.52,-1.37 11.3,-2l1.54 -0.24c3.57,-0.59 7.16,-1.16 10.75,-1.7l2.94 -0.43c3.77,-0.54 7.55,-1.06 11.36,-1.54l3.51 -0.43c3.51,-0.43 7.03,-0.83 10.57,-1.2l1.11 -0.13 0.29 -0.03c4.08,-0.43 8.22,-0.79 12.33,-1.14l2.55 -0.22c4.03,-0.33 8.07,-0.62 12.12,-0.88l2.86 -0.16c3.41,-0.2 6.84,-0.38 10.26,-0.53l2.64 -0.12c4.06,-0.16 8.12,-0.29 12.2,-0.38l2.83 -0.05c4.28,-0.08 8.57,-0.14 12.87,-0.14 4.3,0 8.59,0.05 12.87,0.14l2.83 0.05c4.08,0.1 8.14,0.22 12.2,0.38l2.64 0.12c3.42,0.15 6.85,0.34 10.26,0.53l2.86 0.16c4.05,0.25 8.1,0.55 12.12,0.88l2.55 0.22c4.13,0.35 8.24,0.72 12.33,1.14l0.29 0.03 1.11 0.13c3.54,0.37 7.06,0.79 10.57,1.2l3.51 0.43c3.81,0.49 7.59,1 11.36,1.54l2.94 0.43c3.61,0.53 7.18,1.1 10.75,1.7l1.54 0.24c3.78,0.62 7.55,1.3 11.3,2l3.86 0.73c3.61,0.7 7.19,1.39 10.77,2.14l0.57 0.12 0.41 0.09c3.7,0.79 7.37,1.61 11.06,2.45l3.12 0.72c3.51,0.82 7.01,1.66 10.49,2.54l3.4 0.88c3.51,0.9 6.99,1.82 10.47,2.77l0.68 0.19c3.63,1.01 7.22,2.05 10.81,3.11l3.87 1.14 9.95 3.09 3.03 0.99 8.29 2.77 3.22 1.11c3.41,1.18 6.8,2.4 10.18,3.64l2.68 0.99c3.06,1.14 6.1,2.29 9.12,3.48l1.52 0.58 0.58 0.24c3.32,1.3 6.61,2.65 9.88,4.01l3.29 1.37c3.12,1.31 6.22,2.64 9.3,4l3.67 1.64 6.5 2.99 3.85 1.79 8.51 4.11 4.19 2.08 6.04 3.08 5.7 2.99 6.28 3.37 3.9 2.15c2.75,1.53 5.49,3.09 8.22,4.66l3.49 2.05 5.53 3.28 4.31 2.61 6.62 4.14 0.24 0.14 5.06 3.25 4.13 2.72 6.94 4.66 4.35 3.01 4.3 3.03 7.07 5.13 3.99 2.99 3.37 2.56c3.1,2.36 6.16,4.76 9.19,7.19l1.68 1.32 4.76 3.9 2.79 2.33c2.53,2.12 5.03,4.25 7.5,6.41l3.1 2.72 4.32 3.87 0.22 0.19 5.52 5.08 3.9 3.7 3.23 3.12c4.6,4.47 9.1,9.03 13.5,13.66l2.57 2.74c2.32,2.47 4.6,4.97 6.85,7.48l1.52 1.68 4.42 5.05 4.76 5.6c60.83,72.84 96.44,160.87 96.44,255.68 0,94.81 -35.6,182.83 -96.44,255.68zm-208.67 149.83c-3.28,1.36 -6.57,2.7 -9.88,4.01l9.88 -4.01zm-445.58 -832.83c3.31,-1.06 6.62,-2.08 9.95,-3.09l-9.95 3.09zm251.85 -25.72c4.12,0.34 8.24,0.72 12.33,1.14l-12.33 -1.14zm57.21 8.43c3.61,0.7 7.19,1.39 10.77,2.14l-10.77 -2.14zm54.87 13.99c3.33,1.01 6.66,2.03 9.95,3.09l-9.95 -3.09zm236.34 -97.85c-3.29,-1.85 -6.59,-3.69 -9.91,-5.5l9.91 5.5z"/>
   <path class="fil0" d="M4705.76 1012.85c0,0 -4.79,-277.98 81.48,-424.19 0,0 349.9,-55.13 369.06,4.79 19.18,59.92 -277.98,191.73 -277.98,191.73 0,0 409.79,-86.28 366.67,-222.89 -43.13,-136.6 -438.57,-23.96 -438.57,-23.96 0,0 116.96,-236.08 177.34,-273.21 60.38,-37.13 -460.15,47.93 -762.11,417 0,0 237.25,-91.08 491.3,-71.9 0,0 -50.33,201.31 -7.19,402.62zm-277.99 -417c0,0 203.7,-206.1 428.97,-249.24 0,0 -86.58,121.41 -119.83,215.69 0,0 -98.26,-31.15 -309.15,33.56l0.01 0z"/>
   <polygon class="fil1" points="4331.05,1898.31 3880.49,1898.31 3880.49,1965.41 4180.07,1965.41 4331.05,1965.41 4331.05,2034.92 4331.05,2102.01 4331.05,2171.52 4180.07,2171.52 3729.52,2171.52 3729.52,2102.01 4180.07,2102.01 4180.07,2034.92 3880.49,2034.92 3729.52,2034.92 3729.52,1965.41 3729.52,1898.31 3729.52,1828.81 3880.49,1828.81 4331.05,1828.81 "/>
   <polygon class="fil1" points="5327.07,1898.31 4876.51,1898.31 4876.51,1965.41 5327.07,1965.41 5327.07,2034.92 4876.51,2034.92 4876.51,2102.01 5327.07,2102.01 5327.07,2171.52 4876.51,2171.52 4725.53,2171.52 4725.53,2102.01 4725.53,2034.92 4725.53,1965.41 4725.53,1898.31 4725.53,1828.81 4876.51,1828.81 5327.07,1828.81 "/>
   <polygon class="fil1" points="7353.09,1898.31 6902.54,1898.31 6902.54,1965.41 7202.12,1965.41 7353.09,1965.41 7353.09,2034.92 7353.09,2102.01 7353.09,2171.52 7202.12,2171.52 6751.57,2171.52 6751.57,2102.01 7202.12,2102.01 7202.12,2034.92 6902.54,2034.92 6751.57,2034.92 6751.57,1965.41 6751.57,1898.31 6751.57,1828.81 6902.54,1828.81 7353.09,1828.81 "/>
   <polygon class="fil1" points="9400.26,1898.31 9174.98,1898.31 9174.98,2171.52 9024.01,2171.52 9024.01,1898.31 8798.73,1898.31 8798.73,1828.81 9024.01,1828.81 9174.98,1828.81 9400.26,1828.81 "/>
   <rect class="fil1" x="9794.74" y="1828.79" width="150.98" height="342.7"/>
   <path class="fil1" d="M10790.75 1898.31l-299.58 0 0 203.7 299.58 0 0 -203.7zm-450.55 0l0 -69.5 150.98 0 299.58 0 150.98 0 0 69.5 0 203.7 0 69.5 -150.98 0 -299.58 0 -150.98 0 0 -69.5 0 -203.7z"/>
   <polygon class="fil1" points="5872.52,1828.81 5721.55,1828.81 5721.55,2171.52 5872.52,2171.52 5872.52,1935.59 6206.11,2171.52 6357.09,2171.52 6357.09,1828.81 6206.11,1828.81 6206.11,2064.74 "/>
   <polygon class="fil1" points="11487.2,1828.81 11336.24,1828.81 11336.24,2171.52 11487.2,2171.52 11487.2,1935.59 11820.79,2171.52 11971.77,2171.52 11971.77,1828.81 11820.79,1828.81 11820.79,2064.74 "/>
   <path class="fil1" d="M8163.14 1828.81l-0.01 0 -174.45 0 -0.01 0 0.01 0.01 -241.1 342.69 174.45 0 49.72 -70.67 208.31 0 49.72 70.67 174.45 0 -241.1 -342.69 0.01 -0.01zm-142.5 202.53l55.26 -78.54 55.26 78.54 -110.52 0z"/>
   <g>
    <polygon class="fil2" style="mask:url(#id0)" points="1123.47,656.66 868.28,656.66 740.29,442.43 612.21,656.66 356.77,656.66 740.12,0 "/>
    <path class="fil2" style="mask:url(#id2)" d="M3549.86 656.66l-221.07 0c0.41,-10.15 0.67,-20.48 0.67,-31.15 0,-440.97 -455.35,-407.41 -455.35,-407.41l-347.5 0 0 438.56 -215.69 0 0 -620.71 690.21 0c0,0 548.81,-4.8 548.81,615.91 0,1.63 -0.08,3.19 -0.09,4.8zm-1941.12 0l-241.49 0 -5.36 -620.71 0.01 -0.01 246.84 0 0 620.72z"/>
    <polygon class="fil2" style="mask:url(#id4)" points="3866.3,656.66 3621.85,656.66 3621.85,45.53 3866.3,45.53 "/>
    <path class="fil2" style="mask:url(#id6)" d="M6750.06 656.66l-341.02 0 0 -0.01c114.49,0 207.3,-92.81 207.3,-207.3 0,-114.49 -92.81,-207.3 -207.3,-207.3l-817.23 0 0 -191.73 817.23 0c220.38,0 399.02,178.64 399.02,399.02 0,75.92 -21.2,146.88 -58.01,207.31z"/>
    <path class="fil2" style="mask:url(#id8)" d="M9198.66 656.66l-210.88 0c-0.01,-242.47 -240.88,-439.02 -538.03,-439.02 -297.15,0 -538.02,196.56 -538.03,439.02l-1042.53 0 0 -26.34 0 -584.77 0.01 0 244.45 0 0 584.77 587.91 0c16.91,-325.29 345.38,-584.77 748.18,-584.77 413.62,0 748.9,273.6 748.91,611.11z"/>
    <path class="fil2" style="mask:url(#id10)" d="M11316.9 656.66l-210.89 0c0.01,-337.51 335.29,-611.11 748.92,-611.11 166.61,0 320.49,44.42 444.89,119.51l0 244.68c-96.85,-115.96 -259.97,-192.1 -444.89,-192.1 -297.14,0 -538.02,196.56 -538.03,439.02z"/>
    <path class="fil2" style="mask:url(#id12)" d="M10585.07 656.66l-244.45 0 0 -638.22 244.45 0 0 638.22zm-446.85 0l-294.77 0 -300.88 -248.6 -0.01 0.02 0 248.58 -244.45 0 0 -644.67 840.11 644.67z"/>
    <polygon class="fil2" style="mask:url(#id14)" points="10984.06,656.66 10739.6,656.66 10739.6,16.78 10984.06,16.78 "/>
    <path class="fil2" style="mask:url(#id16)" d="M5509.91 656.66l-218.57 0c0.45,-7.56 0.69,-15.18 0.69,-22.84 0,-94.82 -35.61,-182.84 -96.44,-255.68l-4.76 -5.6 -4.42 -5.05 -1.52 -1.68c-2.25,-2.51 -4.53,-5.01 -6.85,-7.48l-2.57 -2.74c-4.39,-4.63 -8.89,-9.18 -13.5,-13.66l-3.23 -3.12 -3.9 -3.7 -5.52 -5.08 -0.22 -0.19 -4.32 -3.87 -3.1 -2.72c-2.47,-2.16 -4.97,-4.29 -7.5,-6.41l-2.79 -2.33 -4.76 -3.9 -1.68 -1.32c-3.03,-2.43 -6.1,-4.83 -9.19,-7.19l-3.37 -2.56 -3.99 -2.99 -7.07 -5.13 -4.3 -3.03 -4.35 -3.01 -6.94 -4.66 -4.13 -2.72 -5.06 -3.25 -0.24 -0.14 -6.62 -4.14 -4.31 -2.61 -5.53 -3.28 -3.49 -2.05c-2.73,-1.57 -5.46,-3.12 -8.22,-4.66l-3.9 -2.15 -6.28 -3.37 -5.7 -2.99 -6.04 -3.08 -4.19 -2.08 -8.51 -4.11 -3.85 -1.79 -6.5 -2.99 -3.67 -1.64c-3.08,-1.36 -6.19,-2.69 -9.3,-4l-3.29 -1.37c-3.27,-1.36 -6.57,-2.71 -9.88,-4.01l-0.58 -0.24 -1.52 -0.58c-3.02,-1.19 -6.06,-2.34 -9.12,-3.48l-2.68 -0.99c-3.38,-1.24 -6.77,-2.46 -10.18,-3.64l-3.22 -1.11 -8.29 -2.77 -3.03 -0.99 -9.95 -3.09 -3.87 -1.14c-3.59,-1.06 -7.17,-2.1 -10.81,-3.11l-0.68 -0.19c-3.48,-0.95 -6.96,-1.87 -10.47,-2.77l-3.4 -0.88c-3.48,-0.88 -6.97,-1.71 -10.49,-2.54l-3.12 -0.72c-3.69,-0.83 -7.35,-1.66 -11.06,-2.45l-0.41 -0.09 -0.57 -0.12c-3.58,-0.75 -7.16,-1.44 -10.77,-2.14l-3.86 -0.73c-3.75,-0.7 -7.52,-1.38 -11.3,-2l-1.54 -0.24c-3.57,-0.61 -7.15,-1.17 -10.75,-1.7l-2.94 -0.43c-3.77,-0.54 -7.55,-1.05 -11.36,-1.54l-3.51 -0.43c-3.51,-0.42 -7.03,-0.83 -10.57,-1.2l-1.11 -0.13 -0.29 -0.03c-4.09,-0.43 -8.2,-0.79 -12.33,-1.14l-2.55 -0.22c-4.02,-0.33 -8.07,-0.62 -12.12,-0.88l-2.86 -0.16c-3.41,-0.2 -6.84,-0.38 -10.26,-0.53l-2.64 -0.12c-4.06,-0.16 -8.12,-0.28 -12.2,-0.38l-2.83 -0.05c-4.28,-0.09 -8.57,-0.14 -12.87,-0.14 -4.3,0 -8.59,0.06 -12.87,0.14l-2.83 0.05c-4.08,0.09 -8.14,0.22 -12.2,0.38l-2.64 0.12c-3.42,0.15 -6.85,0.34 -10.26,0.53l-2.86 0.16c-4.05,0.25 -8.09,0.55 -12.12,0.88l-2.55 0.22c-4.11,0.35 -8.25,0.72 -12.33,1.14l-0.29 0.03 -1.11 0.13c-3.54,0.37 -7.06,0.78 -10.57,1.2l-3.51 0.43c-3.8,0.48 -7.59,1 -11.36,1.54l-2.94 0.43c-3.6,0.54 -7.18,1.11 -10.75,1.7l-1.54 0.24c-3.78,0.63 -7.55,1.3 -11.3,2l-3.86 0.73c-3.6,0.69 -7.19,1.39 -10.77,2.14l-0.57 0.12 -0.41 0.09c-3.71,0.78 -7.38,1.61 -11.06,2.45l-3.12 0.72c-3.51,0.82 -7.01,1.66 -10.49,2.54l-3.4 0.88c-3.51,0.9 -6.99,1.82 -10.47,2.77l-0.68 0.19c-3.61,1.01 -7.22,2.05 -10.81,3.11l-3.87 1.14c-3.32,1.01 -6.64,2.03 -9.95,3.09l-3.03 0.99 -8.29 2.77 -3.22 1.11c-3.41,1.18 -6.8,2.41 -10.18,3.64l-2.68 0.99 -9.12 3.48 -1.52 0.58 -0.58 0.24c-3.32,1.31 -6.61,2.65 -9.88,4.01l-3.29 1.37c-3.12,1.31 -6.21,2.64 -9.3,4l-3.67 1.64 -6.5 2.99 -3.85 1.79 -8.51 4.11 -4.19 2.08 -6.04 3.08 -5.7 2.99 -6.28 3.37 -3.9 2.15c-2.76,1.54 -5.5,3.08 -8.22,4.66l-3.49 2.05 -5.53 3.28 -4.31 2.61 -6.62 4.14 -0.24 0.14 -5.06 3.25 -4.13 2.72 -6.94 4.66 -4.35 3.01 -4.3 3.03 -7.07 5.13 -3.99 2.99 -3.37 2.56c-3.09,2.38 -6.15,4.76 -9.19,7.19l-1.68 1.32 -4.76 3.9 -2.79 2.33c-2.52,2.12 -5.03,4.25 -7.5,6.41l-3.1 2.72 -4.32 3.87 -0.22 0.19 -5.52 5.08 -3.9 3.7 -3.23 3.12c-4.6,4.48 -9.09,9.02 -13.5,13.66l-2.57 2.74c-2.3,2.47 -4.59,4.97 -6.85,7.48l-1.52 1.68 -4.42 5.05 -4.76 5.6c-60.82,72.83 -96.44,160.86 -96.44,255.68 0,7.66 0.24,15.28 0.69,22.84l-218.62 0c-0.29,-7.2 -0.46,-14.41 -0.46,-21.67 0,-208.7 123.85,-393.78 314.81,-509.03l6.06 -3.63 1.07 -0.62 9.96 -5.77 3.75 -2.12c3.29,-1.85 6.59,-3.69 9.91,-5.5l6.27 -3.39 1.08 -0.57 9.41 -4.9 6.03 -3.08 8.69 -4.31 8.37 -4.06 8.8 -4.11 6.1 -2.79 9.69 -4.31 8.19 -3.51 9.29 -3.89 6.68 -2.7 8.64 -3.41 9.89 -3.76 7.4 -2.74c3.78,-1.37 7.54,-2.73 11.35,-4.05l5.52 -1.89 10.92 -3.64 5.89 -1.9c4.04,-1.29 8.1,-2.55 12.17,-3.78l6.25 -1.86c4.09,-1.2 8.19,-2.39 12.32,-3.55l3.88 -1.08c4.95,-1.35 9.91,-2.67 14.89,-3.95l4 -1.01c4.37,-1.1 8.75,-2.16 13.15,-3.2l4.4 -1.03c5.26,-1.2 10.54,-2.37 15.84,-3.49l2.85 -0.59c5,-1.04 10.04,-2.05 15.08,-3l2.99 -0.57c5.49,-1.03 11.01,-2.01 16.55,-2.95l1.04 -0.17 0.93 -0.14c5.55,-0.91 11.14,-1.78 16.73,-2.61l2.57 -0.38c5.52,-0.81 11.06,-1.55 16.6,-2.26l3.14 -0.39c5.47,-0.67 11,-1.3 16.53,-1.87l1.89 -0.2c6,-0.62 12.02,-1.19 18.05,-1.68l0.54 -0.05 0.67 -0.05c6.05,-0.5 12.11,-0.92 18.19,-1.31l1.41 -0.09c6.26,-0.39 12.53,-0.72 18.83,-0.98l0.27 -0.01c6.39,-0.25 12.82,-0.44 19.25,-0.59l1.26 -0.03c6.43,-0.14 12.9,-0.2 19.39,-0.2 6.49,0 12.95,0.05 19.39,0.2l1.26 0.03c6.43,0.14 12.85,0.33 19.25,0.59l0.27 0.01c6.3,0.27 12.57,0.61 18.83,0.98l1.41 0.09c6.09,0.39 12.15,0.82 18.19,1.31l0.67 0.05 0.54 0.05c6.02,0.5 12.04,1.07 18.05,1.68l1.89 0.2c5.53,0.57 11.05,1.2 16.53,1.87l3.14 0.39c5.54,0.71 11.1,1.46 16.6,2.26l2.57 0.38c5.58,0.82 11.19,1.69 16.73,2.61l0.93 0.14 1.04 0.17c5.53,0.94 11.06,1.93 16.55,2.95l2.99 0.57c5.05,0.95 10.09,1.96 15.08,3l2.85 0.59c5.3,1.11 10.58,2.28 15.84,3.49l4.4 1.03c4.4,1.05 8.79,2.1 13.15,3.2l4 1.01c4.98,1.28 9.95,2.6 14.89,3.95l3.88 1.08c4.12,1.16 8.22,2.34 12.32,3.55l6.25 1.86c4.09,1.22 8.13,2.49 12.17,3.78l5.89 1.9 10.92 3.64 5.52 1.89 11.35 4.05 7.4 2.74 9.89 3.76 8.64 3.41 6.68 2.7 9.29 3.89 8.19 3.51 9.69 4.31 6.1 2.79 8.8 4.11 8.37 4.06 8.69 4.31 6.03 3.08 9.41 4.9 1.08 0.57 6.27 3.39c3.32,1.81 6.62,3.65 9.91,5.5l3.75 2.12c3.34,1.89 6.65,3.81 9.96,5.77l1.07 0.62 6.06 3.63c190.98,115.25 314.81,300.33 314.81,509.03 0,7.26 -0.17,14.47 -0.46,21.67zm-795.65 -654.2c-6.43,0.14 -12.85,0.34 -19.25,0.59l19.25 -0.59zm-172.92 204.04c3.31,-1.06 6.62,-2.08 9.95,-3.09l-9.95 3.09zm251.85 -25.72c4.12,0.34 8.24,0.72 12.33,1.14l-12.33 -1.14zm57.21 8.43c3.61,0.7 7.19,1.39 10.77,2.14l-10.77 -2.14zm54.87 13.99c3.33,1.01 6.66,2.03 9.95,3.09l-9.95 -3.09zm236.34 -97.85c-3.29,-1.85 -6.59,-3.69 -9.91,-5.5l9.91 5.5z"/>
    <path class="fil2" style="mask:url(#id18)" d="M5203.55 656.66l-92.63 0c31.1,-23.74 50.8,-46.32 45.4,-63.21 -19.17,-59.92 -369.06,-4.79 -369.06,-4.79 -12.07,20.46 -22.35,43.5 -31.12,68l-52.45 0c5,-29.27 9.28,-46.43 9.28,-46.43 -163.77,-12.36 -320.53,21.1 -411.29,46.43l-58.36 0c304.46,-347.47 799.43,-427.79 740.46,-391.53 -60.38,37.13 -177.34,273.21 -177.34,273.21 0,0 395.44,-112.64 438.57,23.96 11.03,34.95 -7.63,66.6 -41.45,94.36zm-775.78 -60.81c0,0 203.7,-206.1 428.97,-249.24 0,0 -86.58,121.41 -119.83,215.69 0,0 -98.26,-31.15 -309.15,33.56l0.01 0z"/>
   </g>
   <polygon class="fil3" style="mask:url(#id20)" points="3436.2,1750.91 12265.08,1750.91 12265.08,2000.14 3436.2,2000.14 "/>
  </g>
 </g>
</svg>
