<?xml version="1.0" encoding="UTF-8"?>
<!DOCTYPE svg PUBLIC "-//W3C//DTD SVG 1.1//EN" "http://www.w3.org/Graphics/SVG/1.1/DTD/svg11.dtd">
<!-- Creator: CorelDRAW 2018 -->
<svg xmlns="http://www.w3.org/2000/svg" xml:space="preserve" width="111.469mm" height="27.1417mm" version="1.1" style="shape-rendering:geometricPrecision; text-rendering:geometricPrecision; image-rendering:optimizeQuality; fill-rule:evenodd; clip-rule:evenodd"
viewBox="0 0 8897.17 2166.38"
 xmlns:xlink="http://www.w3.org/1999/xlink">
 <defs>
  <style type="text/css">
   <![CDATA[
    .fil2 {fill:#2B2A29}
    .fil0 {fill:#E74011}
    .fil1 {fill:#E74011}
    .fil3 {fill:black;fill-rule:nonzero}
   ]]>
  </style>
 </defs>
 <g id="Layer_x0020_1">
  <metadata id="CorelCorpID_0Corel-Layer"/>
  <path class="fil0" d="M6052.52 428.67c0,0 2806.64,-2.12 2844.66,808.84 0,0 -551.19,-559.64 -2844.66,-808.84z"/>
  <path class="fil1" d="M4850.87 960.88c0,0 -1279.78,-156.28 -2272.34,156.27 0,0 1592.09,-614.5 3117.08,-616.65 0,0 709.57,-54.91 1849.97,295.65 0,0 -2082.27,-367.46 -3378.94,25.34 0,0 468.82,33.79 684.23,139.38z"/>
  <path class="fil1" d="M1978.77 187.95c0,0 1647.24,380.12 2099.17,384.35 451.93,4.23 768.71,-190.07 2107.62,-232.3 1338.9,-42.23 1828.86,211.18 1892.21,202.74 63.35,-8.44 247.1,-10.55 293.55,-128.82 0,0 40.12,-40.12 -145.72,-23.23 0,0 225.96,-221.74 -1254.43,-390.69 0,0 428.7,97.15 506.84,196.4 0,0 -1497.29,-103.49 -2836.2,196.39 0,0 -413.17,173.76 -2663.03,-204.84z"/>
  <polygon class="fil2" points="1102.38,1233.29 107.71,1233.29 -0,1233.29 -0,1340.99 -0,1577.52 -0,1685.22 107.71,1685.22 1102.38,1685.22 1102.38,1577.52 107.71,1577.52 107.71,1340.99 1102.38,1340.99 "/>
  <polygon class="fil2" points="2206.73,1405.41 1319.76,1405.41 1319.76,1233.29 1212.05,1233.29 1212.05,1405.41 1212.05,1513.11 1212.05,1685.22 1319.76,1685.22 1319.76,1513.11 2206.73,1513.11 2206.73,1685.22 2314.43,1685.22 2314.43,1513.11 2314.43,1405.41 2314.43,1233.29 2206.73,1233.29 "/>
  <path class="fil2" d="M2424.1 1233.29l0 107.71 0 66.53 0 107.71 0 169.99 107.71 0 0 -169.99 886.97 0 0 169.99 107.71 0 0 -169.99 0 -107.71 0 -66.53 0 -107.71 -107.71 0 -886.97 0 -107.71 0zm107.71 174.23l0 -66.53 886.97 0 0 66.53 -886.97 0z"/>
  <polygon class="fil2" points="3636.15,1233.29 3636.15,1340.99 3636.15,1685.22 3743.86,1685.22 3743.86,1340.99 4133.48,1340.99 4133.48,1685.22 4241.19,1685.22 4241.19,1340.99 4630.83,1340.99 4630.83,1685.22 4738.53,1685.22 4738.53,1340.99 4738.53,1233.29 4630.83,1233.29 4241.19,1233.29 4133.48,1233.29 3743.86,1233.29 "/>
  <path class="fil2" d="M4848.2 1233.29l0 107.71 0 66.53 0 107.71 0 169.99 107.71 0 0 -169.99 886.97 0 107.71 0 0 -107.71 0 -66.53 0 -107.71 -107.71 0 -886.97 0 -107.71 0zm107.71 174.23l0 -66.53 886.97 0 0 66.53 -886.97 0z"/>
  <rect class="fil2" transform="matrix(2.64845E-14 -0.409961 1 1.08576E-14 6060.25 1685.22)" width="1102.38" height="107.71"/>
  <path class="fil2" d="M6277.62 1233.29l0 107.71 0 236.52 0 107.71 107.71 0 886.97 0 107.71 0 0 -107.71 0 -236.52 0 -107.71 -107.71 0 -886.97 0 -107.71 0zm107.71 344.23l0 -236.52 886.97 0 0 236.52 -886.97 0z"/>
  <polygon class="fil2" points="7489.69,1233.29 7489.69,1340.99 7489.69,1685.22 7597.4,1685.22 7597.4,1340.99 8484.37,1340.99 8484.37,1685.22 8592.07,1685.22 8592.07,1340.99 8592.07,1233.29 8484.37,1233.29 7597.4,1233.29 "/>
  <path class="fil3" d="M4026.89 2161.89l160.06 -267.68 60.7 0 169.86 267.68 -62.83 0 -48.27 -81.13 -175.69 0 -45.26 81.13 -58.57 0zm120.04 -109.92l142.19 0 -43.51 -74.21c-13.11,-22.56 -23.01,-41.19 -29.91,-55.9 -5.73,17.45 -13.4,34.58 -23.02,51.53l-45.75 78.57zm312.05 109.92l0 -267.68 55.36 0 0 236.28 205.11 0 0 31.41 -260.48 0zm389.26 0l0 -236.28 -137.53 0 0 -31.41 330.41 0 0 31.41 -137.53 0 0 236.28 -55.35 0zm222.49 -130.29c0,-44.37 18.65,-79.14 55.85,-104.24 37.2,-25.12 85.17,-37.64 144.03,-37.64 38.56,0 73.23,5.92 104.21,17.7 30.88,11.78 54.48,28.22 70.7,49.35 16.22,21.06 24.38,44.99 24.38,71.72 0,27.11 -8.55,51.41 -25.64,72.78 -17.1,21.44 -41.28,37.63 -72.55,48.61 -31.37,11.02 -65.17,16.51 -101.4,16.51 -39.33,0 -74.39,-6.11 -105.37,-18.26 -30.89,-12.14 -54.38,-28.72 -70.32,-49.77 -15.92,-21.01 -23.89,-43.25 -23.89,-66.74zm57.11 0.62c0,32.21 13.51,57.57 40.5,76.07 27,18.51 60.89,27.79 101.69,27.79 41.57,0 75.66,-9.35 102.56,-28.04 26.8,-18.69 40.21,-45.24 40.21,-79.63 0,-21.75 -5.73,-40.75 -17.19,-56.96 -11.46,-16.2 -28.26,-28.78 -50.31,-37.7 -22.14,-8.91 -46.91,-13.39 -74.4,-13.39 -39.04,0 -72.64,8.6 -100.81,25.8 -28.16,17.2 -42.25,45.86 -42.25,86.05zm386.25 49.29l0 -32.9 158.5 0 0 32.9 -158.5 0zm223.77 80.38l0 -267.68 281.45 0 0 31.41 -226.1 0 0 83.37 195.79 0 0 31.4 -195.79 0 0 121.51 -55.35 0zm275.14 0l160.05 -267.68 60.71 0 169.86 267.68 -62.84 0 -48.27 -81.13 -175.69 0 -45.26 81.13 -58.56 0zm120.04 -109.92l142.19 0 -43.51 -74.21c-13.11,-22.56 -23.02,-41.19 -29.92,-55.9 -5.72,17.45 -13.4,34.58 -23.01,51.53l-45.75 78.57zm312.05 109.92l0 -267.68 55.35 0 0 236.28 205.12 0 0 31.41 -260.48 0zm280.68 0l160.05 -267.68 60.71 0 169.86 267.68 -62.84 0 -48.27 -81.13 -175.69 0 -45.26 81.13 -58.56 0zm120.04 -109.92l142.19 0 -43.52 -74.21c-13.11,-22.56 -23.01,-41.19 -29.91,-55.9 -5.72,17.45 -13.4,34.58 -23.01,51.53l-45.75 78.57zm313.8 109.92l0 -267.68 56.72 0 218.91 210.11 0 -210.11 53.03 0 0 267.68 -56.72 0 -218.91 -210.11 0 210.11 -53.02 0zm527.46 0l0 -236.28 -137.53 0 0 -31.41 330.41 0 0 31.41 -137.53 0 0 236.28 -55.35 0zm251.05 0l0 -267.68 301.27 0 0 31.41 -245.92 0 0 82.24 230.19 0 0 31.41 -230.19 0 0 91.22 255.82 0 0 31.41 -311.18 0zm369.45 -85.99l51.86 -2.99c2.43,13.46 8.16,24.49 17.19,33.15 9.03,8.6 23.01,15.58 41.95,20.94 18.93,5.3 40.31,7.98 64.01,7.98 21.07,0 39.62,-2 55.74,-6.05 16.12,-4.05 28.07,-9.59 35.93,-16.63 7.87,-7.04 11.85,-14.71 11.85,-22.93 0,-8.35 -3.79,-15.64 -11.37,-21.93 -7.57,-6.23 -20.11,-11.46 -37.59,-15.76 -11.17,-2.74 -35.93,-7.1 -74.3,-13.02 -38.35,-5.92 -65.16,-11.46 -80.51,-16.71 -19.91,-6.73 -34.66,-15.08 -44.39,-24.98 -9.8,-9.91 -14.65,-21.06 -14.65,-33.33 0,-13.58 6.02,-26.24 17.96,-37.95 11.95,-11.78 29.33,-20.69 52.35,-26.79 22.92,-6.11 48.47,-9.16 76.53,-9.16 30.88,0 58.17,3.18 81.77,9.6 23.6,6.35 41.77,15.76 54.49,28.22 12.71,12.4 19.52,26.48 20.49,42.18l-53.02 2.62c-2.83,-16.89 -12.44,-29.66 -28.85,-38.26 -16.41,-8.67 -40.69,-12.97 -72.74,-12.97 -33.41,0 -57.79,3.93 -73.03,11.78 -15.25,7.85 -22.92,17.32 -22.92,28.41 0,9.59 5.44,17.5 16.22,23.74 10.68,6.17 38.37,12.59 83.23,19.07 44.87,6.55 75.66,12.21 92.36,17.07 24.18,7.17 42.14,16.2 53.7,27.23 11.57,10.96 17.29,23.61 17.29,37.94 0,14.27 -6.31,27.61 -19.04,40.2 -12.72,12.58 -30.88,22.36 -54.67,29.34 -23.79,6.98 -50.5,10.47 -80.32,10.47 -37.68,0 -69.24,-3.55 -94.69,-10.59 -25.55,-7.04 -45.46,-17.63 -59.93,-31.84 -14.57,-14.14 -22.14,-30.16 -22.92,-48.04z"/>
 </g>
</svg>
