<?xml version="1.0" encoding="UTF-8"?>
<!DOCTYPE svg PUBLIC "-//W3C//DTD SVG 1.1//EN" "http://www.w3.org/Graphics/SVG/1.1/DTD/svg11.dtd">
<!-- Creator: CorelDRAW 2019 (64 Bit) -->
<svg xmlns="http://www.w3.org/2000/svg" xml:space="preserve" width="37.0932mm" height="11.0299mm" version="1.1" style="shape-rendering:geometricPrecision; text-rendering:geometricPrecision; image-rendering:optimizeQuality; fill-rule:evenodd; clip-rule:evenodd"
viewBox="0 0 1392.03 413.93"
 xmlns:xlink="http://www.w3.org/1999/xlink">
 <defs>
  <style type="text/css">
   <![CDATA[
    .fil1 {fill:yellow}
    .fil2 {fill:url(#id0)}
    .fil0 {fill:url(#id1)}
    .fil3 {fill:url(#id2)}
   ]]>
  </style>
  <linearGradient id="id0" gradientUnits="userSpaceOnUse" x1="273.21" y1="239.35" x2="273.77" y2="186.03">
   <stop offset="0" style="stop-opacity:1; stop-color:#00316A"/>
   <stop offset="0.490196" style="stop-opacity:1; stop-color:#5995D8"/>
   <stop offset="1" style="stop-opacity:1; stop-color:#00316A"/>
  </linearGradient>
  <linearGradient id="id1" gradientUnits="userSpaceOnUse" xlink:href="#id0" x1="57.79" y1="238.93" x2="59.03" y2="143.36">
  </linearGradient>
  <linearGradient id="id2" gradientUnits="userSpaceOnUse" xlink:href="#id0" x1="711.04" y1="323.97" x2="711.08" y2="316.48">
  </linearGradient>
 </defs>
 <g id="Camada_x0020_1">
  <metadata id="CorelCorpID_0Corel-Layer"/>
  <g id="_2225649915984">
   <path class="fil0" d="M696.02 0c96.44,0 188.28,5.84 271.78,16.38 -86.13,-5.51 -182.99,-4.36 -284.94,4.62 -344.89,30.38 -617.21,138.82 -608.26,242.23 1.78,20.48 14.49,39.22 36.36,55.88 -70.2,-32.31 -110.97,-70.81 -110.97,-112.14 0,-114.31 311.62,-206.97 696.02,-206.97zm592.4 98.29c65.67,31.58 103.61,68.81 103.61,108.68 0,114.3 -311.62,206.96 -696.02,206.96 -83.07,0 -162.72,-4.33 -236.58,-12.27 78.63,3.57 165.24,1.78 255.87,-6.21 344.89,-30.38 617.21,-138.82 608.26,-242.23 -1.74,-20.1 -14.02,-38.51 -35.14,-54.93z"/>
   <path class="fil1" d="M1211.36 59.19c67.8,23.83 108.89,55.92 112.2,94.04 8.79,101.42 -253.01,207.67 -588.45,240.38 299.71,-51.27 530.36,-173.77 517.4,-275.91 -2.85,-22.45 -17.25,-42.06 -41.14,-58.51zm-1024.56 298.08c-67.8,-23.83 -108.89,-55.92 -112.2,-94.04 -8.79,-101.42 253.01,-207.67 588.45,-240.38 -299.71,51.27 -530.36,173.77 -517.4,275.91 2.85,22.45 17.25,42.06 41.14,58.51z"/>
   <path class="fil2" d="M233.06 294.66l53.93 -178.16 113.15 0c10.62,0 19.12,1.09 25.52,3.26 6.39,2.18 10.97,5.66 13.71,10.45 2.74,4.79 3.8,11.1 3.17,18.94 -0.63,7.84 -2.62,17.33 -6,28.48l-16.92 55.9c-3.43,11.32 -7.19,20.85 -11.28,28.6 -4.09,7.75 -8.96,14.02 -14.6,18.81 -5.64,4.79 -12.32,8.27 -20.03,10.45 -7.72,2.18 -16.88,3.26 -27.5,3.26l-113.15 0zm171.07 -115.2c1.64,-5.4 2.63,-9.97 3,-13.72 0.37,-3.74 -0.06,-6.7 -1.29,-8.88 -1.23,-2.18 -3.23,-3.75 -6.02,-4.7 -2.78,-0.96 -6.55,-1.44 -11.3,-1.44l-80.05 0 -33.29 109.98 80.05 0c4.33,0 8.16,-0.44 11.5,-1.31 3.34,-0.87 6.31,-2.39 8.93,-4.57 2.62,-2.18 4.93,-5.1 6.95,-8.75 2.01,-3.66 3.87,-8.27 5.55,-13.84l15.97 -52.77zm20.66 115.2l41.75 -137.93 31.85 0 -41.75 137.93 -31.85 0zm56 -149.68c-3.91,0 -6.38,-0.96 -7.41,-2.87 -1.02,-1.92 -0.91,-4.96 0.36,-9.14l4.59 -15.15c1.26,-4.18 2.98,-7.18 5.13,-9.01 2.16,-1.83 5.2,-2.74 9.11,-2.74l10.27 0c4.05,0 6.6,0.92 7.66,2.74 1.05,1.83 0.94,4.83 -0.32,9.01l-4.59 15.15c-1.26,4.18 -2.99,7.22 -5.18,9.14 -2.19,1.91 -5.31,2.87 -9.36,2.87l-10.27 0zm0.58 149.68l56.69 -187.3 31.85 0 -56.69 187.3 -31.85 0zm107.73 -67.92c-2.37,7.84 -2.66,13.28 -0.86,16.32 1.8,3.05 5.91,4.57 12.34,4.57l69.78 0 28.63 -94.57 30.38 0 -42.07 138.97c-4.8,15.85 -11.4,27.3 -19.83,34.35 -8.43,7.06 -19.76,10.58 -34.01,10.58l-45.47 0 9.65 -31.87 42.74 0c4.33,0 7.83,-1.04 10.49,-3.13 2.66,-2.09 4.88,-6.09 6.68,-12.02l3.48 -11.49 -71.66 0c-8.52,0 -15.45,-1 -20.78,-3 -5.33,-2 -9.21,-5.1 -11.65,-9.27 -2.43,-4.18 -3.54,-9.4 -3.32,-15.68 0.22,-6.27 1.62,-13.67 4.2,-22.2l22.77 -75.24 30.81 0 -22.3 73.67zm122.35 67.92l45.15 -149.16c4.32,-14.28 10.33,-24.21 18.02,-29.78 7.69,-5.57 17.69,-8.36 29.98,-8.36l36.25 0 -8.38 27.69 -31.43 0c-3.91,0 -6.82,0.83 -8.71,2.48 -1.9,1.65 -3.54,4.74 -4.9,9.27l-1.9 6.27 41.28 0 -9.57 31.61 -41.28 0 -33.29 109.98 -31.22 0zm90.74 0l41.75 -137.93 31.85 0 -41.75 137.93 -31.85 0zm55.99 -149.68c-3.91,0 -6.38,-0.96 -7.4,-2.87 -1.03,-1.92 -0.91,-4.96 0.36,-9.14l4.59 -15.15c1.26,-4.18 2.98,-7.18 5.14,-9.01 2.16,-1.83 5.2,-2.74 9.11,-2.74l10.27 0c4.05,0 6.6,0.92 7.66,2.74 1.05,1.83 0.95,4.83 -0.32,9.01l-4.59 15.15c-1.26,4.18 -2.99,7.22 -5.18,9.14 -2.19,1.91 -5.31,2.87 -9.36,2.87l-10.27 0zm54.02 149.68c-10.47,0 -18.88,-1.09 -25.2,-3.26 -6.32,-2.18 -10.86,-5.66 -13.6,-10.45 -2.74,-4.79 -3.81,-11.06 -3.21,-18.81 0.6,-7.75 2.61,-17.29 6.04,-28.6l5.77 -19.07c3.43,-11.32 7.2,-20.9 11.32,-28.74 4.12,-7.84 9,-14.15 14.64,-18.94 5.64,-4.79 12.28,-8.27 19.93,-10.45 7.64,-2.18 16.71,-3.27 27.18,-3.27l37.93 0c10.62,0 19.09,1.09 25.41,3.27 6.32,2.18 10.85,5.7 13.56,10.58 2.71,4.87 3.76,11.23 3.14,19.07 -0.63,7.84 -2.65,17.42 -6.08,28.74l-5.69 18.81c-3.43,11.32 -7.19,20.85 -11.28,28.6 -4.09,7.75 -8.96,14.02 -14.6,18.81 -5.64,4.79 -12.28,8.27 -19.92,10.45 -7.64,2.18 -16.77,3.26 -27.39,3.26l-37.93 0zm85.28 -78.89c1.79,-5.92 2.88,-10.8 3.27,-14.63 0.39,-3.83 -0.09,-6.83 -1.46,-9.01 -1.37,-2.18 -3.75,-3.66 -7.14,-4.44 -3.4,-0.78 -7.88,-1.18 -13.47,-1.18l-29.55 0c-5.59,0 -10.28,0.39 -14.08,1.18 -3.8,0.78 -7.04,2.26 -9.73,4.44 -2.68,2.18 -4.99,5.18 -6.92,9.01 -1.93,3.83 -3.79,8.71 -5.58,14.63l-5.06 16.72c-1.79,5.92 -2.87,10.76 -3.24,14.5 -0.36,3.74 0.14,6.7 1.5,8.88 1.37,2.18 3.7,3.7 7,4.57 3.3,0.87 7.74,1.31 13.33,1.31l29.55 0c5.59,0 10.33,-0.44 14.23,-1.31 3.89,-0.87 7.18,-2.39 9.87,-4.57 2.68,-2.18 4.98,-5.14 6.88,-8.88 1.9,-3.75 3.75,-8.58 5.54,-14.5l5.06 -16.72zm175.89 41.27c-2.11,6.97 -4.38,12.85 -6.8,17.63 -2.43,4.79 -5.52,8.67 -9.28,11.63 -3.76,2.96 -8.32,5.09 -13.67,6.4 -5.36,1.31 -12.01,1.96 -19.98,1.96l-97.65 0 9.25 -30.56 93.67 0c4.19,0 7.39,-0.87 9.59,-2.61 2.2,-1.74 4.04,-5.05 5.52,-9.93l1.43 -4.7c1.58,-5.22 1.76,-8.49 0.56,-9.8 -1.21,-1.31 -3.7,-1.96 -7.48,-1.96l-63.7 0c-6.43,0 -11.39,-0.78 -14.9,-2.35 -3.51,-1.57 -5.9,-3.92 -7.19,-7.06 -1.29,-3.13 -1.62,-7.01 -0.99,-11.62 0.63,-4.62 1.89,-10.06 3.79,-16.33l3.24 -10.71c1.85,-6.1 3.95,-11.32 6.32,-15.68 2.36,-4.35 5.15,-7.88 8.34,-10.58 3.19,-2.7 7,-4.66 11.42,-5.88 4.42,-1.22 9.7,-1.83 15.85,-1.83l95.92 0 -8.94 29.52 -88.37 0c-3.07,0 -5.49,0.7 -7.24,2.09 -1.75,1.39 -3.17,3.92 -4.28,7.58l-1.98 6.53c-1.21,4 -1.4,6.7 -0.57,8.1 0.84,1.39 2.65,2.09 5.45,2.09l61.61 0c7.26,0 12.97,0.74 17.14,2.22 4.17,1.48 7.09,3.83 8.76,7.06 1.68,3.22 2.23,7.4 1.65,12.54 -0.58,5.14 -2,11.45 -4.27,18.94l-2.21 7.31z"/>
   <path class="fil3" d="M701.27 327.07l4.01 -0.35c-0.29,1.58 -0.25,2.87 0.13,3.89 0.38,1.01 1.18,1.83 2.42,2.46 1.24,0.62 2.75,0.93 4.54,0.93 1.58,0 3.05,-0.23 4.41,-0.71 1.36,-0.47 2.45,-1.13 3.29,-1.95 0.84,-0.83 1.41,-1.73 1.7,-2.69 0.29,-0.98 0.27,-1.84 -0.08,-2.57 -0.35,-0.73 -1.11,-1.35 -2.27,-1.85 -0.75,-0.32 -2.46,-0.83 -5.14,-1.53 -2.68,-0.7 -4.5,-1.34 -5.47,-1.96 -1.26,-0.79 -2.08,-1.77 -2.46,-2.93 -0.39,-1.16 -0.36,-2.47 0.07,-3.91 0.48,-1.59 1.37,-3.08 2.69,-4.45 1.31,-1.38 2.93,-2.43 4.88,-3.14 1.94,-0.72 3.97,-1.07 6.08,-1.07 2.33,0 4.27,0.37 5.82,1.12 1.55,0.75 2.59,1.85 3.11,3.31 0.52,1.46 0.54,3.11 0.06,4.95l-4.08 0.3c0.38,-1.98 0.11,-3.48 -0.83,-4.48 -0.93,-1.02 -2.6,-1.52 -5.02,-1.52 -2.51,0 -4.48,0.46 -5.91,1.38 -1.43,0.92 -2.34,2.03 -2.73,3.34 -0.34,1.12 -0.21,2.05 0.39,2.78 0.59,0.72 2.44,1.47 5.6,2.24 3.14,0.77 5.27,1.43 6.35,2 1.57,0.84 2.6,1.9 3.08,3.2 0.48,1.29 0.47,2.77 -0.04,4.45 -0.5,1.68 -1.44,3.24 -2.84,4.72 -1.4,1.48 -3.11,2.62 -5.15,3.45 -2.04,0.82 -4.17,1.23 -6.41,1.23 -2.84,0 -5.09,-0.42 -6.76,-1.24 -1.67,-0.83 -2.8,-2.07 -3.39,-3.73 -0.6,-1.66 -0.61,-3.54 -0.03,-5.64zm28.29 10.09l9.42 -31.41 4.17 0 -9.42 31.41 -4.17 0zm11.44 0l9.42 -31.41 4.27 0 9.08 24.65 7.4 -24.65 3.99 0 -9.42 31.41 -4.27 0 -9.09 -24.65 -7.39 24.65 -3.99 0zm57.39 -11.01l3.85 1.05c-1.9,3.41 -4.24,6.01 -7.03,7.8 -2.8,1.79 -5.83,2.69 -9.1,2.69 -3.37,0 -5.92,-0.69 -7.63,-2.07 -1.71,-1.38 -2.72,-3.37 -3.04,-5.98 -0.32,-2.62 -0.03,-5.42 0.87,-8.42 0.98,-3.26 2.45,-6.12 4.44,-8.55 1.99,-2.44 4.31,-4.29 7,-5.55 2.68,-1.26 5.41,-1.89 8.17,-1.89 3.14,0 5.55,0.8 7.2,2.39 1.66,1.6 2.48,3.85 2.45,6.74l-4.37 0.97c-0.04,-2.28 -0.6,-3.95 -1.67,-4.99 -1.07,-1.05 -2.65,-1.56 -4.75,-1.56 -2.4,0 -4.6,0.58 -6.56,1.73 -1.96,1.16 -3.57,2.71 -4.8,4.66 -1.25,1.95 -2.18,3.96 -2.8,6.03 -0.8,2.67 -1.11,5 -0.93,6.99 0.18,1.99 0.94,3.48 2.28,4.47 1.34,0.99 2.96,1.47 4.87,1.47 2.32,0 4.49,-0.67 6.5,-2.01 2.01,-1.34 3.7,-3.33 5.06,-5.97zm6.09 11.01l9.42 -31.41 22.67 0 -1.11 3.69 -18.51 0 -2.89 9.65 17.33 0 -1.11 3.68 -17.33 0 -3.21 10.7 19.26 0 -1.11 3.69 -23.42 0zm54.29 0l-3.86 0 7.37 -24.58c-1.19,0.89 -2.68,1.78 -4.45,2.66 -1.77,0.89 -3.33,1.55 -4.66,1.99l1.12 -3.73c2.46,-1.01 4.72,-2.24 6.77,-3.69 2.05,-1.44 3.61,-2.84 4.69,-4.19l2.48 0 -9.46 31.53zm12.67 -7.28l3.78 -0.31c-0.21,1.75 0.01,3 0.66,3.78 0.65,0.78 1.66,1.17 3.05,1.17 1.19,0 2.31,-0.27 3.37,-0.81 1.06,-0.54 2.01,-1.27 2.85,-2.18 0.83,-0.91 1.67,-2.14 2.52,-3.67 0.86,-1.55 1.52,-3.11 2,-4.72 0.05,-0.17 0.12,-0.43 0.21,-0.78 -1.14,1.23 -2.49,2.23 -4.05,2.99 -1.56,0.77 -3.12,1.15 -4.67,1.15 -2.59,0 -4.5,-0.95 -5.74,-2.83 -1.23,-1.88 -1.38,-4.36 -0.45,-7.45 0.96,-3.19 2.66,-5.75 5.12,-7.69 2.45,-1.94 5.09,-2.91 7.92,-2.91 2.03,0 3.73,0.55 5.1,1.65 1.35,1.1 2.17,2.66 2.43,4.7 0.27,2.03 -0.18,4.98 -1.33,8.83 -1.2,4.02 -2.6,7.21 -4.18,9.58 -1.58,2.38 -3.43,4.19 -5.52,5.43 -2.09,1.24 -4.29,1.86 -6.6,1.86 -2.45,0 -4.26,-0.68 -5.4,-2.05 -1.14,-1.37 -1.5,-3.29 -1.07,-5.76zm19.9 -13.86c0.66,-2.21 0.61,-3.96 -0.18,-5.25 -0.78,-1.29 -2,-1.94 -3.66,-1.94 -1.73,0 -3.42,0.69 -5.1,2.09 -1.69,1.4 -2.86,3.21 -3.52,5.43 -0.59,2 -0.48,3.62 0.33,4.86 0.83,1.25 2.12,1.87 3.9,1.87 1.78,0 3.43,-0.62 4.95,-1.87 1.52,-1.24 2.61,-2.97 3.27,-5.18zm4.49 13.86l3.78 -0.31c-0.21,1.75 0.01,3 0.66,3.78 0.65,0.78 1.66,1.17 3.05,1.17 1.19,0 2.3,-0.27 3.37,-0.81 1.06,-0.54 2.01,-1.27 2.85,-2.18 0.83,-0.91 1.67,-2.14 2.53,-3.67 0.85,-1.55 1.52,-3.11 2,-4.72 0.05,-0.17 0.12,-0.43 0.21,-0.78 -1.14,1.23 -2.48,2.23 -4.05,2.99 -1.56,0.77 -3.13,1.15 -4.67,1.15 -2.6,0 -4.5,-0.95 -5.74,-2.83 -1.23,-1.88 -1.38,-4.36 -0.46,-7.45 0.96,-3.19 2.66,-5.75 5.12,-7.69 2.45,-1.94 5.09,-2.91 7.92,-2.91 2.03,0 3.73,0.55 5.1,1.65 1.36,1.1 2.17,2.66 2.43,4.7 0.27,2.03 -0.18,4.98 -1.33,8.83 -1.2,4.02 -2.6,7.21 -4.18,9.58 -1.58,2.38 -3.43,4.19 -5.52,5.43 -2.09,1.24 -4.29,1.86 -6.6,1.86 -2.45,0 -4.26,-0.68 -5.4,-2.05 -1.14,-1.37 -1.5,-3.29 -1.07,-5.76zm19.9 -13.86c0.66,-2.21 0.61,-3.96 -0.18,-5.25 -0.78,-1.29 -1.99,-1.94 -3.66,-1.94 -1.73,0 -3.43,0.69 -5.1,2.09 -1.68,1.4 -2.85,3.21 -3.52,5.43 -0.6,2 -0.49,3.62 0.33,4.86 0.82,1.25 2.12,1.87 3.9,1.87 1.78,0 3.43,-0.62 4.95,-1.87 1.52,-1.24 2.61,-2.97 3.27,-5.18zm12.79 4.11c-1.42,-0.59 -2.36,-1.43 -2.81,-2.51 -0.44,-1.09 -0.44,-2.39 0.02,-3.9 0.69,-2.29 2.08,-4.2 4.18,-5.76 2.11,-1.56 4.53,-2.34 7.26,-2.34 2.73,0 4.7,0.8 5.89,2.39 1.19,1.59 1.44,3.53 0.75,5.82 -0.44,1.45 -1.2,2.72 -2.28,3.8 -1.08,1.08 -2.48,1.91 -4.22,2.5 1.74,0.63 2.89,1.64 3.47,3.04 0.58,1.4 0.59,3.06 0,5.01 -0.81,2.69 -2.43,4.93 -4.87,6.77 -2.45,1.83 -5.22,2.74 -8.3,2.74 -3.1,0 -5.31,-0.91 -6.67,-2.75 -1.34,-1.84 -1.6,-4.12 -0.78,-6.87 0.61,-2.04 1.65,-3.75 3.1,-5.12 1.45,-1.38 3.21,-2.32 5.27,-2.81zm1.2 -6.55c-0.45,1.49 -0.33,2.71 0.32,3.65 0.67,0.95 1.76,1.42 3.31,1.42 1.5,0 2.86,-0.47 4.08,-1.4 1.22,-0.94 2.03,-2.09 2.44,-3.45 0.43,-1.41 0.3,-2.61 -0.38,-3.57 -0.68,-0.97 -1.75,-1.45 -3.22,-1.45 -1.49,0 -2.85,0.47 -4.1,1.42 -1.24,0.94 -2.06,2.07 -2.45,3.39zm-5.63 14.52c-0.33,1.11 -0.39,2.17 -0.19,3.19 0.21,1.02 0.74,1.82 1.61,2.38 0.86,0.56 1.89,0.85 3.07,0.85 1.86,0 3.55,-0.59 5.1,-1.77 1.55,-1.19 2.59,-2.69 3.14,-4.52 0.56,-1.85 0.41,-3.39 -0.45,-4.6 -0.86,-1.22 -2.23,-1.82 -4.09,-1.82 -1.83,0 -3.51,0.6 -5.05,1.8 -1.54,1.2 -2.58,2.7 -3.12,4.5z"/>
  </g>
 </g>
</svg>
