<?xml version="1.0" encoding="UTF-8"?>
<!DOCTYPE svg PUBLIC "-//W3C//DTD SVG 1.1//EN" "http://www.w3.org/Graphics/SVG/1.1/DTD/svg11.dtd">
<!-- Creator: CorelDRAW 2019 (64 Bit) -->
<svg xmlns="http://www.w3.org/2000/svg" xml:space="preserve" width="34.8715mm" height="16.7638mm" version="1.1" style="shape-rendering:geometricPrecision; text-rendering:geometricPrecision; image-rendering:optimizeQuality; fill-rule:evenodd; clip-rule:evenodd"
viewBox="0 0 799.62 384.4"
 xmlns:xlink="http://www.w3.org/1999/xlink">
 <defs>
  <style type="text/css">
   <![CDATA[
    .fil0 {fill:blue}
   ]]>
  </style>
 </defs>
 <g id="Camada_x0020_1">
  <metadata id="CorelCorpID_0Corel-Layer"/>
  <g id="_2225557635104">
   <path class="fil0" d="M-0 238.95l36.14 -166.09c0,0 9.1,-63.83 54.6,-72.87l90.25 0 -9.1 45.57 -69.77 0c0,0 -14.41,1.52 -16.68,34.89l69.01 0 -8.34 37.16 -69.01 0 -26.54 121.34 -50.55 0z"/>
   <path class="fil0" d="M166.2 123.3l9.86 -40.57 81.15 0c0,0 33.37,6.45 24.65,48.54 -8.72,42.09 -23.89,107.69 -23.89,107.69l-104.66 0c0,0 -37.16,-7.2 -29.58,-48.54 7.58,-41.33 9.86,-48.92 9.86,-48.92l82.28 0 -5.31 26.92 -39.82 0c0,0 -10.24,29.2 1.9,29.2 12.13,0 51.95,0 51.95,0l12.89 -62.95c0,0 3.04,-13.65 -6.45,-13.65 -9.48,0 -64.84,2.27 -64.84,2.27z"/>
   <polygon class="fil0" points="278.06,238.95 318.64,238.95 371.34,5.88 329.63,5.88 "/>
   <path class="fil0" d="M475.26 130.88l11.74 -46.26 -80.39 0c0,0 -36.02,13.27 -46.26,51.57 -10.24,38.3 -11,47.02 -11,47.02 0,0 -9.48,49.3 27.68,55.74l73.18 0 12.13 -51.57 -61.43 0c0,0 -9.1,2.65 -6.45,-13.27 2.66,-15.93 6.83,-33.37 6.83,-33.37 0,0 3.03,-9.86 13.65,-9.86 10.62,0 60.31,0 60.31,0z"/>
   <path class="fil0" d="M481.7 188.14l13.65 -58.77c0,0 19.72,-45.51 48.16,-47.02 28.44,-1.52 68.63,-0.38 68.63,-0.38 0,0 34.13,7.2 20.86,65.22 -13.27,58.02 -11.38,47.02 -11.38,47.02 0,0 -18.96,44.74 -49.29,44.74 -30.33,0 -67.87,0 -67.87,0 0,0 -26.17,-7.96 -22.75,-50.81zm61.27 -56.89l42.09 0c3.96,0 6.47,3.24 5.58,7.2l-9.49 42.09c-0.89,3.96 -4.86,7.2 -8.83,7.2l-42.09 0c-3.96,0 -6.47,-3.24 -5.58,-7.2l9.49 -42.09c0.89,-3.96 4.87,-7.2 8.83,-7.2z"/>
   <path class="fil0" d="M631.1 238.19l40.57 0 25.4 -109.97 49.67 0c0,0 11.37,-3.03 6.45,20.1 -4.93,23.13 -18.96,90.63 -18.96,90.63l41.33 0 23.99 -108.07c0,0 2.53,-44.74 -24.36,-51.95l-107.31 0 -36.78 159.26z"/>
   <path class="fil0" d="M-0 263.21l769.5 0 -747.77 121.19 -21.74 -121.19zm19.46 32.61l324.59 0 -313.21 52.33 -11.38 -52.33z"/>
  </g>
 </g>
</svg>
