<?xml version="1.0" encoding="UTF-8"?>
<!DOCTYPE svg PUBLIC "-//W3C//DTD SVG 1.1//EN" "http://www.w3.org/Graphics/SVG/1.1/DTD/svg11.dtd">
<!-- Creator: CorelDRAW 2019 (64 Bit) -->
<svg xmlns="http://www.w3.org/2000/svg" xml:space="preserve" width="51.6154mm" height="22.0576mm" version="1.1" style="shape-rendering:geometricPrecision; text-rendering:geometricPrecision; image-rendering:optimizeQuality; fill-rule:evenodd; clip-rule:evenodd"
viewBox="0 0 1440.8 615.72"
 xmlns:xlink="http://www.w3.org/1999/xlink">
 <defs>
  <style type="text/css">
   <![CDATA[
    .fil0 {fill:#373435}
   ]]>
  </style>
 </defs>
 <g id="Camada_x0020_1">
  <metadata id="CorelCorpID_0Corel-Layer"/>
  <path class="fil0" d="M494.1 0l-118.17 0c0,0 -118.91,0.74 -162.49,122.6 -43.57,121.86 -84.19,257.76 -104.14,293.95 -19.94,36.19 -51.7,131.46 -109.31,175.04 0,0 94.54,-22.16 176.52,-2.22 81.98,19.94 378.88,68.69 430.58,-55.39 0,0 -46.53,17.73 -126.29,12.56 -79.76,-5.17 -226,-64.26 -309.46,-29.54 0,0 91.58,-256.28 102.66,-309.46 11.08,-53.18 39.14,-120.39 60.56,-127.77 21.42,-7.39 96.02,5.91 116.7,-14.03 20.68,-19.94 42.1,-50.22 42.84,-65.73z"/>
  <path class="fil0" d="M360.42 353.77l94.54 0c0,0 56.13,9.6 78.29,-46.53 22.16,-56.13 -18.47,-70.9 -32.5,-70.9 -14.03,0 -85.67,0 -85.67,0 0,0 -73.86,12.55 -92.32,87.89 -18.47,75.33 11.08,101.92 30.28,104.14 19.2,2.22 101.92,0 101.92,0 0,0 40.62,-0.74 55.39,-43.58l-127.03 0c0,0 -26.59,2.22 -22.9,-31.02zm9.97 -45.42c0,0 14.4,-30.65 50.96,-30.65 36.56,0 60.93,0 60.93,0 0,0 24.37,-1.31 19.57,16.62 -4.8,17.92 -26.59,15.14 -26.59,15.14l-104.88 -1.11z"/>
  <path class="fil0" d="M561.3 429.35l27.7 -118.17c0,0 3.32,-28.8 66.84,-28.8 63.52,0 50.59,36.56 50.59,36.56l-24.37 110.41c0,0 45.42,1.48 54.28,-45.79 8.86,-47.27 12.92,-75.33 12.92,-75.33 0,0 10.71,-65.36 -51.33,-74.22 -62.04,-8.86 -127.03,6.65 -149.56,70.9 -22.53,64.26 -25.11,89.37 -20.68,98.6 4.43,9.23 8.49,19.94 33.61,25.85z"/>
  <path class="fil0" d="M805.41 342.2c0,0 -3.32,-56.5 77.92,-56.5 81.24,0 42.84,63.52 42.84,63.52 0,0 -13.66,22.9 -29.17,25.48 -15.51,2.58 -60.93,7.75 -72.75,0.74 -11.82,-7.01 -20.68,-15.88 -18.83,-33.23zm62.78 -106.72l53.18 0c0,0 78.66,7.76 58.72,92.69 -19.94,84.93 -84.56,101.18 -97.49,101.18l-68.32 0c0,0 -68.69,-8.86 -58.35,-76.81 10.34,-67.95 48.01,-107.83 112.26,-117.06z"/>
  <g id="_2307079725712">
   <path class="fil0" d="M1016.64 230.83l143.28 132.2c0,0 32.5,28.43 -7.75,64.62l-149.19 -136.63c0,0 -26.59,-35.45 13.66,-60.19z"/>
   <path class="fil0" d="M1094.56 288.43l55.76 -48.38c0,0 33.61,-35.45 60.93,3.32l-63.15 58.35c0,0 -38.41,19.94 -53.55,-13.3z"/>
   <path class="fil0" d="M954.23 410.12l55.76 -48.38c0,0 33.61,-35.45 60.93,3.32l-63.15 58.35c0,0 -38.41,19.94 -53.55,-13.3z"/>
  </g>
  <g id="_2307079728848">
   <path class="fil0" d="M1246.19 230.83l143.28 132.2c0,0 32.5,28.43 -7.75,64.62l-149.19 -136.63c0,0 -26.59,-35.45 13.66,-60.19z"/>
   <path class="fil0" d="M1324.1 288.43l55.76 -48.38c0,0 33.61,-35.45 60.93,3.32l-63.15 58.35c0,0 -38.41,19.94 -53.55,-13.3z"/>
   <path class="fil0" d="M1183.78 410.12l55.76 -48.38c0,0 33.61,-35.45 60.93,3.32l-63.15 58.35c0,0 -38.41,19.94 -53.55,-13.3z"/>
  </g>
 </g>
</svg>
