<?xml version="1.0" encoding="UTF-8"?>
<!DOCTYPE svg PUBLIC "-//W3C//DTD SVG 1.1//EN" "http://www.w3.org/Graphics/SVG/1.1/DTD/svg11.dtd">
<!-- Creator: CorelDRAW 2019 (64 Bit) -->
<svg xmlns="http://www.w3.org/2000/svg" xml:space="preserve" width="25.946mm" height="7.7888mm" version="1.1" style="shape-rendering:geometricPrecision; text-rendering:geometricPrecision; image-rendering:optimizeQuality; fill-rule:evenodd; clip-rule:evenodd"
viewBox="0 0 1399.77 420.2"
 xmlns:xlink="http://www.w3.org/1999/xlink">
 <defs>
  <style type="text/css">
   <![CDATA[
    .fil6 {fill:url(#id0)}
    .fil2 {fill:url(#id1)}
    .fil3 {fill:url(#id2)}
    .fil8 {fill:url(#id3)}
    .fil5 {fill:url(#id4)}
    .fil4 {fill:url(#id5)}
    .fil7 {fill:url(#id6)}
    .fil1 {fill:url(#id7)}
    .fil0 {fill:url(#id8)}
   ]]>
  </style>
  <linearGradient id="id0" gradientUnits="userSpaceOnUse" x1="129.82" y1="293.7" x2="1353.83" y2="202.71">
   <stop offset="0" style="stop-opacity:1; stop-color:blue"/>
   <stop offset="0.478431" style="stop-opacity:1; stop-color:#D602B9"/>
   <stop offset="1" style="stop-opacity:1; stop-color:#FE0000"/>
  </linearGradient>
  <linearGradient id="id1" gradientUnits="userSpaceOnUse" xlink:href="#id0" x1="129.82" y1="293.7" x2="1353.83" y2="202.71">
  </linearGradient>
  <linearGradient id="id2" gradientUnits="userSpaceOnUse" xlink:href="#id0" x1="129.82" y1="293.7" x2="1353.83" y2="202.71">
  </linearGradient>
  <linearGradient id="id3" gradientUnits="userSpaceOnUse" xlink:href="#id0" x1="129.82" y1="293.7" x2="1353.83" y2="202.71">
  </linearGradient>
  <linearGradient id="id4" gradientUnits="userSpaceOnUse" xlink:href="#id0" x1="129.82" y1="293.7" x2="1353.83" y2="202.71">
  </linearGradient>
  <linearGradient id="id5" gradientUnits="userSpaceOnUse" xlink:href="#id0" x1="129.82" y1="293.7" x2="1353.83" y2="202.71">
  </linearGradient>
  <linearGradient id="id6" gradientUnits="userSpaceOnUse" xlink:href="#id0" x1="129.82" y1="293.7" x2="1353.83" y2="202.71">
  </linearGradient>
  <linearGradient id="id7" gradientUnits="userSpaceOnUse" xlink:href="#id0" x1="129.82" y1="293.7" x2="1353.83" y2="202.71">
  </linearGradient>
  <linearGradient id="id8" gradientUnits="userSpaceOnUse" xlink:href="#id0" x1="129.82" y1="293.7" x2="1353.83" y2="202.71">
  </linearGradient>
 </defs>
 <g id="Camada_x0020_1">
  <metadata id="CorelCorpID_0Corel-Layer"/>
  <g id="_2225417806048">
   <polygon class="fil0" points="322.07,3.12 427.34,3.12 439.83,191.36 480.87,4.01 556.7,4.01 485.33,339.46 391.65,339.46 371.13,123.57 326.53,336.78 247.13,336.78 "/>
   <polygon class="fil1" points="788.66,4.01 769.92,339.46 901.06,339.46 1032.21,4.01 941.21,4.01 857.35,234.19 877.87,1.34 "/>
   <polygon class="fil2" points="1046.48,1.34 970.65,339.46 1063.43,339.46 1134.81,2.23 "/>
   <polygon class="fil3" points="1155.32,5.8 1081.28,339.46 1173.16,339.46 1190.11,260.95 1221.34,225.26 1235.61,339.46 1327.51,339.46 1290.03,137.83 1399.77,4.01 1311.45,4.01 1216.88,122.67 1246.32,4.01 "/>
   <polygon class="fil4" points="244.97,355.29 425.75,355.29 510.31,391.62 517.97,355.47 648.2,355.47 638.09,420.2 477.22,420.2 369.61,378.53 364.49,419.68 228.14,419.68 "/>
   <polygon class="fil5" points="683.35,348.83 669.97,420.2 934.49,420.2 936.28,402.8 824.32,402.8 827.43,387.64 923.79,387.64 922.9,376.04 829.67,376.04 834.13,361.32 934.94,361.32 934.49,348.83 "/>
   <path class="fil6" d="M520.98 260.06l41.04 -185.12c0,0 16.5,-74.94 118.66,-74.94 102.15,0 84.75,96.8 84.75,96.8l-37.92 171.29c0,0 -4.91,71.37 -119.1,71.37 -114.19,0 -87.43,-79.4 -87.43,-79.4zm78.95 21.84l48.18 -222.14c0,0 3.12,-14.72 24.09,-14.72 20.96,0 16.5,19.18 16.5,19.18l-48.62 220.8c0,0 -0.89,9.37 -23.64,9.37 -22.75,0 -16.51,-12.49 -16.51,-12.49z"/>
   <path class="fil7" d="M959.51 404.13l4.46 -37.46c0,0 1.62,-15.17 177.55,-15.17 175.93,0 180.59,19.59 180.59,19.59l-4.03 34.66c0,0 17.07,14.44 -179.6,14.44 -196.67,0 -178.98,-16.07 -178.98,-16.07zm143.79 4.42l3.51 -44.95c0,0 0.11,-2.98 36.22,-2.98 36.11,0 35.28,3.88 35.28,3.88l-4.75 44.68c0,0 1.82,1.9 -37.37,1.9 -39.18,0 -32.9,-2.53 -32.9,-2.53z"/>
   <polygon class="fil8" points="-0,1.99 271.66,1.99 197.61,339.22 "/>
  </g>
 </g>
</svg>
