<?xml version="1.0" encoding="UTF-8"?>
<!DOCTYPE svg PUBLIC "-//W3C//DTD SVG 1.1//EN" "http://www.w3.org/Graphics/SVG/1.1/DTD/svg11.dtd">
<!-- Creator: CorelDRAW 2018 -->
<svg xmlns="http://www.w3.org/2000/svg" xml:space="preserve" width="150mm" height="34.4543mm" version="1.1" style="shape-rendering:geometricPrecision; text-rendering:geometricPrecision; image-rendering:optimizeQuality; fill-rule:evenodd; clip-rule:evenodd"
viewBox="0 0 15000 3445.43"
 xmlns:xlink="http://www.w3.org/1999/xlink">
 <defs>
  <style type="text/css">
   <![CDATA[
    .fil4 {fill:url(#id0)}
    .fil2 {fill:url(#id1)}
    .fil6 {fill:url(#id2)}
    .fil1 {fill:url(#id3)}
    .fil0 {fill:url(#id4)}
    .fil5 {fill:url(#id5)}
    .fil3 {fill:url(#id6)}
   ]]>
  </style>
  <radialGradient id="id0" gradientUnits="userSpaceOnUse" gradientTransform="matrix(10.2591 -4.74713E-05 4.7471E-05 10.2591 -71096 -24908)" cx="7678.42" cy="2690.15" r="842.62" fx="7678.42" fy="2690.15">
   <stop offset="0" style="stop-opacity:1; stop-color:#0080FF"/>
   <stop offset="1" style="stop-opacity:1; stop-color:#003B75"/>
  </radialGradient>
  <radialGradient id="id1" gradientUnits="userSpaceOnUse" gradientTransform="matrix(5.63099 -2.60558E-05 2.60557E-05 5.63097 -35621 -12451)" xlink:href="#id0" cx="7691.87" cy="2688.72" r="1535.17" fx="7691.87" fy="2688.72">
  </radialGradient>
  <radialGradient id="id2" gradientUnits="userSpaceOnUse" gradientTransform="matrix(1.1526 -5.33333E-06 5.33333E-06 1.1526 -1167 -408)" xlink:href="#id0" cx="7650" cy="2673.51" r="7500" fx="7650" fy="2673.51">
  </radialGradient>
  <radialGradient id="id3" gradientUnits="userSpaceOnUse" gradientTransform="matrix(7.63412 -3.53248E-05 3.5325E-05 7.63417 -51013 -17813)" xlink:href="#id0" cx="7689.46" cy="2685.09" r="1132.35" fx="7689.46" fy="2685.09">
  </radialGradient>
  <radialGradient id="id4" gradientUnits="userSpaceOnUse" gradientTransform="matrix(33.4909 -0.00015497 0.00015497 33.4909 -249526 -87287)" xlink:href="#id0" cx="7679.85" cy="2686.53" r="258.12" fx="7679.85" fy="2686.53">
  </radialGradient>
  <radialGradient id="id5" gradientUnits="userSpaceOnUse" gradientTransform="matrix(7.40263 -3.42536E-05 3.42536E-05 7.40263 -49164 -17184)" xlink:href="#id0" cx="7678.7" cy="2684.01" r="1167.76" fx="7678.7" fy="2684.01">
  </radialGradient>
  <radialGradient id="id6" gradientUnits="userSpaceOnUse" gradientTransform="matrix(11.1482 -5.15853E-05 5.15849E-05 11.1482 -77893 -27222)" xlink:href="#id0" cx="7675.55" cy="2682.51" r="775.42" fx="7675.55" fy="2682.51">
  </radialGradient>
 </defs>
 <g id="Camada_x0020_1">
  <metadata id="CorelCorpID_0Corel-Layer"/>
  <g id="_836133376">
   <path class="fil0" d="M14673.59 360.16l54.4 0c26.04,0 43.78,-3.84 53.24,-11.55 9.46,-7.7 14.24,-17.98 14.24,-30.59 0,-8.17 -2.34,-15.53 -6.89,-21.95 -4.55,-6.53 -10.85,-11.32 -18.91,-14.47 -8.17,-3.16 -23.11,-4.79 -45.06,-4.79l-51.02 0 0 83.35zm-44.82 156.21l0 -277.38 95.49 0c32.69,0 56.27,2.57 70.86,7.7 14.71,5.14 26.27,14.01 35.02,26.86 8.64,12.72 12.96,26.26 12.96,40.62 0,20.2 -7.24,37.95 -21.83,52.89 -14.48,15.05 -33.74,23.46 -57.79,25.33 9.81,4.09 17.75,8.98 23.58,14.71 11.21,10.85 24.87,29.18 41.1,54.98l33.85 54.29 -54.4 0 -24.75 -43.67c-19.38,-34.43 -35.14,-56.03 -47.04,-64.67 -8.18,-6.3 -20.08,-9.45 -35.84,-9.34l-26.39 0 0 117.68 -44.82 0zm113.35 -357.93c-36.31,0 -71.68,9.34 -106,27.9 -34.32,18.56 -61.18,45.18 -80.55,79.74 -19.38,34.55 -29.07,70.51 -29.07,107.86 0,37.24 9.57,72.85 28.6,106.94 19.03,34.09 45.65,60.7 79.85,79.73 34.2,19.03 69.93,28.6 107.17,28.6 37.12,0 72.85,-9.57 107.06,-28.6 34.2,-19.03 60.82,-45.64 79.73,-79.73 18.91,-34.09 28.37,-69.7 28.37,-106.94 0,-37.35 -9.7,-73.31 -28.96,-107.86 -19.26,-34.56 -46.11,-61.18 -80.55,-79.74 -34.44,-18.56 -69.69,-27.9 -105.65,-27.9zm0 -42.73c43.31,0 85.57,11.09 126.9,33.39 41.21,22.18 73.42,54.05 96.42,95.38 23,41.44 34.56,84.64 34.56,129.46 0,44.48 -11.33,87.32 -34.08,128.3 -22.66,41.1 -54.41,72.96 -95.38,95.62 -40.98,22.75 -83.83,34.08 -128.42,34.08 -44.71,0 -87.56,-11.33 -128.53,-34.08 -40.98,-22.66 -72.85,-54.52 -95.62,-95.62 -22.75,-40.98 -34.2,-83.82 -34.2,-128.3 0,-44.82 11.56,-88.02 34.68,-129.46 23.23,-41.33 55.44,-73.2 96.66,-95.38 41.32,-22.3 83.58,-33.39 127.01,-33.39z"/>
   <path class="fil1" d="M4462.68 2125.63c0,169.99 -246.56,169.99 -246.56,169.99l-241.68 0 0 -339.97c121.72,0.66 241.68,0 241.68,0 0,0 246.56,0.05 246.56,169.98zm-83.78 1057.11l1000.57 1.55c0,0 -415.38,-492.48 -599.94,-716.81l0 0c667.33,0 699.51,-947.18 34.65,-947.18l-1699.41 0 0 1662.44 859.67 0 0 -540.92 404.46 540.92z"/>
   <path class="fil2" d="M7937.49 1049.15l-2719.11 118.45c262.67,-361.08 667.2,-606.56 1110.62,-640.35 0,0 -900.23,-69.36 -1461.84,817.95l0 0c220.47,-18.7 3070.33,-296.05 3070.33,-296.05z"/>
   <path class="fil3" d="M6715.98 2720.58c-19.68,47.22 -70.65,111.44 -202.62,120.48 -283.22,18.34 -262.58,-393.07 -100.12,-437.37 122.35,-33.85 243.03,-5.41 301.13,111.99l1.61 204.9zm2.49 -539.68c-238.42,-247.7 -867.79,-214.44 -947.98,127.04 -55.01,205.35 -49.01,521.27 69.33,703.93 87.68,123.14 255.29,172.02 399.94,170.87 169.95,-1.36 335.31,-18.15 478.71,-106.05l0.62 106.05 568.75 0 -0.43 -1162.37 -568.94 0 0 160.53z"/>
   <path class="fil4" d="M9329.95 2020.37l-615.84 0 -181.41 577.76 -261.38 -577.76 -626.6 0 573.59 1064.05 -413.78 3.29 2.58 324.73c0,0 414.43,27.04 516.35,32.65 175.23,5.04 358.2,-45.49 449.93,-205.83 203.65,-355.79 380.7,-841.73 556.56,-1218.89z"/>
   <polygon class="fil5" points="12022.77,1520.3 11106.09,1520.3 10867.2,1964.74 10646.61,1520.3 9687.25,1520.3 10284.53,2357.78 9687.25,3182.74 10646.61,3182.74 10867.2,2742.1 11106.09,3182.74 12022.77,3182.74 11441.12,2357.78 "/>
   <path class="fil6" d="M9785.98 792.57c1288.28,374.92 2206.48,410.99 3318.41,198.88 187.46,-50.23 608.94,1.94 759.06,201.62l-425.57 907.39 255.6 125.32c0,0 312.83,-690.04 462.65,-1060.47 -146.52,-260.67 -547.53,-448.25 -831.68,-515.49l225.5 -472.87 1450.05 -176.95 -2054.08 0c0,0 -537.53,733.5 -638.31,874.44 -437.37,84.18 -1206.42,-25.8 -1771.03,-151.45 -1161.05,-305.77 -2131.43,-587.82 -3069.31,-663.8 -1384.55,-132.56 -2164.05,258.08 -2925.83,831.34 -1577.91,-66.64 -3580.86,368.52 -4541.44,2182.47l0 0c1713.95,-2229.07 4175.86,-1914.31 4670.17,-1946.87 1156.47,-1282.16 3644.11,-788.94 5115.81,-333.56z"/>
  </g>
 </g>
</svg>
