<?xml version="1.0" encoding="UTF-8"?>
<!DOCTYPE svg PUBLIC "-//W3C//DTD SVG 1.1//EN" "http://www.w3.org/Graphics/SVG/1.1/DTD/svg11.dtd">
<!-- Creator: CorelDRAW 2018 -->
<svg xmlns="http://www.w3.org/2000/svg" xml:space="preserve" width="186.078mm" height="176.943mm" version="1.1" style="shape-rendering:geometricPrecision; text-rendering:geometricPrecision; image-rendering:optimizeQuality; fill-rule:evenodd; clip-rule:evenodd"
viewBox="0 0 18052.26 17166.08"
 xmlns:xlink="http://www.w3.org/1999/xlink">
 <defs>
  <style type="text/css">
   <![CDATA[
    .fil30 {fill:#00D2FF}
    .fil21 {fill:#464655}
    .fil17 {fill:#515262}
    .fil20 {fill:#5A4146}
    .fil16 {fill:#5B5D6E}
    .fil19 {fill:#694B4B}
    .fil9 {fill:#707487}
    .fil18 {fill:#785550}
    .fil23 {fill:#8F96AC}
    .fil8 {fill:#959CB3}
    .fil27 {fill:#9BE6D2}
    .fil15 {fill:#A0D2F0}
    .fil3 {fill:#AFB9D2}
    .fil12 {fill:#B4E1FA}
    .fil35 {fill:#BE4B50}
    .fil26 {fill:#C3E678}
    .fil10 {fill:#C5D0E4}
    .fil7 {fill:#C7CFE2}
    .fil31 {fill:#D2555A}
    .fil13 {fill:#D29B6E}
    .fil24 {fill:#D7DEED}
    .fil4 {fill:#E1C3A0}
    .fil34 {fill:#E4EAF6}
    .fil11 {fill:#E6AF78}
    .fil5 {fill:#EBD2AF}
    .fil22 {fill:#EFF2FA}
    .fil14 {fill:#F0C087}
    .fil6 {fill:#F0DCBE}
    .fil25 {fill:#FF6464}
    .fil29 {fill:#FFA05A}
    .fil28 {fill:#FFD782}
    .fil33 {fill:white}
    .fil0 {fill:#052959;fill-opacity:0.501961}
    .fil1 {fill:#3B77CB;fill-opacity:0.501961}
    .fil2 {fill:#7AA4DC;fill-opacity:0.501961}
    .fil32 {fill:#AFB9D2;fill-opacity:0.968627}
   ]]>
  </style>
 </defs>
 <g id="Layer_x0020_1">
  <metadata id="CorelCorpID_0Corel-Layer"/>
  <path class="fil0" d="M10926.17 2747.47c2209.78,1559.79 1143.57,7314.69 -416.22,9524.47 -1559.79,2209.78 -3000.15,1025.18 -5209.92,-534.61 -2209.78,-1559.79 -6527.6,-4439.64 -4967.8,-6649.42 1559.79,-2209.78 8384.17,-3900.24 10593.95,-2340.45z"/>
  <path class="fil1" d="M6877.63 7851.89c959.17,-2529.04 6241.34,-3837.03 8770.39,-2877.86 2529.04,959.17 2870.64,1725.45 1911.47,4254.5 -959.17,2529.04 -5340.29,8797.77 -7869.34,7838.6 -2529.04,-959.17 -3771.69,-6686.19 -2812.52,-9215.24z"/>
  <path class="fil2" d="M14380.7 10426.87c2209.78,-1559.8 2158.62,-7001.25 598.83,-9211.03 -1559.8,-2209.79 -3000.15,-1025.18 -5209.92,534.61 -2209.78,1559.8 -6527.61,4439.64 -4967.8,6649.42 1559.79,2209.79 7369.11,3586.79 9578.9,2027z"/>
  <g id="administrator.svg">
   <path class="fil3" d="M10528.64 6952.49l-1680.05 0c-139.45,0 -256.2,105.67 -270.06,244.41l-156.52 1565.03 2533.21 0 -156.5 -1565.03c-13.87,-138.76 -130.63,-244.41 -270.07,-244.41z"/>
   <rect class="fil4" x="4803.15" y="8761.92" width="9770.93" height="3256.98"/>
   <g>
    <path class="fil5" d="M4803.15 12923.62l0 0c-99.92,0 -180.96,-81.03 -180.96,-180.95l0 -3980.74 361.89 0 0 3980.74c0.02,99.92 -81.01,180.95 -180.93,180.95z"/>
    <path class="fil5" d="M14574.07 12923.62l0 0c-99.92,0 -180.95,-81.03 -180.95,-180.95l0 -3980.74 361.88 0 0 3980.74c0,99.92 -81.01,180.95 -180.93,180.95z"/>
   </g>
   <path class="fil6" d="M14755 8580.97l-10132.78 0c-99.92,0 -180.95,81.03 -180.95,180.96l0 0c0,99.92 81.03,180.95 180.95,180.95l10132.81 -0.01c99.92,0 180.95,-81.03 180.95,-180.95l0 0c-0.03,-99.92 -81.06,-180.95 -180.98,-180.95z"/>
   <path class="fil7" d="M13488.41 8580.97c-99.92,0 -180.95,-81.02 -180.95,-180.95l0 -1372.59 -511.74 -511.82c-68.39,-68.3 -159.31,-105.99 -255.95,-105.99l-137.04 0 0 361.88c0,99.92 -81.03,180.95 -180.95,180.95 -99.93,0 -180.96,-81.03 -180.96,-180.95l0 -542.84c0,-99.92 81.03,-180.96 180.96,-180.96l318.03 0.01c193.23,0 374.96,75.26 511.82,211.9l564.75 564.9c33.92,33.92 53.01,79.96 53.01,127.92l0 1447.54c-0.02,99.99 -81.05,180.99 -180.97,180.99z"/>
   <g>
    <path class="fil3" d="M12402.76 6771.56l-361.88 0c-199.87,0 -361.88,162.01 -361.88,361.88l0 135.71c0,24.98 20.26,45.24 45.24,45.24l995.19 0c24.99,0 45.24,-20.26 45.24,-45.24l0 -135.71c-0.02,-199.87 -162.05,-361.88 -361.9,-361.88z"/>
    <path class="fil3" d="M13850.29 8580.97l-1266.6 0 0 -180.95c0,-99.92 81.03,-180.95 180.95,-180.95l904.72 0c99.92,0 180.95,81.03 180.95,180.96l0 180.94 -0.02 0z"/>
   </g>
   <g>
    <circle class="fil8" cx="12221.81" cy="6228.73" r="180.95"/>
    <circle class="fil8" cx="13488.41" cy="6952.49" r="180.95"/>
   </g>
   <path class="fil9" d="M7291.11 8580.97l-1718.96 0c-24.98,0 -45.24,-20.25 -45.24,-45.24l0 -271.41c0,-24.98 20.26,-45.23 45.24,-45.23l1718.96 0c24.99,0 45.24,20.25 45.24,45.23l0 271.41c0,25.01 -20.23,45.24 -45.24,45.24z"/>
   <path class="fil3" d="M7291.11 7857.21l-1538.01 0c-24.98,0 -45.24,-20.26 -45.24,-45.24l0 -271.41c0,-24.99 20.26,-45.24 45.24,-45.24l1538.01 0c24.99,0 45.24,20.25 45.24,45.24l0 271.41c0,25 -20.23,45.24 -45.24,45.24z"/>
   <g>
    <path class="fil7" d="M7472.06 7495.33l-1357.08 0c-24.98,0 -45.24,-20.25 -45.24,-45.24l0 -271.41c0,-24.99 20.26,-45.24 45.24,-45.24l1357.08 0c24.98,0 45.24,20.25 45.24,45.24l0 271.41c0,24.98 -20.26,45.24 -45.24,45.24z"/>
    <path class="fil7" d="M7472.06 8219.09l-1538 0c-24.99,0 -45.24,-20.26 -45.24,-45.24l-0.01 -271.41c0,-24.99 20.25,-45.24 45.24,-45.24l1538.01 0c24.98,0 45.24,20.25 45.24,45.24l0 271.41c0,25 -20.26,45.24 -45.24,45.24z"/>
   </g>
   <path class="fil10" d="M11995.64 8580.97l-452.35 0c-24.99,0 -45.24,-20.25 -45.24,-45.24l0 -633.28c0,-24.99 20.25,-45.24 45.24,-45.24l452.35 0c24.99,0 45.24,20.25 45.24,45.24l0 633.3c0,24.99 -20.27,45.22 -45.24,45.22z"/>
   <g>
   </g>
   <g>
   </g>
   <g>
   </g>
   <g>
   </g>
   <g>
   </g>
   <g>
   </g>
   <g>
   </g>
   <g>
   </g>
   <g>
   </g>
   <g>
   </g>
   <g>
   </g>
   <g>
   </g>
   <g>
   </g>
   <g>
   </g>
   <g>
   </g>
  </g>
  <g id="customer-service.svg">
   <path class="fil9" d="M9099.28 7442.29l-60.92 -30.46c-14.26,-7.13 -23.27,-21.7 -23.27,-37.65l0 -158.44c0,-15.94 9.01,-30.51 23.27,-37.64l60.92 -30.47 0 294.67z"/>
   <polygon class="fil11" points="10067.46,7989.52 10067.46,7694.86 9309.76,7694.86 9309.76,7989.52 9688.61,8326.27 "/>
   <path class="fil12" d="M10653.27 8127.36l-520.89 -122.56c-7.87,-1.85 -15.11,-5 -21.88,-8.81l-421.9 246.11 -405.43 -258.01c-10.5,9.89 -23.53,17.23 -38.32,20.71l-520.9 122.57c-76.06,17.89 -129.82,85.76 -129.82,163.9l0 329.69c0,46.5 37.69,84.19 84.19,84.19l2020.56 0c46.5,0 84.19,-37.7 84.19,-84.19l0 -329.69c0.01,-78.14 -53.75,-146.02 -129.81,-163.91z"/>
   <path class="fil13" d="M9309.76 7694.86l0 310.89c477.25,171.96 757.7,-258.4 757.7,-258.4l0 -52.49 -757.7 0 0 0z"/>
   <path class="fil14" d="M9141.37 6726.68l36.68 807.02c3.42,75.39 40.4,145.31 100.77,190.59l174.05 130.54c43.71,32.79 96.89,50.52 151.55,50.52l168.38 0c54.65,0 107.82,-17.72 151.55,-50.52l174.05 -130.54c60.37,-45.29 97.33,-115.2 100.76,-190.59l36.68 -807.02c0,0 -1094.47,0 -1094.47,0z"/>
   <path class="fil11" d="M9562.33 6895.06c168.38,0 420.95,-42.09 480.85,-168.39l-901.81 0 36.68 807.03c3.42,75.39 40.4,145.3 100.77,190.59l174.05 130.54c43.72,32.78 96.9,50.52 151.55,50.52l84.19 0c-84.19,0 -252.57,-168.39 -252.57,-378.86 0,-102.93 0,-378.85 0,-505.14 0,-42.09 42.09,-126.28 126.28,-126.28z"/>
   <g>
    <path class="fil15" d="M8903.17 8431.94l-272.77 -245.03c-22.86,28.94 -36.26,65.37 -36.26,104.35l0 329.69c0,46.5 37.7,84.19 84.19,84.19l294.67 0 0 -116.62c-0.01,-59.74 -25.39,-116.66 -69.83,-156.58z"/>
    <path class="fil15" d="M10474.05 8431.94l272.78 -245.03c22.86,28.94 36.25,65.37 36.25,104.35l0 329.69c0,46.5 -37.7,84.19 -84.19,84.19l-294.67 0 0 -116.62c0,-59.74 25.39,-116.66 69.83,-156.58z"/>
   </g>
   <polygon class="fil16" points="9793.85,8705.14 9583.37,8705.14 9609.68,8326.27 9767.54,8326.27 "/>
   <path class="fil17" d="M9793.85 8242.09l-210.48 0 0 79.22c0,25.99 21.07,47.06 47.06,47.06l116.35 0c25.99,0 47.06,-21.07 47.06,-47.06l0 -79.23 0.01 0.01z"/>
   <g>
    <path class="fil15" d="M9303.85 7895.8l384.76 346.28c0,0 -107.75,54.41 -240.72,164.04 -27.44,22.61 -68.93,13.46 -83.64,-18.92l-180.78 -397.68 57.19 -85.78c14.23,-21.36 44.1,-25.12 63.19,-7.95z"/>
    <path class="fil15" d="M10073.38 7895.8l-384.77 346.28c0,0 107.75,54.41 240.73,164.04 27.43,22.61 68.92,13.46 83.64,-18.92l180.77 -397.68 -57.19 -85.78c-14.23,-21.36 -44.1,-25.12 -63.18,-7.95z"/>
   </g>
   <path class="fil18" d="M9943.81 6447.8l39.47 278.88c180.14,36.03 206.1,318.73 209.84,399.48 0.67,14.66 5.36,28.8 13.3,41.13l68.73 106.62c0,0 -23.53,-176.28 84.19,-294.66 0,0 36.99,-699.83 -415.53,-531.45z"/>
   <path class="fil19" d="M9181.72 6372.37l62.26 42.53c-281.52,207.84 -228.9,564.34 -228.9,564.34 84.19,84.19 84.19,294.66 84.19,294.66l84.19 -84.19c0,0 -32.49,-243.2 126.28,-336.76 147.33,-86.83 276.25,-42.09 407.79,-42.09 352.55,0 451.21,-132.86 434.11,-294.66 -8.86,-83.72 -136.86,-258.13 -463.04,-252.58 -131.65,2.24 -378.85,42.09 -506.89,108.74z"/>
   <path class="fil20" d="M9157.16 6774.03c0,0 -44.72,-176.28 86.83,-359.12 -281.52,207.84 -228.9,564.33 -228.9,564.33 84.19,84.19 84.19,294.67 84.19,294.67l84.19 -84.19c0,0 -32.49,-243.21 126.28,-336.77 147.33,-86.82 276.25,-42.09 407.79,-42.09 57.34,0 107.3,-3.83 151.81,-10.42 -271.5,9.1 -431.55,-196.55 -712.19,-26.42z"/>
   <path class="fil16" d="M9162.42 7484.38l-63.15 0c-23.24,0 -42.09,-18.85 -42.09,-42.09l0 -294.66c0,-23.25 18.85,-42.09 42.09,-42.09l63.15 0c11.62,0 21.05,9.42 21.05,21.04l0 336.76c-0.01,11.63 -9.43,21.05 -21.05,21.05z"/>
   <path class="fil21" d="M9856.99 7726.42l0 -63.14c284.9,0 347.28,-159.53 347.28,-221l63.15 0c0,79.04 -73.73,284.14 -410.43,284.14z"/>
   <path class="fil16" d="M9856.99 7736.95l-42.09 0c-23.24,0 -42.09,-18.84 -42.09,-42.09l0 0c0,-23.24 18.85,-42.09 42.09,-42.09l42.09 0c23.25,0 42.09,18.85 42.09,42.09l0 0c0,23.25 -18.85,42.09 -42.09,42.09z"/>
   <path class="fil9" d="M10277.95 7442.29l60.92 -30.46c14.26,-7.13 23.26,-21.7 23.26,-37.65l0.01 -158.44c0,-15.94 -9.01,-30.51 -23.27,-37.64l-60.92 -30.47 0 294.67z"/>
   <path class="fil16" d="M10214.8 7484.38l63.15 0c23.24,0 42.08,-18.85 42.08,-42.09l0 -294.66c0,-23.25 -18.84,-42.09 -42.08,-42.09l-63.15 0c-11.62,0 -21.05,9.42 -21.05,21.04l0 336.76c0.01,11.63 9.43,21.05 21.05,21.05z"/>
   <path class="fil15" d="M10235.85 8620.95l-294.67 0c-23.24,0 -42.09,18.84 -42.09,42.09l0 42.09 378.86 0 0 -42.09c0,-23.24 -18.86,-42.09 -42.09,-42.09z"/>
   <g>
   </g>
   <g>
   </g>
   <g>
   </g>
   <g>
   </g>
   <g>
   </g>
   <g>
   </g>
   <g>
   </g>
   <g>
   </g>
   <g>
   </g>
   <g>
   </g>
   <g>
   </g>
   <g>
   </g>
   <g>
   </g>
   <g>
   </g>
   <g>
   </g>
  </g>
  <g id="line-graph.svg">
   <g>
    <rect class="fil22" x="4961.49" y="4750.82" width="124.54" height="1432.19"/>
    <rect class="fil22" x="4587.87" y="5435.78" width="124.54" height="747.23"/>
    <rect class="fil22" x="5335.11" y="4252.67" width="124.54" height="1930.35"/>
    <rect class="fil22" x="5708.72" y="5622.59" width="124.54" height="560.42"/>
    <rect class="fil22" x="6082.34" y="5373.52" width="124.54" height="809.5"/>
    <rect class="fil22" x="6455.95" y="4999.9" width="124.54" height="1183.12"/>
    <rect class="fil22" x="6829.57" y="3007.27" width="124.54" height="3175.74"/>
    <rect class="fil22" x="7203.18" y="5747.13" width="124.54" height="435.89"/>
   </g>
   <path class="fil3" d="M7265.46 5809.44c-6.51,0 -13.16,-1.04 -19.7,-3.23l-1120.86 -373.61c-13.14,-4.39 -24.42,-13.02 -32.1,-24.53l-698.41 -1047.6 -320.84 427.74c-18.98,25.26 -53.94,32.34 -81.18,16.41l-747.23 -435.89c-29.71,-17.34 -39.74,-55.46 -22.41,-85.17 17.36,-29.68 55.42,-39.73 85.16,-22.41l699.32 407.95 340.35 -453.8c12.11,-16.17 31.02,-26.3 51.54,-24.87 20.19,0.54 38.84,10.89 50.08,27.71l735.37 1103.07 1100.61 366.87c32.63,10.89 50.25,46.16 39.37,78.78 -8.68,26.09 -32.98,42.6 -59.07,42.6z"/>
   <path class="fil23" d="M4276.46 6245.29c-9.33,0 -18.85,-2.11 -27.78,-6.57 -30.76,-15.39 -43.24,-52.79 -27.84,-83.55l373.61 -747.24c12.22,-24.48 39.11,-38.01 65.96,-33.57l1094.55 182.44 706.39 -529.81 369.25 -2030.83c6.14,-33.81 38.54,-56.13 72.39,-50.14 33.84,6.14 56.28,38.58 50.13,72.39l-373.61 2054.88c-2.79,15.44 -11.34,29.28 -23.9,38.68l-747.24 560.42c-13.62,10.24 -30.79,14.5 -47.61,11.61l-1075.48 -179.25 -353.03 706.09c-10.92,21.85 -32.91,34.43 -55.77,34.43z"/>
   <g>
    <path class="fil24" d="M4276.53 5871.67l-124.54 0c-34.39,0 -62.27,-27.88 -62.27,-62.27l0 0c0,-34.39 27.88,-62.27 62.27,-62.27l124.54 0 0 124.55z"/>
    <path class="fil24" d="M4276.53 5498.06l-124.54 0c-34.39,0 -62.27,-27.88 -62.27,-62.27l0 0c0,-34.39 27.88,-62.27 62.27,-62.27l124.54 0 0 124.55z"/>
    <path class="fil24" d="M4276.53 5124.43l-124.54 0c-34.39,0 -62.27,-27.88 -62.27,-62.27l0 0c0,-34.38 27.88,-62.27 62.27,-62.27l124.54 0 0 124.55z"/>
    <path class="fil24" d="M4276.53 4750.82l-124.54 0c-34.39,0 -62.27,-27.88 -62.27,-62.27l0 0c0,-34.38 27.88,-62.27 62.27,-62.27l124.54 0 0 124.55z"/>
    <path class="fil24" d="M4276.53 4377.2l-124.54 0c-34.39,0 -62.27,-27.88 -62.27,-62.27l0 0c0,-34.38 27.88,-62.27 62.27,-62.27l124.54 0.01 0 124.54z"/>
    <path class="fil24" d="M4276.53 4003.59l-124.54 0c-34.39,0 -62.27,-27.88 -62.27,-62.27l0 0c0,-34.38 27.88,-62.27 62.27,-62.27l124.54 0.01 0 124.54z"/>
    <path class="fil24" d="M4276.53 3629.97l-124.54 0c-34.39,0 -62.27,-27.89 -62.27,-62.27l0 0c0,-34.39 27.88,-62.27 62.27,-62.27l124.54 0 0 124.55z"/>
    <path class="fil24" d="M4276.53 3256.35l-124.54 0c-34.39,0 -62.27,-27.88 -62.27,-62.26l0 0c0,-34.39 27.88,-62.27 62.27,-62.27l124.54 0 0 124.54z"/>
    <path class="fil24" d="M7327.72 6183.02l0 124.54c0,34.38 -27.88,62.27 -62.27,62.27l0 0c-34.39,0 -62.27,-27.89 -62.27,-62.27l0 -124.54 124.55 0z"/>
    <path class="fil24" d="M6954.11 6183.02l0 124.54c0,34.38 -27.88,62.27 -62.27,62.27l0 0c-34.39,0 -62.27,-27.89 -62.27,-62.27l0 -124.54 124.55 0z"/>
    <path class="fil24" d="M6580.49 6183.02l0 124.54c0,34.38 -27.88,62.27 -62.27,62.27l0 0c-34.38,0 -62.27,-27.89 -62.27,-62.27l0 -124.54 124.55 0z"/>
    <path class="fil24" d="M6206.87 6183.02l0 124.54c0,34.38 -27.88,62.27 -62.27,62.27l0 0c-34.38,0 -62.27,-27.89 -62.27,-62.27l0 -124.54 124.55 0z"/>
    <path class="fil24" d="M5833.25 6183.02l0 124.54c0,34.38 -27.88,62.27 -62.27,62.27l0 0c-34.38,0 -62.27,-27.89 -62.27,-62.27l0 -124.54 124.55 0z"/>
    <path class="fil24" d="M5459.64 6183.02l0 124.54c0,34.38 -27.88,62.27 -62.27,62.27l0 0c-34.38,0 -62.27,-27.89 -62.27,-62.27l0 -124.54 124.55 0z"/>
    <path class="fil24" d="M5086.03 6183.02l0 124.54c0,34.38 -27.89,62.27 -62.27,62.27l0 0c-34.39,0 -62.27,-27.89 -62.27,-62.27l0 -124.54 124.55 0z"/>
    <path class="fil24" d="M4712.41 6183.02l0 124.54c0,34.38 -27.88,62.27 -62.27,62.27l0 0c-34.39,0 -62.27,-27.89 -62.27,-62.27l0 -124.54 124.55 0z"/>
   </g>
   <g>
    <path class="fil7" d="M4276.53 6369.83l0 0c-34.39,0 -62.27,-27.89 -62.27,-62.27l0 -3487.08c0,-34.39 27.88,-62.27 62.27,-62.27l0 0c34.38,0 62.27,27.88 62.27,62.27l0 3487.09c-0.01,34.37 -27.89,62.26 -62.27,62.26z"/>
    <path class="fil7" d="M4089.72 6183.02l0 0c0,-34.39 27.88,-62.27 62.27,-62.27l3487.09 0c34.38,0 62.27,27.88 62.27,62.27l0 0c0,34.38 -27.89,62.27 -62.27,62.27l-3487.09 0c-34.39,0 -62.27,-27.89 -62.27,-62.27z"/>
   </g>
   <circle class="fil25" cx="4650.14" cy="5435.78" r="124.54"/>
   <g>
    <circle class="fil26" cx="5023.76" cy="4750.82" r="124.54"/>
    <circle class="fil26" cx="5397.37" cy="4252.66" r="124.54"/>
    <circle class="fil26" cx="6144.6" cy="5373.52" r="124.54"/>
    <circle class="fil26" cx="7265.46" cy="5747.13" r="124.54"/>
   </g>
   <g>
    <circle class="fil25" cx="5770.99" cy="5622.59" r="124.54"/>
    <circle class="fil25" cx="6518.22" cy="5062.17" r="124.54"/>
    <circle class="fil25" cx="6891.84" cy="3007.27" r="124.54"/>
   </g>
   <g>
   </g>
   <g>
   </g>
   <g>
   </g>
   <g>
   </g>
   <g>
   </g>
   <g>
   </g>
   <g>
   </g>
   <g>
   </g>
   <g>
   </g>
   <g>
   </g>
   <g>
   </g>
   <g>
   </g>
   <g>
   </g>
   <g>
   </g>
   <g>
   </g>
  </g>
  <g id="line-graphic.svg">
   <g>
    <path class="fil23" d="M11274 5869.29c-37.21,0 -72.56,-22.03 -87.73,-58.51 -20.18,-48.43 2.69,-104.06 51.13,-124.24l1103.31 -459.76 555.23 -1388.13c11.86,-29.64 37.86,-51.35 69.11,-57.75 31.5,-6.26 63.7,3.34 86.3,25.89l784.96 784.94 716.78 -781.96c35.44,-38.6 95.56,-41.3 134.26,-5.85 38.69,35.49 41.3,95.57 5.84,134.26l-783.86 855.12c-17.55,19.1 -42.08,30.2 -68.02,30.81 -23.99,0.42 -50.94,-9.52 -69.22,-27.84l-753.24 -753.24 -516.53 1291.45c-9.52,23.7 -28.11,42.59 -51.68,52.37l-1140.14 475.08c-11.98,5.01 -24.37,7.37 -36.51,7.37z"/>
    <path class="fil23" d="M15264.54 3517.72c-36.6,0 -71.5,-21.28 -87.08,-56.97 -21.05,-48.07 0.88,-104.12 48.94,-125.12l1140.15 -498.83c48.07,-21.05 104.11,0.88 125.12,48.94 21.05,48.07 -0.88,104.12 -48.93,125.13l-1140.16 498.82c-12.38,5.42 -25.33,8.02 -38.04,8.02z"/>
   </g>
   <circle class="fil27" cx="16404.65" cy="2923.84" r="190.02"/>
   <circle class="fil28" cx="13839.3" cy="4729.08" r="190.02"/>
   <circle class="fil29" cx="12984.19" cy="3873.97" r="190.02"/>
   <circle class="fil25" cx="12414.1" cy="5299.17" r="190.02"/>
   <circle class="fil30" cx="11273.95" cy="5774.23" r="190.02"/>
   <g>
    <circle class="fil24" cx="14884.44" cy="1688.68" r="95.02"/>
    <circle class="fil24" cx="14884.44" cy="2068.73" r="95.02"/>
    <circle class="fil24" cx="14884.44" cy="2448.77" r="95.02"/>
    <circle class="fil24" cx="14884.44" cy="2828.83" r="95.02"/>
   </g>
   <circle class="fil26" cx="14884.44" cy="3588.93" r="190.02"/>
   <g>
    <circle class="fil24" cx="14884.44" cy="4349.04" r="95.02"/>
    <circle class="fil24" cx="14884.44" cy="4729.08" r="95.02"/>
    <circle class="fil24" cx="14884.44" cy="5109.14" r="95.02"/>
    <circle class="fil24" cx="14884.44" cy="5489.19" r="95.02"/>
    <circle class="fil24" cx="14884.44" cy="5869.24" r="95.02"/>
    <circle class="fil24" cx="14884.44" cy="6249.3" r="95.02"/>
    <circle class="fil24" cx="14884.44" cy="6629.35" r="95.02"/>
    <circle class="fil24" cx="14884.44" cy="7009.39" r="95.02"/>
    <path class="fil24" d="M14884.44 4064c-261.95,0 -475.07,-213.12 -475.07,-475.07 0,-261.94 213.12,-475.06 475.07,-475.06 261.94,0 475.06,213.12 475.06,475.06 0,261.95 -213.12,475.07 -475.06,475.07zm0 -760.1c-157.17,0 -285.05,127.87 -285.05,285.04 0,157.18 127.87,285.05 285.05,285.05 157.17,0 285.04,-127.87 285.04,-285.05 0,-157.17 -127.87,-285.04 -285.04,-285.04z"/>
   </g>
   <g>
   </g>
   <g>
   </g>
   <g>
   </g>
   <g>
   </g>
   <g>
   </g>
   <g>
   </g>
   <g>
   </g>
   <g>
   </g>
   <g>
   </g>
   <g>
   </g>
   <g>
   </g>
   <g>
   </g>
   <g>
   </g>
   <g>
   </g>
   <g>
   </g>
  </g>
  <g id="attachments.svg">
   <path class="fil25" d="M5787.46 10294.82c-171.56,-171.56 -450.71,-171.56 -622.26,0l-1011.42 1011.42c-73.53,73.53 -73.53,193.16 0,266.68l177.79 177.79c73.53,73.53 193.16,73.53 266.68,0l785.59 -785.59c73.53,-73.53 73.53,-193.16 0,-266.68 -73.53,-73.53 -193.16,-73.53 -266.68,0l-418.68 418.68c-24.54,24.54 -24.54,64.35 0,88.89 24.54,24.54 64.35,24.54 88.89,0l418.68 -418.68c24.51,-24.51 64.38,-24.52 88.89,0 24.52,24.52 24.51,64.39 0,88.89l-785.59 785.59c-24.51,24.51 -64.38,24.52 -88.89,0l-177.79 -177.79c-24.52,-24.52 -24.51,-64.4 0,-88.89l1011.41 -1011.42c122.54,-122.54 321.93,-122.55 444.48,0 122.54,122.55 122.53,321.94 0,444.47l-644.51 644.51c-24.54,24.54 -24.54,64.34 0,88.89 24.54,24.54 64.35,24.54 88.89,0l644.51 -644.51c171.56,-171.56 171.56,-450.7 0,-622.26z"/>
   <g>
    <path class="fil31" d="M5161.61 10742.88l-418.68 418.68c-16.41,16.41 -21.59,39.58 -16.06,60.51 -10.38,-2.74 -20.26,-7.92 -28.39,-16.06 -24.54,-24.54 -24.54,-64.35 0,-88.89l418.68 -418.68c73.53,-73.53 193.15,-73.53 266.68,0 7.59,7.59 14.19,15.76 20.21,24.23 -73.6,-52.34 -176.51,-45.73 -242.45,20.21z"/>
    <path class="fil31" d="M5719.66 10407.06c8.04,6.59 15.85,13.6 23.35,21.1 122.55,122.55 122.54,321.94 0,444.47l-644.5 644.51c-16.41,16.41 -21.59,39.57 -16.06,60.5 -10.38,-2.74 -20.25,-7.92 -28.39,-16.06 -24.54,-24.54 -24.54,-64.34 0,-88.89l644.5 -644.5c115.03,-115.04 122.05,-297.8 21.09,-421.13z"/>
    <path class="fil31" d="M4509.36 11661.81l785.59 -785.59c16.38,-16.38 21.55,-39.55 16.05,-60.49 10.39,2.73 20.28,7.91 28.41,16.04 24.52,24.52 24.51,64.4 0,88.89l-785.59 785.59c-24.51,24.51 -64.39,24.52 -88.89,0l-44.45 -44.45c24.52,24.52 64.39,24.51 88.89,0z"/>
    <path class="fil31" d="M5209.64 10339.27l-1011.42 1011.41c-73.53,73.53 -73.53,193.16 0,266.68l-44.44 -44.44c-73.53,-73.53 -73.53,-193.16 0,-266.68l1011.42 -1011.42c171.55,-171.56 450.7,-171.56 622.26,0 7.5,7.5 14.25,15.45 21.1,23.34 -172.67,-149.7 -434.86,-142.95 -598.92,21.11z"/>
   </g>
   <g>
   </g>
   <g>
   </g>
   <g>
   </g>
   <g>
   </g>
   <g>
   </g>
   <g>
   </g>
   <g>
   </g>
   <g>
   </g>
   <g>
   </g>
   <g>
   </g>
   <g>
   </g>
   <g>
   </g>
   <g>
   </g>
   <g>
   </g>
   <g>
   </g>
  </g>
  <g id="archive.svg">
   <path class="fil22" d="M16490.78 7108.6l-791.46 -340.3c-28.2,-12.12 -60.9,0.91 -73.01,29.11l-592.78 1378.67c-12.13,28.2 0.9,60.89 29.1,73.01l970.18 417.14c28.19,12.12 60.89,-0.91 73.01,-29.11l515.93 -1199.95 -130.98 -328.58z"/>
   <g>
    <path class="fil24" d="M16621.76 7437.17l-201.05 -86.45c-15.86,-6.82 -23.2,-25.2 -16.38,-41.07l86.45 -201.06 130.98 328.58z"/>
    <rect class="fil24" transform="matrix(0.0292972 0.0734929 -0.0734929 0.0292972 15512.8 7817.85)" width="944.96" height="2400.8"/>
   </g>
   <path class="fil7" d="M15450.71 7842.6c7.23,23.9 16.48,47.14 27.68,69.45l62.12 -24.76 -27.69 -69.45 -62.11 24.76z"/>
   <path class="fil9" d="M14863.49 8150.31l-22.96 -57.58c-8.46,-21.21 1.88,-45.25 23.09,-53.7l458.17 -182.65c21.21,-8.45 45.24,1.88 53.69,23.08l22.95 57.58c8.46,21.21 -1.87,45.25 -23.08,53.7l-458.17 182.65c-21.2,8.45 -45.24,-1.88 -53.69,-23.08z"/>
   <path class="fil16" d="M14885.26 8093.31l458.17 -182.64c21.21,-8.46 45.24,1.88 53.69,23.08l1.34 3.36c0,0 -0.01,-0.05 -0.01,-0.07l-22.96 -57.58c-8.45,-21.2 -32.49,-31.53 -53.69,-23.08l-458.18 182.65c-21.21,8.45 -31.54,32.49 -23.09,53.7l21.63 54.24c-8.42,-21.2 1.91,-45.21 23.1,-53.66z"/>
   <path class="fil7" d="M15341.91 8004.08l33.45 -13.34c21.2,-8.45 31.54,-32.49 23.08,-53.7l-22.95 -57.58c-8.46,-21.2 -32.49,-31.53 -53.7,-23.08l-33.44 13.33 53.56 134.37z"/>
   <g>
    <path class="fil32" d="M15309.99 7924l33.44 -13.33c21.21,-8.45 45.24,1.88 53.69,23.08l1.34 3.36c0,0 -0.01,-0.04 -0.01,-0.07l-22.96 -57.58c-8.45,-21.2 -32.49,-31.53 -53.69,-23.08l-33.45 13.33 21.64 54.29z"/>
   </g>
   <circle class="fil33" transform="matrix(0.0726843 0.0312513 -0.0312513 0.0726843 15866.1 7717.27)" r="3512.6"/>
   <g>
    <path class="fil24" d="M15712.38 8074.71c-197.09,-84.74 -288.49,-314.03 -203.75,-511.12 84.74,-197.09 314.02,-288.49 511.11,-203.75 197.09,84.74 288.49,314.03 203.75,511.12 -84.74,197.09 -314.03,288.49 -511.11,203.75zm285.41 -663.8c-168.93,-72.63 -365.46,5.7 -438.1,174.64 -72.63,168.94 5.71,365.47 174.65,438.11 168.93,72.63 365.46,-5.71 438.1,-174.65 72.63,-168.93 -5.71,-365.47 -174.65,-438.1z"/>
    <path class="fil24" d="M16008.27 7808.66l-306.37 -131.73c-14.1,-6.06 -20.62,-22.41 -14.55,-36.51l0 0c6.06,-14.1 22.41,-20.62 36.51,-14.55l306.37 131.73c14.11,6.06 20.63,22.41 14.56,36.51l0 0c-6.06,14.1 -22.41,20.62 -36.52,14.55z"/>
    <path class="fil24" d="M16001.12 7684.58l-76.59 -32.93c-14.1,-6.06 -20.62,-22.41 -14.55,-36.51l0 0c6.06,-14.11 22.41,-20.63 36.51,-14.56l76.59 32.94c14.11,6.06 20.62,22.41 14.56,36.51l0 0c-6.07,14.11 -22.41,20.62 -36.52,14.55z"/>
    <path class="fil24" d="M15709.05 7801.02l-25.53 -10.98c-14.11,-6.06 -20.62,-22.41 -14.56,-36.51l0 0c6.06,-14.1 22.41,-20.62 36.52,-14.55l25.53 10.97c14.1,6.06 20.62,22.41 14.55,36.52l0 0c-6.06,14.1 -22.41,20.62 -36.51,14.55z"/>
   </g>
   <g>
    <path class="fil7" d="M15822.4 7607.75l-51.07 -21.95c-14.1,-6.06 -20.62,-22.41 -14.55,-36.51l0 0c6.06,-14.11 22.41,-20.63 36.51,-14.56l51.07 21.95c14.1,6.06 20.62,22.41 14.55,36.52l0 0c-6.06,14.1 -22.41,20.62 -36.51,14.55z"/>
    <path class="fil7" d="M15913.3 7888.84l-102.13 -43.91c-14.1,-6.06 -20.62,-22.41 -14.55,-36.51l0 0c6.06,-14.11 22.41,-20.63 36.52,-14.56l102.12 43.91c14.1,6.06 20.62,22.41 14.55,36.52l0 0c-6.06,14.1 -22.41,20.62 -36.51,14.55z"/>
   </g>
   <g>
   </g>
   <g>
   </g>
   <g>
   </g>
   <g>
   </g>
   <g>
   </g>
   <g>
   </g>
   <g>
   </g>
   <g>
   </g>
   <g>
   </g>
   <g>
   </g>
   <g>
   </g>
   <g>
   </g>
   <g>
   </g>
   <g>
   </g>
   <g>
   </g>
  </g>
  <g id="network-1.svg">
   <path class="fil34" d="M10926.17 4222.2c-813.17,0 -1474.73,-661.57 -1474.73,-1474.74 0,-813.16 661.56,-1474.74 1474.73,-1474.74 813.17,0 1474.73,661.57 1474.73,1474.73 0,813.17 -661.56,1474.75 -1474.73,1474.75zm0 -2821.23c-742.47,0 -1346.49,604.03 -1346.49,1346.48 0,742.46 604.02,1346.5 1346.49,1346.5 742.47,0 1346.49,-604.03 1346.49,-1346.49 0,-742.45 -604.02,-1346.49 -1346.49,-1346.49z"/>
   <polygon class="fil13" points="11083.07,1278.43 11083.07,1140.18 10769.27,1140.18 10769.27,1278.43 10926.17,1436.43 "/>
   <path class="fil9" d="M11321.76 1303.34l-213.61 -47.91c-3.23,-0.72 -6.2,-1.95 -8.97,-3.43l-173.02 96.19 -166.26 -100.85c-4.31,3.86 -9.65,6.73 -15.73,8.09l-213.61 47.91c-31.2,6.99 -53.23,33.53 -53.23,64.07l0 128.86c0,18.18 15.46,32.92 34.53,32.92l828.62 -0.01c19.06,0 34.53,-14.73 34.53,-32.91l0 -128.86c-0.02,-30.53 -22.05,-57.06 -53.25,-64.07z"/>
   <g>
    <path class="fil16" d="M11248.27 1422.42l111.87 -95.79c9.37,11.32 14.86,25.55 14.86,40.78l0 128.87c0,18.18 -15.46,32.91 -34.53,32.91l-120.84 0 0 -45.59c0.01,-23.33 10.42,-45.59 28.64,-61.19z"/>
    <path class="fil16" d="M10604.07 1422.42l-111.87 -95.79c-9.37,11.32 -14.86,25.55 -14.86,40.78l0 128.87c0,18.18 15.46,32.91 34.53,32.91l120.84 0 0 -45.59c-0.01,-23.33 -10.42,-45.59 -28.64,-61.19z"/>
    <polygon class="fil16" points="10969.33,1529.2 10883.01,1529.2 10893.79,1347.64 10958.53,1347.64 "/>
    <path class="fil16" d="M10768.37 1212.84l157.79 135.35c0,0 -44.18,21.27 -98.71,64.13 -11.25,8.84 -28.27,5.26 -34.3,-7.38l-74.13 -155.46 23.46 -33.54c5.82,-8.35 18.07,-9.82 25.89,-3.1z"/>
    <path class="fil16" d="M11083.96 1212.84l-157.79 135.35c0,0 44.18,21.27 98.72,64.13 11.24,8.84 28.26,5.26 34.29,-7.38l74.13 -155.46 -23.45 -33.54c-5.83,-8.35 -18.08,-9.82 -25.9,-3.1z"/>
   </g>
   <path class="fil19" d="M10990.29 567.43l-128.24 0c-106.23,0 -192.35,86.12 -192.35,192.35l0 139.24c0,34 13.5,66.63 37.55,90.68l26.56 26.55 384.72 0 26.56 -26.56c24.04,-24.05 37.55,-56.67 37.55,-90.68l0 -139.24c-0.01,-106.23 -86.13,-192.34 -192.36,-192.34z"/>
   <path class="fil14" d="M10726.98 897.73l8.22 184.83c1.29,28.82 15.11,55.56 37.7,72.88l65.11 49.91c16.35,12.53 36.24,19.32 56.68,19.32l62.98 0c20.44,0 40.34,-6.78 56.69,-19.32l65.11 -49.91c22.58,-17.33 36.41,-44.05 37.7,-72.88l8.21 -184.83c3.01,-67.43 -49.66,-123.79 -115.69,-123.79l-166.96 0c-66.05,0 -118.73,56.37 -115.73,123.79z"/>
   <polygon class="fil13" points="9672.45,2753.16 9672.45,2614.92 9358.65,2614.92 9358.65,2753.16 9515.56,2911.15 "/>
   <path class="fil22" d="M9911.15 2778.08l-213.62 -47.91c-3.22,-0.72 -6.2,-1.95 -8.96,-3.43l-173.02 96.2 -166.27 -100.86c-4.31,3.87 -9.65,6.73 -15.72,8.1l-213.62 47.91c-31.19,6.99 -53.23,33.51 -53.23,64.06l0 128.87c0,18.18 15.46,32.92 34.54,32.92l828.61 0c19.07,0 34.53,-14.74 34.53,-32.92l0 -128.86c-0.01,-30.56 -22.05,-57.08 -53.24,-64.08z"/>
   <g>
    <path class="fil34" d="M9837.65 2897.15l111.86 -95.78c9.38,11.31 14.87,25.55 14.87,40.78l0 128.86c0,18.18 -15.46,32.91 -34.53,32.91l-120.85 0 0 -45.58c0.01,-23.34 10.42,-45.59 28.65,-61.2z"/>
    <path class="fil34" d="M9193.46 2897.15l-111.87 -95.78c-9.37,11.31 -14.87,25.55 -14.87,40.78l0 128.87c0,18.18 15.46,32.92 34.54,32.92l120.83 0 0 -45.59c0,-23.35 -10.41,-45.6 -28.63,-61.21z"/>
   </g>
   <polygon class="fil16" points="9558.71,3003.94 9472.39,3003.94 9483.18,2822.38 9547.92,2822.38 "/>
   <g>
    <path class="fil34" d="M9357.77 2687.57l157.78 135.36c0,0 -44.18,21.26 -98.71,64.12 -11.25,8.84 -28.27,5.26 -34.3,-7.38l-74.13 -155.46 23.46 -33.53c5.81,-8.35 18.07,-9.82 25.9,-3.11z"/>
    <path class="fil34" d="M9673.34 2687.57l-157.78 135.36c0,0 44.18,21.26 98.71,64.12 11.25,8.84 28.27,5.26 34.3,-7.38l74.13 -155.46 -23.46 -33.53c-5.82,-8.35 -18.07,-9.82 -25.9,-3.11z"/>
   </g>
   <path class="fil19" d="M9579.67 2042.16l-128.23 0c-106.24,0 -192.36,86.12 -192.36,192.35l0 139.24c0,34 13.51,66.63 37.56,90.68l26.56 26.55 384.71 0 26.56 -26.56c24.05,-24.05 37.56,-56.66 37.56,-90.68l0 -139.23c-0.02,-106.24 -86.13,-192.36 -192.37,-192.36z"/>
   <path class="fil14" d="M9316.37 2372.46l8.22 184.83c1.28,28.82 15.11,55.56 37.7,72.88l65.1 49.91c16.35,12.53 36.24,19.32 56.69,19.32l62.98 0c20.44,0 40.34,-6.78 56.69,-19.32l65.11 -49.91c22.58,-17.32 36.41,-44.04 37.69,-72.88l8.22 -184.82c3,-67.43 -49.66,-123.79 -115.69,-123.79l-166.98 0c-66.04,0 -118.7,56.36 -115.71,123.78z"/>
   <polygon class="fil13" points="12493.68,2753.16 12493.68,2614.92 12179.89,2614.92 12179.89,2753.16 12336.79,2911.15 "/>
   <path class="fil22" d="M12732.38 2778.08l-213.62 -47.91c-3.22,-0.72 -6.2,-1.95 -8.96,-3.43l-173.02 96.2 -166.27 -100.86c-4.31,3.87 -9.65,6.73 -15.72,8.1l-213.62 47.92c-31.19,6.99 -53.23,33.53 -53.23,64.07l0 128.86c0,18.18 15.46,32.92 34.53,32.92l828.62 0c19.06,0 34.53,-14.74 34.53,-32.92l0 -128.86c-0.01,-30.57 -22.06,-57.09 -53.24,-64.09z"/>
   <g>
    <path class="fil34" d="M12658.88 2897.15l111.87 -95.78c9.38,11.31 14.87,25.55 14.87,40.78l0 128.86c0,18.18 -15.46,32.91 -34.54,32.91l-120.83 0 0 -45.58c0,-23.34 10.41,-45.59 28.63,-61.2z"/>
    <path class="fil34" d="M12014.68 2897.15l-111.86 -95.78c-9.38,11.31 -14.87,25.55 -14.87,40.78l0 128.86c0,18.18 15.46,32.91 34.53,32.91l120.85 0 0 -45.58c-0.01,-23.34 -10.42,-45.59 -28.65,-61.2z"/>
   </g>
   <polygon class="fil16" points="12379.94,3003.94 12293.63,3003.94 12304.41,2822.38 12369.15,2822.38 "/>
   <g>
    <path class="fil34" d="M12178.99 2687.57l157.78 135.36c0,0 -44.18,21.26 -98.71,64.12 -11.25,8.84 -28.27,5.26 -34.3,-7.38l-74.13 -155.46 23.46 -33.53c5.82,-8.35 18.07,-9.82 25.9,-3.11z"/>
    <path class="fil34" d="M12494.56 2687.57l-157.78 135.36c0,0 44.18,21.26 98.71,64.12 11.25,8.84 28.27,5.26 34.3,-7.38l74.13 -155.46 -23.46 -33.53c-5.82,-8.35 -18.07,-9.82 -25.9,-3.11z"/>
   </g>
   <path class="fil19" d="M12400.9 2042.16l-128.23 0c-106.23,0 -192.36,86.12 -192.36,192.35l0 139.24c0,34 13.51,66.63 37.56,90.68l26.56 26.55 384.71 0 26.56 -26.56c24.05,-24.05 37.56,-56.66 37.56,-90.68l0 -139.23c-0.01,-106.24 -86.13,-192.36 -192.37,-192.36z"/>
   <path class="fil14" d="M12137.6 2372.46l8.22 184.83c1.28,28.82 15.11,55.56 37.7,72.88l65.1 49.91c16.35,12.53 36.24,19.32 56.69,19.32l62.98 0c20.44,0 40.33,-6.78 56.69,-19.32l65.1 -49.91c22.58,-17.32 36.41,-44.04 37.7,-72.88l8.22 -184.82c3,-67.43 -49.67,-123.79 -115.7,-123.79l-166.96 0c-66.05,0 -118.72,56.36 -115.72,123.78z"/>
   <polygon class="fil13" points="11083.07,4035.53 11083.07,3897.3 10769.27,3897.3 10769.27,4035.53 10926.17,4193.53 "/>
   <path class="fil12" d="M11321.76 4060.45l-213.61 -47.91c-3.23,-0.72 -6.2,-1.95 -8.97,-3.43l-173.02 96.2 -166.26 -100.86c-4.31,3.86 -9.65,6.73 -15.73,8.09l-213.61 47.91c-31.2,6.99 -53.23,33.53 -53.23,64.08l0 128.86c0,18.18 15.46,32.92 34.53,32.92l828.62 0c19.06,0 34.53,-14.74 34.53,-32.92l0 -128.86c-0.02,-30.55 -22.05,-57.07 -53.25,-64.08z"/>
   <g>
    <path class="fil15" d="M11248.27 4179.52l111.87 -95.78c9.37,11.31 14.86,25.55 14.86,40.78l0 128.86c0,18.18 -15.46,32.92 -34.53,32.92l-120.84 0 0 -45.59c0.01,-23.34 10.42,-45.59 28.64,-61.2z"/>
    <path class="fil15" d="M10604.07 4179.52l-111.87 -95.78c-9.37,11.31 -14.86,25.55 -14.86,40.78l0 128.86c0,18.18 15.46,32.92 34.53,32.92l120.84 0 0 -45.59c-0.01,-23.34 -10.42,-45.59 -28.64,-61.2z"/>
   </g>
   <polygon class="fil16" points="10969.33,4286.32 10883.01,4286.32 10893.79,4104.75 10958.53,4104.75 "/>
   <g>
    <path class="fil15" d="M10768.37 3969.94l157.79 135.36c0,0 -44.18,21.26 -98.71,64.12 -11.25,8.84 -28.27,5.26 -34.3,-7.38l-74.13 -155.46 23.46 -33.53c5.82,-8.36 18.07,-9.82 25.89,-3.11z"/>
    <path class="fil15" d="M11083.96 3969.94l-157.79 135.36c0,0 44.18,21.26 98.72,64.12 11.24,8.84 28.26,5.26 34.29,-7.38l74.13 -155.46 -23.45 -33.53c-5.83,-8.36 -18.08,-9.82 -25.9,-3.11z"/>
   </g>
   <path class="fil19" d="M10990.29 3324.53l-128.24 0c-106.23,0 -192.35,86.12 -192.35,192.36l0 139.24c0,34 13.5,66.63 37.55,90.68l26.56 26.55 384.72 0 26.56 -26.56c24.04,-24.05 37.55,-56.66 37.55,-90.68l0 -139.23c-0.01,-106.25 -86.13,-192.36 -192.36,-192.36z"/>
   <path class="fil14" d="M10726.98 3654.85l8.22 184.82c1.29,28.83 15.11,55.57 37.7,72.89l65.11 49.91c16.35,12.53 36.24,19.32 56.68,19.32l62.98 0c20.44,0 40.34,-6.78 56.69,-19.32l65.11 -49.91c22.58,-17.32 36.41,-44.05 37.7,-72.89l8.21 -184.82c3.01,-67.43 -49.66,-123.79 -115.69,-123.79l-166.96 0c-66.05,0 -118.73,56.36 -115.73,123.79z"/>
   <g>
   </g>
   <g>
   </g>
   <g>
   </g>
   <g>
   </g>
   <g>
   </g>
   <g>
   </g>
   <g>
   </g>
   <g>
   </g>
   <g>
   </g>
   <g>
   </g>
   <g>
   </g>
   <g>
   </g>
   <g>
   </g>
   <g>
   </g>
   <g>
   </g>
  </g>
  <g id="wait.svg">
   <g>
    <path class="fil7" d="M9126.43 9269.17l-1328.03 589.64c-26.19,11.63 -38,42.3 -26.37,68.49l21.05 47.43c11.63,26.19 42.3,38 68.49,26.38l1328.03 -589.64c26.19,-11.63 38,-42.3 26.37,-68.49l-21.05 -47.43c-11.63,-26.19 -42.3,-38 -68.49,-26.37z"/>
    <path class="fil7" d="M9019.79 12609.72l1328.03 -589.64c26.19,-11.63 38,-42.3 26.37,-68.49l-21.06 -47.43c-11.62,-26.19 -42.3,-38 -68.49,-26.38l-1328.02 589.64c-26.19,11.63 -38,42.3 -26.38,68.49l21.06 47.43c11.63,26.19 42.3,38 68.49,26.37z"/>
   </g>
   <path class="fil22" d="M9210.11 10763.51l185.46 -552.05c41.34,-123.07 35.05,-257.18 -17.64,-375.83l-188.32 -424.17 -1328.03 589.64 188.33 424.18c52.69,118.66 147.94,213.27 266.95,265.13l533.87 232.67c35.71,15.56 64.28,43.94 80.1,79.54l0 0c15.8,35.6 17.69,75.84 5.29,112.76l-185.46 552.04c-41.35,123.07 -35.05,257.19 17.63,375.84l188.33 424.17 1328.03 -589.64 -188.33 -424.17c-52.69,-118.67 -147.95,-213.28 -266.96,-265.15l-533.86 -232.66c-35.71,-15.56 -64.28,-43.94 -80.1,-79.54l0 0c-15.79,-35.6 -17.69,-75.84 -5.29,-112.76z"/>
   <path class="fil34" d="M9187.78 11473.33l-58.6 -443.68c-3.92,-29.68 -14.86,-65.89 -30.67,-101.49 -15.8,-35.6 -35.33,-68.01 -54.71,-90.82l-289.82 -341.03c-64.6,-76.03 -129.68,-184.04 -182.36,-302.7l-188.33 -424.17 -521.72 231.64 188.33 424.18c52.69,118.66 147.94,213.27 266.95,265.13l533.87 232.67c35.71,15.56 64.28,43.94 80.1,79.54 15.8,35.59 17.69,75.84 5.29,112.76l-185.46 552.04c-41.35,123.07 -35.05,257.19 17.63,375.84l188.33 424.17 521.72 -231.64 -188.32 -424.17c-52.7,-118.67 -89.17,-239.37 -102.23,-338.29z"/>
   <g>
    <path class="fil3" d="M8314.82 9743.07l-21.06 -47.42c-11.63,-26.19 0.18,-56.87 26.38,-68.49l-521.72 231.64c-26.19,11.62 -38.01,42.3 -26.38,68.49l21.06 47.43c11.63,26.19 42.3,38 68.49,26.37l521.72 -231.64c-26.2,11.63 -56.87,-0.18 -68.49,-26.38z"/>
    <path class="fil3" d="M9473.03 12351.71l-21.06 -47.44c-11.63,-26.19 0.17,-56.86 26.37,-68.49l-521.72 231.65c-26.19,11.62 -38,42.3 -26.37,68.49l21.06 47.43c11.62,26.19 42.3,38 68.49,26.37l521.72 -231.64c-26.19,11.63 -56.86,-0.17 -68.48,-26.37z"/>
   </g>
   <path class="fil5" d="M9767.15 11331.19l-129.23 -56.32c-13.33,-5.81 -28.48,-5.76 -41.78,0.15l-241.29 107.13c-26.19,11.62 -56.86,-0.18 -68.49,-26.38l-212.73 -479.14c-22.59,-50.9 -28.96,-108.83 -11.43,-161.69 0.12,-0.34 0.22,-0.67 0.33,-1.01l133.3 -396.78 -612.69 272.03c-20.63,9.16 -20.53,38.48 0.16,47.5l329.64 143.67c0.32,0.14 0.65,0.28 0.97,0.43 50.97,22.45 89.68,66.02 112.28,116.92l212.73 479.13c11.63,26.19 -0.18,56.87 -26.38,68.49l-241.28 107.13c-13.29,5.91 -23.51,17.11 -28.13,30.9l-44.89 133.63c-28.95,86.15 -24.54,180.03 12.34,263.1l114.62 258.17c5.81,13.1 21.15,19.01 34.25,13.18l996.03 -442.22c13.1,-5.82 19,-21.15 13.18,-34.25l-114.62 -258.18c-36.88,-83.05 -103.56,-149.28 -186.88,-185.6z"/>
   <g>
    <path class="fil4" d="M8583.3 10636.7l329.64 143.67c0.32,0.14 0.65,0.28 0.97,0.43 50.97,22.45 89.68,66.02 112.27,116.92l121.81 274.34 -18.81 -142.39c-2.56,-19.37 -8.36,-41.62 -16.31,-64.57l-32.11 -72.33c-11.7,-21.28 -24.31,-40.5 -36.96,-55.4l-279.31 -328.69 -181.35 80.52c-20.63,9.16 -20.54,38.48 0.16,47.5z"/>
    <path class="fil4" d="M9290.01 11811.62c-52.69,-118.68 -89.16,-239.37 -102.22,-338.29l-2.12 -16.07 -214.4 95.19c-13.29,5.91 -23.51,17.11 -28.13,30.9l-44.89 133.63c-28.94,86.16 -24.54,180.03 12.34,263.1l114.62 258.18c5.82,13.1 21.15,19 34.25,13.18l355.72 -157.94 -125.16 -281.89 0 0z"/>
   </g>
   <g>
   </g>
   <g>
   </g>
   <g>
   </g>
   <g>
   </g>
   <g>
   </g>
   <g>
   </g>
   <g>
   </g>
   <g>
   </g>
   <g>
   </g>
   <g>
   </g>
   <g>
   </g>
   <g>
   </g>
   <g>
   </g>
   <g>
   </g>
   <g>
   </g>
  </g>
  <g id="dart-board.svg">
   <g>
    <path class="fil25" d="M2764.6 7139.08l26.65 -293c2.59,-28.57 15.12,-55.32 35.41,-75.61l367.13 -367.13c23.93,-23.94 62.77,-23.94 86.7,0l219.85 219.85c23.94,23.93 23.94,62.76 0,86.7l-367.14 367.14c-20.29,20.29 -47.04,32.82 -75.6,35.42l-293 26.63z"/>
    <circle class="fil25" cx="1538.36" cy="8365.33" r="1471.49"/>
   </g>
   <circle class="fil33" cx="1538.36" cy="8365.33" r="1103.62"/>
   <circle class="fil25" cx="1538.36" cy="8365.33" r="735.75"/>
   <circle class="fil33" cx="1538.36" cy="8365.33" r="367.88"/>
   <path class="fil21" d="M1538.36 8426.64c-15.69,0 -31.37,-5.99 -43.35,-17.97 -23.95,-23.94 -23.95,-62.75 0,-86.7l2023.31 -2023.3c23.94,-23.95 62.75,-23.95 86.7,0 23.94,23.94 23.94,62.74 0,86.69l-2023.31 2023.31c-11.97,11.99 -27.67,17.97 -43.36,17.97z"/>
   <path class="fil25" d="M3605.01 6298.67c-23.94,-23.94 -62.75,-23.94 -86.7,0l-104.66 104.66 86.7 86.7 104.66 -104.67c23.95,-23.94 23.95,-62.74 0,-86.69z"/>
   <g>
   </g>
   <g>
   </g>
   <g>
   </g>
   <g>
   </g>
   <g>
   </g>
   <g>
   </g>
   <g>
   </g>
   <g>
   </g>
   <g>
   </g>
   <g>
   </g>
   <g>
   </g>
   <g>
   </g>
   <g>
   </g>
   <g>
   </g>
   <g>
   </g>
  </g>
  <g id="offices.svg">
   <path class="fil34" d="M12718.22 14242.18l-893.74 0 0 -445.53c0,-30.88 -25.01,-55.92 -55.92,-55.92 -30.91,0 -55.92,25.04 -55.92,55.92l0 445.53 -895.59 0c-154.16,0 -279.59,125.42 -279.59,279.59l0 335.5c0,30.88 25.01,55.92 55.92,55.92 30.92,0 55.93,-25.04 55.93,-55.92l0 -335.5c0,-92.5 75.24,-167.76 167.75,-167.76l895.59 0 0 503.24c0,30.88 25.01,55.93 55.92,55.93 30.91,0 55.92,-25.04 55.92,-55.93l0 -503.24 893.74 0c92.5,0 167.76,75.25 167.76,167.76l0 335.5c0,30.88 25,55.92 55.92,55.92 30.9,0 55.92,-25.04 55.92,-55.92l0 -335.5c-0.03,-154.17 -125.45,-279.59 -279.61,-279.59z"/>
   <path class="fil7" d="M12438.63 13796.65l-1341.99 0 0 -1062.42c0,-30.88 25.04,-55.92 55.92,-55.92l1230.16 0c30.88,0 55.92,25.04 55.92,55.92l0 1062.42 -0.01 0z"/>
   <rect class="fil3" x="11096.64" y="13461.15" width="1342" height="279.58"/>
   <g>
    <path class="fil9" d="M11320.31 13572.98l0 0c-30.88,0 -55.93,25.04 -55.93,55.93l0 111.83c0,30.88 25.04,55.92 55.93,55.92l0 0c30.87,0 55.92,-25.04 55.92,-55.92l0 -111.83c-0.01,-30.88 -25.05,-55.93 -55.92,-55.93z"/>
    <path class="fil9" d="M11767.63 13572.98l0 0c-30.88,0 -55.92,25.04 -55.92,55.93l0 111.83c0,30.88 25.04,55.92 55.92,55.92l0 0c30.88,0 55.93,-25.04 55.93,-55.92l0 -111.83c0,-30.88 -25.05,-55.93 -55.93,-55.93z"/>
    <path class="fil9" d="M11991.3 13572.98l0 0c-30.88,0 -55.92,25.04 -55.92,55.93l0 111.83c0,30.88 25.04,55.92 55.92,55.92l0 0c30.88,0 55.92,-25.04 55.92,-55.92l0 -111.83c0,-30.88 -25.04,-55.93 -55.92,-55.93z"/>
    <path class="fil9" d="M12214.97 13572.98l0 0c-30.88,0 -55.92,25.04 -55.92,55.93l0 111.83c0,30.88 25.04,55.92 55.92,55.92l0 0c30.88,0 55.92,-25.04 55.92,-55.92l0 -111.83c0,-30.88 -25.03,-55.93 -55.92,-55.93z"/>
    <path class="fil9" d="M11543.98 13572.98l0 0c-30.88,0 -55.92,25.04 -55.92,55.93l0 111.83c0,30.88 25.04,55.92 55.92,55.92l0 0c30.88,0 55.92,-25.04 55.92,-55.92l0 -111.83c-0.01,-30.88 -25.04,-55.93 -55.92,-55.93z"/>
   </g>
   <g>
    <path class="fil23" d="M12494.55 13852.56l-1453.83 0c-30.88,0 -55.92,-25.04 -55.92,-55.92l0 0c0,-30.88 25.04,-55.92 55.92,-55.92l1453.82 0c30.88,0 55.93,25.04 55.93,55.92l0 0c0,30.89 -25.04,55.92 -55.92,55.92z"/>
    <path class="fil23" d="M11320.31 12790.15l0 0c-30.88,0 -55.93,25.04 -55.93,55.92l0 447.33c0,30.88 25.04,55.92 55.93,55.92l0 0c30.87,0 55.92,-25.03 55.92,-55.92l-0.01 -447.33c0,-30.88 -25.04,-55.92 -55.91,-55.92z"/>
    <path class="fil23" d="M11543.98 12790.15l0 0c-30.88,0 -55.92,25.04 -55.92,55.92l0 447.33c0,30.88 25.04,55.92 55.92,55.92l0 0c30.88,0 55.92,-25.03 55.92,-55.92l0 -447.33c-0.01,-30.88 -25.04,-55.92 -55.92,-55.92z"/>
    <path class="fil23" d="M11767.63 12790.15l0 0c-30.88,0 -55.92,25.04 -55.92,55.92l0 447.33c0,30.88 25.04,55.92 55.92,55.92l0 0c30.88,0 55.93,-25.03 55.93,-55.92l0 -447.33c0,-30.88 -25.05,-55.92 -55.93,-55.92z"/>
    <path class="fil23" d="M11991.3 12790.15l0 0c-30.88,0 -55.92,25.04 -55.92,55.92l0 447.33c0,30.88 25.04,55.92 55.92,55.92l0 0c30.88,0 55.92,-25.03 55.92,-55.92l0 -447.33c0,-30.88 -25.04,-55.92 -55.92,-55.92z"/>
    <path class="fil23" d="M12214.97 12790.15l0 0c-30.88,0 -55.92,25.04 -55.92,55.92l0 447.33c0,30.88 25.04,55.92 55.92,55.92l0 0c30.88,0 55.92,-25.03 55.92,-55.92l0 -447.33c0,-30.88 -25.03,-55.92 -55.92,-55.92z"/>
   </g>
   <g>
    <rect class="fil9" x="11935.39" y="13125.65" width="111.83" height="111.83"/>
    <rect class="fil9" x="12159.05" y="13125.65" width="111.83" height="111.83"/>
    <rect class="fil9" x="11488.05" y="13125.65" width="111.83" height="111.83"/>
    <rect class="fil9" x="11264.39" y="13125.65" width="111.83" height="111.83"/>
    <rect class="fil9" x="11711.72" y="13125.65" width="111.83" height="111.83"/>
    <rect class="fil9" x="11935.39" y="12901.98" width="111.83" height="111.83"/>
    <rect class="fil9" x="12159.05" y="12901.98" width="111.83" height="111.83"/>
    <rect class="fil9" x="11488.05" y="12901.98" width="111.83" height="111.83"/>
    <rect class="fil9" x="11264.39" y="12901.98" width="111.83" height="111.83"/>
    <rect class="fil9" x="11711.72" y="12901.98" width="111.83" height="111.83"/>
   </g>
   <path class="fil3" d="M10984.8 15585.98l-782.83 0 0 -782.83c0,-30.88 25.04,-55.93 55.93,-55.93l670.99 0.01c30.88,0 55.92,25.04 55.92,55.92l0 782.83 -0.01 0z"/>
   <g>
    <path class="fil23" d="M10984.8 15641.9l-782.83 0c-30.88,0 -55.92,-25.04 -55.92,-55.92l0 0c0,-30.88 25.04,-55.92 55.92,-55.92l782.83 0c30.88,0 55.92,25.03 55.92,55.92l0 0c0,30.88 -25.04,55.92 -55.92,55.92z"/>
    <rect class="fil23" x="10201.98" y="15306.4" width="782.83" height="111.83"/>
    <rect class="fil23" x="10201.98" y="15082.73" width="782.83" height="111.83"/>
    <rect class="fil23" x="10201.98" y="14859.06" width="782.83" height="111.83"/>
   </g>
   <g>
    <rect class="fil9" x="10537.47" y="14859.06" width="111.83" height="111.83"/>
    <rect class="fil9" x="10537.47" y="15082.73" width="111.83" height="111.83"/>
    <rect class="fil9" x="10537.47" y="15306.4" width="111.83" height="111.83"/>
    <rect class="fil9" x="10201.98" y="14859.06" width="111.83" height="111.83"/>
    <rect class="fil9" x="10201.98" y="15082.73" width="111.83" height="111.83"/>
    <rect class="fil9" x="10201.98" y="15306.4" width="111.83" height="111.83"/>
    <rect class="fil9" x="10872.98" y="14859.06" width="111.83" height="111.83"/>
    <rect class="fil9" x="10872.98" y="15082.73" width="111.83" height="111.83"/>
    <rect class="fil9" x="10872.98" y="15306.4" width="111.83" height="111.83"/>
   </g>
   <path class="fil3" d="M12159.06 15585.98l-782.84 0 0 -782.83c0,-30.88 25.04,-55.93 55.92,-55.93l671 0.01c30.88,0 55.92,25.04 55.92,55.92l0 782.83 0 0z"/>
   <g>
    <path class="fil23" d="M12159.06 15641.9l-782.84 0c-30.88,0 -55.92,-25.04 -55.92,-55.92l0 0c0,-30.88 25.04,-55.92 55.92,-55.92l782.84 0c30.87,0 55.92,25.03 55.92,55.92l0 0c-0.01,30.88 -25.05,55.92 -55.92,55.92z"/>
    <rect class="fil23" x="11376.22" y="15306.4" width="782.83" height="111.83"/>
    <rect class="fil23" x="11376.22" y="15082.73" width="782.83" height="111.83"/>
    <rect class="fil23" x="11376.22" y="14859.06" width="782.83" height="111.83"/>
   </g>
   <g>
    <rect class="fil9" x="11711.72" y="14859.06" width="111.83" height="111.83"/>
    <rect class="fil9" x="11711.72" y="15082.73" width="111.83" height="111.83"/>
    <rect class="fil9" x="11711.72" y="15306.4" width="111.83" height="111.83"/>
    <rect class="fil9" x="11376.22" y="14859.06" width="111.83" height="111.83"/>
    <rect class="fil9" x="11376.22" y="15082.73" width="111.83" height="111.83"/>
    <rect class="fil9" x="11376.22" y="15306.4" width="111.83" height="111.83"/>
    <rect class="fil9" x="12047.22" y="14859.06" width="111.83" height="111.83"/>
    <rect class="fil9" x="12047.22" y="15082.73" width="111.83" height="111.83"/>
    <rect class="fil9" x="12047.22" y="15306.4" width="111.83" height="111.83"/>
   </g>
   <path class="fil3" d="M13333.29 15585.98l-782.82 0 0 -782.83c0,-30.88 25.03,-55.93 55.92,-55.93l670.99 0.01c30.88,0 55.92,25.04 55.92,55.92l0 782.83 -0.01 0z"/>
   <g>
    <path class="fil23" d="M13333.29 15641.9l-782.82 0c-30.88,0 -55.93,-25.04 -55.93,-55.92l0 0c0,-30.88 25.04,-55.92 55.93,-55.92l782.82 0c30.88,0 55.93,25.03 55.93,55.92l0 0c0,30.88 -25.04,55.92 -55.93,55.92z"/>
    <rect class="fil23" x="12550.47" y="15306.4" width="782.83" height="111.83"/>
    <rect class="fil23" x="12550.47" y="15082.73" width="782.83" height="111.83"/>
    <rect class="fil23" x="12550.47" y="14859.06" width="782.83" height="111.83"/>
   </g>
   <g>
    <rect class="fil9" x="12885.97" y="14859.06" width="111.83" height="111.83"/>
    <rect class="fil9" x="12885.97" y="15082.73" width="111.83" height="111.83"/>
    <rect class="fil9" x="12885.97" y="15306.4" width="111.83" height="111.83"/>
    <rect class="fil9" x="12550.47" y="14859.06" width="111.83" height="111.83"/>
    <rect class="fil9" x="12550.47" y="15082.73" width="111.83" height="111.83"/>
    <rect class="fil9" x="12550.47" y="15306.4" width="111.83" height="111.83"/>
    <rect class="fil9" x="13221.47" y="14859.06" width="111.83" height="111.83"/>
    <rect class="fil9" x="13221.47" y="15082.73" width="111.83" height="111.83"/>
    <rect class="fil9" x="13221.47" y="15306.4" width="111.83" height="111.83"/>
   </g>
   <g>
   </g>
   <g>
   </g>
   <g>
   </g>
   <g>
   </g>
   <g>
   </g>
   <g>
   </g>
   <g>
   </g>
   <g>
   </g>
   <g>
   </g>
   <g>
   </g>
   <g>
   </g>
   <g>
   </g>
   <g>
   </g>
   <g>
   </g>
   <g>
   </g>
  </g>
  <g id="push-pin.svg">
   <path class="fil24" d="M15595.88 13176l-88 879.89 -87.99 -879.89c-3.27,-32.77 -4.92,-65.68 -4.92,-98.62l0 -817.7 185.82 0 0 817.71c0,32.93 -1.64,65.84 -4.91,98.61z"/>
   <path class="fil31" d="M16003.39 10649.31l0 -123.88 -991.01 0 0 123.88 55.97 0c35.37,0 63.55,29.56 61.88,64.88l-55.9 1173.88 867.13 0 -55.9 -1173.88c-1.68,-35.32 26.5,-64.88 61.88,-64.88 0,0 55.97,0 55.97,0z"/>
   <g>
    <path class="fil25" d="M16065.32 10649.31l-1114.88 0c-34.21,0 -61.94,-27.74 -61.94,-61.94l0 -61.93c0,-34.21 27.74,-61.94 61.94,-61.94l1114.89 0c34.2,0 61.93,27.74 61.93,61.94l0 61.94c0,34.2 -27.74,61.93 -61.94,61.93z"/>
    <path class="fil25" d="M15074.32 11888.06l-327.06 272.55c-28.24,23.53 -44.58,58.39 -44.58,95.17l0 65.85 1610.38 0 0 -65.85c0,-36.76 -16.33,-71.64 -44.57,-95.17l-327.06 -272.55 -867.13 0z"/>
   </g>
   <path class="fil31" d="M16251.13 12383.57l-1486.52 0c-34.2,0 -61.93,-27.74 -61.93,-61.94l0 -61.93c0,-34.21 27.74,-61.94 61.94,-61.94l1486.51 0c34.21,0 61.94,27.74 61.94,61.94l0 61.94c0,34.21 -27.74,61.93 -61.94,61.93z"/>
   <path class="fil35" d="M15383.64 11888.06l9.26 -1173.88c0,-69.26 -40.05,-73.63 -40.05,-126.82l0 -61.93 -340.47 0 0 123.88 55.97 0c35.37,0 63.54,29.56 61.87,64.87l-55.89 1173.89 309.31 0 0 -0.01z"/>
   <g>
    <path class="fil31" d="M15352.85 10587.36l0 -61.93c0,-34.21 29.86,-61.94 66.7,-61.94l-469.11 0c-34.21,0 -61.94,27.74 -61.94,61.94l0 61.94c0,34.21 27.74,61.94 61.94,61.94l425.03 -0.01c-10.82,-18.36 -22.61,-33 -22.61,-61.94z"/>
    <path class="fil31" d="M15329.45 12160.61l54.18 -272.55 -309.32 0 -327.06 272.55c-28.24,23.53 -44.58,58.39 -44.58,95.17l0 65.85 619.38 0c0,0 0,-46.46 0,-61.94 0,-45.19 2.71,-75.55 7.39,-99.08z"/>
   </g>
   <path class="fil35" d="M15322.06 12321.63c0,0 0,-46.46 0,-61.94 0,-24.76 0.87,-44.76 2.39,-61.94l-559.83 0c-34.2,0 -61.93,27.74 -61.93,61.94l0 61.94c0,34.21 27.74,61.94 61.93,61.94l624.14 -0.01c-36.84,0 -66.7,-27.73 -66.7,-61.93z"/>
   <rect class="fil7" x="15414.97" y="12383.57" width="185.82" height="123.87"/>
   <g>
   </g>
   <g>
   </g>
   <g>
   </g>
   <g>
   </g>
   <g>
   </g>
   <g>
   </g>
   <g>
   </g>
   <g>
   </g>
   <g>
   </g>
   <g>
   </g>
   <g>
   </g>
   <g>
   </g>
   <g>
   </g>
   <g>
   </g>
   <g>
   </g>
  </g>
 </g>
</svg>
