<?xml version="1.0" encoding="UTF-8"?>
<!DOCTYPE svg PUBLIC "-//W3C//DTD SVG 1.1//EN" "http://www.w3.org/Graphics/SVG/1.1/DTD/svg11.dtd">
<!-- Creator: CorelDRAW 2018 -->
<svg xmlns="http://www.w3.org/2000/svg" xml:space="preserve" width="677.333mm" height="113.748mm" version="1.1" style="shape-rendering:geometricPrecision; text-rendering:geometricPrecision; image-rendering:optimizeQuality; fill-rule:evenodd; clip-rule:evenodd"
viewBox="0 0 67733.3 11374.81"
 xmlns:xlink="http://www.w3.org/1999/xlink">
 <defs>
  <style type="text/css">
   <![CDATA[
    .fil3 {fill:#FEFEFE}
    .fil1 {fill:#FEFEFE;fill-opacity:0.200000}
    .fil0 {fill:#FEFEFE;fill-opacity:0.301961}
    .fil2 {fill:#FEFEFE;fill-opacity:0.501961}
   ]]>
  </style>
 </defs>
 <g id="Layer_x0020_1">
  <metadata id="CorelCorpID_0Corel-Layer"/>
  <g id="_885997192">
   <path class="fil0" d="M0.01 6846.82c827.58,-399.75 12786.5,-6607.39 31743,-1934.64 17452.39,4302.01 32721.43,3372.61 35990.28,2931.75l0 -7843.9 -67733.29 0 0 6846.81 0.01 -0.02z"/>
   <path class="fil1" d="M0.01 11374.81c737.83,-749.12 10304.69,-9762.1 39743.28,-5606.13 20326.22,2869.54 26283.69,3227.37 27990.01,3141.59l0 -8910.27 -67733.29 0 0 11374.78 0 0.03z"/>
   <path class="fil2" d="M0.01 5456.03c1056.7,-171.18 10848.95,-6581.5 34160.02,-1552.59 14528.22,5103.72 18758.93,6967.8 33573.26,7054.99l0 -10958.4 -67733.29 0 0 1984.67 0.01 3471.33z"/>
   <path class="fil3" d="M0.01 4727.64c888.02,-373.92 14229.56,-5758.36 34160.02,-478.88 18032.2,4776.64 30671.42,2637.63 33573.26,2022l0 -6270.73 -67733.29 0 0 4727.61 0.01 0z"/>
  </g>
 </g>
</svg>
