<?xml version="1.0" encoding="UTF-8"?>
<!DOCTYPE svg PUBLIC "-//W3C//DTD SVG 1.1//EN" "http://www.w3.org/Graphics/SVG/1.1/DTD/svg11.dtd">
<!-- Creator: CorelDRAW 2018 -->
<svg xmlns="http://www.w3.org/2000/svg" xml:space="preserve" width="677.333mm" height="132.708mm" version="1.1" style="shape-rendering:geometricPrecision; text-rendering:geometricPrecision; image-rendering:optimizeQuality; fill-rule:evenodd; clip-rule:evenodd"
viewBox="0 0 23117.18 4529.3"
 xmlns:xlink="http://www.w3.org/1999/xlink">
 <defs>
  <style type="text/css">
   <![CDATA[
    .fil4 {fill:#FEFEFE}
    .fil1 {fill:#FEFEFE;fill-opacity:0.200000}
    .fil0 {fill:#FEFEFE;fill-opacity:0.301961}
    .fil2 {fill:#FEFEFE;fill-opacity:0.400000}
    .fil3 {fill:#FEFEFE;fill-opacity:0.501961}
   ]]>
  </style>
 </defs>
 <g id="Layer_x0020_1">
  <metadata id="CorelCorpID_0Corel-Layer"/>
  <g id="_875824640">
   <path class="fil0" d="M23117.18 2331.83c-282.45,128.3 -4292.39,1869.31 -10762.19,369.61 -5956.45,-1380.72 -11239.34,-831.12 -12354.99,-689.62l0 2517.48 23117.18 0 0 -2197.47z"/>
   <path class="fil1" d="M23117.18 878.58c-251.82,240.43 -3516.96,3133.12 -13564.27,1799.27 -6937.28,-920.97 -8970.55,-1035.82 -9552.91,-1008.29l0 2859.73 23117.18 0 0 -3650.71z"/>
   <path class="fil2" d="M23117.18 0c-253.77,212.65 -2435.19,3495.99 -11663.76,1953.04 -9228.57,-1542.95 -10609.19,1563.26 -11453.42,2368.72l0 207.54 23117.18 0 0 -4529.3z"/>
   <path class="fil3" d="M23117.18 3835.97c-360.65,59.8 -6772.97,1086.51 -11658.72,-670.29 -4958.44,-1782.94 -6402.37,-2885.19 -11458.46,-2915.65l0 4279.27 23117.18 0 0 -693.32z"/>
   <path class="fil4" d="M23117.18 3011.98c-303.08,120.01 -4856.51,1848.13 -11658.72,153.7 -6154.34,-1533.05 -10468.07,-846.55 -11458.46,-648.96l0 2012.57 23117.18 0 0 -1517.32z"/>
  </g>
 </g>
</svg>
