<svg height="512" viewBox="0 0 512 512" width="512" xmlns="http://www.w3.org/2000/svg"><g id="Flat"><path d="m328 448h64a40 40 0 0 1 40 40v8h-104z" fill="#1c578a"/><path d="m328 448h-104v-32.64l-184-7.36a223.70578 223.70578 0 0 0 -16 83.08105v4.91895h344v-8a40.0001 40.0001 0 0 0 -40-40z" fill="#2a70ab"/><path d="m72 448h152v-16h-152a8 8 0 0 0 0 16z" fill="#1c578a"/><path d="m240 312 76.846 64.038-28.846 31.962h-92z" fill="#47a2d4"/><path d="m256 168v.00007a235.51626 235.51626 0 0 1 -11.92655 140.26483l-43.42945 106.16087-160.644-6.42577-16-168v-38.05891a81.94105 81.94105 0 0 1 24-57.94109 81.94105 81.94105 0 0 1 57.94107-24h78.05893z" fill="#4db7e5"/><path d="m352 72.29a23.7138 23.7138 0 0 1 -23.7002 23.71h-1.73a23.38647 23.38647 0 0 1 -6.46-.9l-8.1098 64.9-16-8-16 32-24-16h-56l-16-48 15.15991-24.46 35.01-56.49a32.00141 32.00141 0 0 1 38.91993-13.4001s40.79 15.69007 63.71 24.51a23.6969 23.6969 0 0 1 15.20016 22.1301z" fill="#ffdad2"/><path d="m352 72.29a23.7138 23.7138 0 0 1 -23.7002 23.71h-1.73a23.38647 23.38647 0 0 1 -6.46-.9 23.73515 23.73515 0 0 1 -5.73974-2.48l-34.37006-20.62-16 40-13.64014-34.09009-8.132 10.51674a32.05747 32.05747 0 0 1 -43.06795 7.11341l35.01-56.49a32.00141 32.00141 0 0 1 38.91993-13.40016s40.79 15.69007 63.71 24.51a23.6969 23.6969 0 0 1 15.20016 22.1301z" fill="#6b402a"/><path d="m120 368a8.00008 8.00008 0 0 1 -8-8v-136a8 8 0 0 1 16 0v136a8.00008 8.00008 0 0 1 -8 8z" fill="#47a2d4"/><path d="m288 352h24l48-16 56 48-16 16-40-24-48 32h-24z" fill="#ff9f9b"/><rect fill="#4db7e5" height="32" rx="16" width="152" x="264" y="416"/><path d="m458.89588 277.93654-45.77277 124.16618a16.54516 16.54516 0 0 0 8.1247 20.52119l1.94766.97382a16.54514 16.54514 0 0 0 23.01447-9.32982l43.82515-125.14a16.54516 16.54516 0 0 0 -11.60247-21.51976 16.54516 16.54516 0 0 0 -19.53674 10.32839z" fill="#4db7e5"/><path d="m199.26123 198.89209a219.8976 219.8976 0 0 1 -36.19873 104.51367 219.93452 219.93452 0 0 0 -36.03418 141.90772l.97168 10.68652 48 32 16-32-2.42578-12.12842a219.92741 219.92741 0 0 1 14.16894-131.28418l9.81739-22.43994a219.93561 219.93561 0 0 0 18.43945-88.15234v-1.99512z" fill="#348fd9"/><path d="m200 168v13.41016c0 5.85156-.27588 11.6792-.73877 17.48193l32.73877 1.10791v-32z" fill="#2d7dbf"/><path d="m152 120 24 56 24-8-16-48z" fill="#47a2d4"/><path d="m112 224v128l128 8v56l-200-8-16-168v-38.05891a81.94105 81.94105 0 0 1 24-57.94109 81.94105 81.94105 0 0 1 57.94107-24h6.05893z" fill="#4db7e5"/><path d="m256.02344 168.01562c-.00635-.00439-.00928-.01123-.01563-.01562l-24.00781-16v-16a8 8 0 0 0 -16 0v20.28125a7.997 7.997 0 0 0 3.5625 6.65625l7.5957 5.0625h28.8418z" fill="#ff9f9b"/><path d="m240 360h24l48-16 56 48-16 16-40-24-48 32h-24z" fill="#ffdad2"/></g></svg>