<?xml version="1.0" encoding="UTF-8"?>
<!DOCTYPE svg PUBLIC "-//W3C//DTD SVG 1.1//EN" "http://www.w3.org/Graphics/SVG/1.1/DTD/svg11.dtd">
<!-- Creator: CorelDRAW 2019 (64 Bit) -->
<svg xmlns="http://www.w3.org/2000/svg" xml:space="preserve" width="100%" version="1.1" style="shape-rendering:geometricPrecision; text-rendering:geometricPrecision; image-rendering:optimizeQuality; fill-rule:evenodd; clip-rule:evenodd"
viewBox="0 0 67733.3 4217.12">
 <defs>
  <style type="text/css">
   <![CDATA[
    .fil3 {fill:#FEFEFE}
    .fil1 {fill:#FEFEFE;fill-opacity:0.200000}
    .fil0 {fill:#FEFEFE;fill-opacity:0.301961}
    .fil2 {fill:#FEFEFE;fill-opacity:0.501961}
   ]]>
  </style>
 </defs>
 <g id="Layer_x0020_1">
  <metadata id="CorelCorpID_0Corel-Layer"/>
  <g id="_885997192">
   <path class="fil0" d="M-0 1678.72c827.58,148.2 12786.5,2449.63 31743,717.25 17452.39,-1594.94 32721.43,-1250.37 35990.29,-1086.92l0 2908.06 -67733.29 0 0 -2538.39z"/>
   <path class="fil1" d="M-0 0c737.83,277.73 10304.69,3619.22 39743.29,2078.43 20326.22,-1063.86 26283.69,-1196.52 27990.01,-1164.72l0 3303.41 -67733.3 0 0 -4217.11 0 -0.01z"/>
   <path class="fil2" d="M-0 2194.34c1056.7,63.46 10848.95,2440.04 34160.03,575.61 14528.22,-1892.16 18758.93,-2583.26 33573.26,-2615.58l0 4062.74 -67733.29 0 0 -2022.77z"/>
   <path class="fil3" d="M-0 2464.39c888.02,138.62 14229.56,2134.86 34160.03,177.54 18032.2,-1770.91 30671.42,-977.88 33573.26,-749.64l0 2324.82 -67733.29 0 0 -1752.72z"/>
  </g>
 </g>
</svg>
