<?xml version="1.0" encoding="UTF-8"?>
<!DOCTYPE svg PUBLIC "-//W3C//DTD SVG 1.1//EN" "http://www.w3.org/Graphics/SVG/1.1/DTD/svg11.dtd">
<!-- Creator: CorelDRAW 2018 -->
<svg xmlns="http://www.w3.org/2000/svg" xml:space="preserve" width="362.136mm" height="96.2162mm" version="1.1" style="shape-rendering:geometricPrecision; text-rendering:geometricPrecision; image-rendering:optimizeQuality; fill-rule:evenodd; clip-rule:evenodd"
viewBox="0 0 4662012.44 1238654.11"
 xmlns:xlink="http://www.w3.org/1999/xlink">
 <defs>
  <style type="text/css">
   <![CDATA[
    .fil4 {fill:white}
    .fil3 {fill:url(#id2)}
    .fil0 {fill:url(#id3);fill-opacity:0.149020}
    .fil2 {fill:url(#id4);fill-opacity:0.501961}
    .fil1 {fill:url(#id5);fill-opacity:0.501961}
   ]]>
  </style>
   <mask id="id0">
  <linearGradient id="id1" gradientUnits="userSpaceOnUse" x1="1927712.61" y1="-1129647.73" x2="1927712.61" y2="1368199.12">
   <stop offset="0" style="stop-opacity:1; stop-color:white"/>
   <stop offset="1" style="stop-opacity:0; stop-color:white"/>
  </linearGradient>
    <rect style="fill:url(#id1)" x="-490.49" y="618836.57" width="4662992.13" height="620308.03"/>
   </mask>
  <linearGradient id="id2" gradientUnits="userSpaceOnUse" x1="-18409.33" y1="1134111.03" x2="5198119.05" y2="280102.4">
   <stop offset="0" style="stop-opacity:1; stop-color:#3168B7"/>
   <stop offset="1" style="stop-opacity:1; stop-color:#10376E"/>
  </linearGradient>
  <linearGradient id="id3" gradientUnits="userSpaceOnUse" xlink:href="#id2" x1="-18409.33" y1="1216286.28" x2="5198120.48" y2="132653.16">
  </linearGradient>
  <linearGradient id="id4" gradientUnits="userSpaceOnUse" xlink:href="#id2" x1="-18409.33" y1="1219670.39" x2="5198120.48" y2="299985.23">
  </linearGradient>
  <linearGradient id="id5" gradientUnits="userSpaceOnUse" xlink:href="#id2" x1="-18409.33" y1="1218582.59" x2="5198120.48" y2="246198.18">
  </linearGradient>
 </defs>
 <g id="Layer_x0020_1">
  <metadata id="CorelCorpID_0Corel-Layer"/>
  <path class="fil0" d="M1.29 58970.35c0,0 788405.77,580711.24 2331005.58,203504.15 1542597.23,-377209.66 2331005.58,-236966.65 2331005.58,-236966.65l0 1213146.25 -4662012.44 0 0 -1179683.76 1.29 0z"/>
  <path class="fil1" d="M4662011.16 129080.27c0,0 -788408.35,572096.19 -2331005.58,233609.2 -1542597.23,-338483.13 -2331005.58,-212635.44 -2331005.58,-212635.44l0 1088600.08 4662012.44 0 0 -1109575.13 -1.29 1.29z"/>
  <path class="fil2" d="M4662011.16 189214.4c0,0 -788408.35,541090 -2331005.58,220949.24 -1542597.23,-320139.46 -2331005.58,-201112.23 -2331005.58,-201112.23l0 1029602.7 4662012.44 0 0 -1049441 -1.29 1.29z"/>
 </g>
 <g id="Layer_x0020_1_0">
  <metadata id="CorelCorpID_1Corel-Layer"/>
  <path class="fil3" d="M4662011.16 411866.83c0,0 -963792.58,387446.79 -2331005.58,0 -1441093.62,-408385.79 -2331005.58,149975.5 -2331005.58,149975.5l0 676811.79 4662009.87 0 0 -826789.86 1.29 2.57z"/>
  <path class="fil4" style="mask:url(#id0)" d="M4662011.16 714106.76c0,0 -963792.58,245812.13 -2331005.58,0 -1441093.62,-259095.17 -2331005.58,95151.75 -2331005.58,95151.75l0 429395.6 4662009.87 0 0 -524548.64 1.29 1.29z"/>
 </g>
</svg>
