<?xml version="1.0" encoding="UTF-8"?>
<!DOCTYPE svg PUBLIC "-//W3C//DTD SVG 1.1//EN" "http://www.w3.org/Graphics/SVG/1.1/DTD/svg11.dtd">
<!-- Creator: CorelDRAW 2018 -->
<svg xmlns="http://www.w3.org/2000/svg" xml:space="preserve" width="677.332mm" height="76.2781mm" version="1.1" style="shape-rendering:geometricPrecision; text-rendering:geometricPrecision; image-rendering:optimizeQuality; fill-rule:evenodd; clip-rule:evenodd"
viewBox="0 0 67733.26 7627.81"
 xmlns:xlink="http://www.w3.org/1999/xlink">
 <defs>
  <style type="text/css">
   <![CDATA[
    .fil3 {fill:#FEFEFE}
    .fil1 {fill:#FEFEFE;fill-opacity:0.200000}
    .fil0 {fill:#FEFEFE;fill-opacity:0.301961}
    .fil2 {fill:#FEFEFE;fill-opacity:0.501961}
   ]]>
  </style>
 </defs>
 <g id="Layer_x0020_1">
  <metadata id="CorelCorpID_0Corel-Layer"/>
  <g id="_885997192">
   <path class="fil0" d="M0.01 3036.42c827.58,268.07 12786.49,4430.83 31742.97,1297.35 17452.38,-2884.88 32721.4,-2261.64 35990.26,-1966l0 5260.02 -67733.24 0 0 -4591.39 0.01 0.02z"/>
   <path class="fil1" d="M0.01 0c737.83,502.35 10304.68,6546.35 39743.26,3759.41 20326.2,-1924.28 26283.67,-2164.24 27989.99,-2106.72l0 5975.12 -67733.24 0 0 -7627.79 0 -0.02 -0.01 0z"/>
   <path class="fil2" d="M0.01 3969.06c1056.7,114.79 10848.94,4413.47 34160,1041.15 14528.21,-3422.5 18758.91,-4672.52 33573.23,-4730.99l0 7348.57 -67733.24 0 0 -1330.9 0.01 -2327.83z"/>
   <path class="fil3" d="M0.01 4457.51c888.02,250.75 14229.55,3861.49 34160,321.13 18032.19,-3203.16 30671.39,-1768.76 33573.23,-1355.93l0 4205.07 -67733.24 0 0 -3170.28 0.01 0 0 0.01z"/>
  </g>
 </g>
</svg>
